<?xml version="1.0" encoding="utf-8"?>
<!-- Generator: Adobe Illustrator 27.5.0, SVG Export Plug-In . SVG Version: 6.00 Build 0)  -->
<svg version="1.1" xmlns="http://www.w3.org/2000/svg" xmlns:xlink="http://www.w3.org/1999/xlink" x="0px" y="0px"
	 viewBox="0 0 3710 3710" style="enable-background:new 0 0 3710 3710;" xml:space="preserve">
<g id="Background">
	<g>
		<g>
			<rect style="fill:#FFFFFF;" width="3710" height="3710"/>
		</g>
	</g>
</g>
<g id="Illustration">
	<g id="Responsive_web_design">
		<path style="fill:#F4F7FA;" d="M1623.855,510.217c-378.329,6.423-963.677,144.694-1132.163,500.023
			c-58.845,124.103-54.861,306.549-46.894,671.441c2.342,107.251,6.225,263.572,33.496,457.531
			c56.65,402.914,95.215,677.203,241.171,836.917c365.721,400.195,1686.792,388.631,2250.927-331.851
			c307.739-393.028,355.081-952.122,73.691-1414.186C2734.278,721.37,2130.349,501.617,1623.855,510.217z"/>
		<g>
			<g>
				<g>
					<g>
						
							<linearGradient id="SVGID_1_" gradientUnits="userSpaceOnUse" x1="2110.7603" y1="2600.1472" x2="506.7326" y2="-173.4802" gradientTransform="matrix(0.9938 0.1108 -0.1108 0.9938 95.5955 -262.3796)">
							<stop  offset="0" style="stop-color:#AA80F9"/>
							<stop  offset="0.9964" style="stop-color:#6165D7"/>
						</linearGradient>
						<path style="fill:url(#SVGID_1_);" d="M1317.902,2044.179c-10.652,45.144-24.483,81.057-36.941,124.675
							c193.052-30.245,384.701-24.01,580.482-54.319c-147.145-208.759-275.822-294.256-226.515-586.265
							c23.139-137.035,108.895-400.336,42.654-525.36c-75.467-142.437-177.979-94.523-162.489-230.128
							c24.209-211.948-97.066-421.89-371.297-308.273c-270.655,112.135-187.728,868.069-9.118,1059.335
							C1254.048,1717.051,1373.526,1808.454,1317.902,2044.179z"/>
						<g>
							<defs>
								<path id="SVGID_00000039111363031193617280000014488117332728635788_" d="M1638.163,1505.233
									c8.876-51.435,110.935-404.895,40.378-507.777c-80.384-117.211-177.41-95.781-162.929-226.991
									c22.632-205.074-97.069-421.122-371.741-306.454c-271.089,113.173-187.375,869.61-9.412,1058.292
									c121.385,213.171,236.736,256.918,183.842,536.208C1281.252,2254.14,1604.791,1698.619,1638.163,1505.233z"/>
							</defs>
							<clipPath id="SVGID_00000110471059338204417860000005977747769568569472_">
								<use xlink:href="#SVGID_00000039111363031193617280000014488117332728635788_"  style="overflow:visible;"/>
							</clipPath>
							<g style="clip-path:url(#SVGID_00000110471059338204417860000005977747769568569472_);">
								<path style="fill:#FCFDFE;" d="M1579.443,2117.699c-21.256-68.906-48.186-136.969-74.228-202.792l-9.848-24.92
									c-20.865-52.919-38.583-100.629-54.216-142.721c-8.794-23.681-17.102-46.046-25.332-67.667
									c-25.04-65.775-42.724-111.853-51.584-134.941c-3.042-7.929-5.046-13.146-5.948-15.52
									c-68.918-181.195-95.912-452.825-110.413-598.754c-1.572-15.81-2.975-29.941-4.253-42.073
									c-21.93-208.419-69.713-422.662-142.019-636.776l2.892-0.977c72.378,214.328,120.209,428.791,142.164,637.434
									c1.276,12.136,2.681,26.274,4.253,42.089c14.488,145.788,41.455,417.156,110.229,597.97
									c0.903,2.373,2.904,7.589,5.945,15.513c8.862,23.09,26.546,69.17,51.588,134.948c8.235,21.631,16.545,44.006,25.341,67.692
									c15.628,42.078,33.341,89.772,54.193,142.665l9.848,24.916c26.063,65.876,53.014,133.994,74.306,203.015L1579.443,2117.699z
									"/>
								<path style="fill:#FCFDFE;" d="M1449.325,1783.643c-39.832-121.862-37.521-281.073,6.686-460.42
									c36.829-149.413,102.169-307.782,179.264-434.498l2.609,1.586c-76.941,126.463-142.15,284.521-178.908,433.644
									c-44.071,178.791-46.404,337.422-6.748,458.74L1449.325,1783.643z"/>
								<path style="fill:#FCFDFE;" d="M1253.028,954.36l-3.016-0.464c16.892-109.602,47.742-217.726,77.576-322.289
									c20.424-71.582,41.544-145.601,58.021-219.501l2.98,0.665c-16.497,73.987-37.629,148.049-58.065,219.673
									C1300.715,736.919,1269.891,844.948,1253.028,954.36z"/>
								<path style="fill:#FCFDFE;" d="M1299.151,1310.063c-72.862-136.076-232.144-285.239-340.866-319.208l0.91-2.913
									c109.358,34.167,269.472,184.017,342.646,320.681L1299.151,1310.063z"/>
							</g>
						</g>
					</g>
					<g>
						
							<linearGradient id="SVGID_00000113347363691021652060000004859693204726280348_" gradientUnits="userSpaceOnUse" x1="539.424" y1="1567.1289" x2="1556.1683" y2="1567.1289">
							<stop  offset="0.0036" style="stop-color:#E38DDD"/>
							<stop  offset="1" style="stop-color:#9571F6"/>
						</linearGradient>
						<path style="fill:url(#SVGID_00000113347363691021652060000004859693204726280348_);" d="M1156.568,1418.88
							c53.865,260.847,204.335,204.121,399.6,140.098c-32.7,245.905-55.487,486.546-77.765,730.838
							c-131.322,40.909-226.146,67.767-300.509-81.749c-84.104-169.101-127.033-269.476-330.953-310.414
							c-203.92-40.939-358.919-190.117-291.542-386.839c70.904-207.017-108.834-475.441,63.795-626.662
							C919.99,620.656,1100.478,1147.258,1156.568,1418.88z"/>
						<g>
							<defs>
								<path id="SVGID_00000098190919746414840230000004504332139053272496_" d="M1575.099,2242.782
									c-141.418,72.413-300.8,155.052-398.032-37.011c-80.945-159.89-127.162-270.449-330.356-308.655
									s-358.703-191.204-291.428-386.25c70.797-205.254-108.091-478.161,63.928-626.57
									c299.732-258.593,482.969,253.79,536.815,538.562c53.846,284.772,233.705,157.605,416.205,146.796
									C1821.382,1554.896,1689.359,2184.275,1575.099,2242.782z"/>
							</defs>
							<clipPath id="SVGID_00000072987615342216268940000008207180581895075494_">
								<use xlink:href="#SVGID_00000098190919746414840230000004504332139053272496_"  style="overflow:visible;"/>
							</clipPath>
							<g style="clip-path:url(#SVGID_00000072987615342216268940000008207180581895075494_);">
								<path style="fill:#FCFDFE;" d="M1459.849,1976.2c-202.274-97.365-368.113-184.117-507.907-338.547
									c-133.76-147.762-199.444-307.215-219.625-533.17c-10.471-117.232-31.226-200.04-61.696-312.994l2.949-0.796
									c30.511,113.11,51.294,196.04,61.788,313.518c20.118,225.241,85.567,384.164,218.846,531.393
									c139.424,154.02,305,240.628,506.969,337.846L1459.849,1976.2z"/>
								<path style="fill:#FCFDFE;" d="M1204.449,2301.254l-2.372-1.922c46.528-57.345,96.696-104,153.369-142.633
									c28.973-19.75,58.692-33.172,94.404-47.248l1.119,2.839c-35.521,14.003-65.065,27.343-93.802,46.933
									C1300.742,2197.686,1250.787,2244.145,1204.449,2301.254z"/>
								<path style="fill:#FCFDFE;" d="M1042.383,1726.581c-152.824-73.915-342.443-91.311-533.926-48.988l-0.658-2.98
									c192.148-42.473,382.474-24.996,535.915,49.221L1042.383,1726.581z"/>
								<path style="fill:#FCFDFE;" d="M778.828,1345.487c-2.412-19.826,23.371-185.821,48.305-334.558
									c25.035-149.339,53.933-309.75,58.961-319.693l2.726,1.377c-4.315,8.531-30.636,151.553-58.676,318.82
									c-24.898,148.526-50.657,314.184-48.285,333.685L778.828,1345.487z"/>
							</g>
						</g>
					</g>
				</g>
			</g>
		</g>
		<g>
			<path style="fill:#97A6B7;" d="M2363.315,2408.477c-34.262-11.365-59.871-40.443-67.092-76.183l-49.868-246.811l-426.584,15.148
				l-52.5,257.123c-7.352,36.009,22.081,72.136,55.978,85.399l178.473,69.83c33.195,12.988,68.877,18.161,104.341,15.127
				l377.179-32.267c11.025-0.943,19.87-9.611,21.154-20.73c1.283-11.119,9.008-23.604-1.506-27.092L2363.315,2408.477z"/>
			
				<linearGradient id="SVGID_00000137838177912641869190000017406531910258733211_" gradientUnits="userSpaceOnUse" x1="2138.3196" y1="2173.2749" x2="2144.8037" y2="2416.4385">
				<stop  offset="0" style="stop-color:#444B8C"/>
				<stop  offset="0.9964" style="stop-color:#26264F"/>
			</linearGradient>
			<path style="fill:url(#SVGID_00000137838177912641869190000017406531910258733211_);" d="M2367.536,2393.466
				c-34.228-11.222-59.81-39.935-67.024-75.225l-49.818-243.708l-416.185,14.974l-52.448,253.89
				c-7.345,35.557,12.089,71.213,45.953,84.31l178.294,68.952c33.162,12.825,68.808,17.933,104.236,14.937l376.799-31.861
				c11.015-0.931,19.85-9.49,21.132-20.469c1.282-10.979-5.345-21.343-15.849-24.787L2367.536,2393.466z"/>
			
				<linearGradient id="SVGID_00000157293150751651098330000013884863447594355373_" gradientUnits="userSpaceOnUse" x1="2191.259" y1="1870.9767" x2="1476.7126" y2="-637.6411">
				<stop  offset="0" style="stop-color:#444B8C"/>
				<stop  offset="0.9964" style="stop-color:#26264F"/>
			</linearGradient>
			<path style="fill:url(#SVGID_00000157293150751651098330000013884863447594355373_);" d="M3048.752,1913.88V807.19
				c0-22.693-18.702-42.012-41.621-42.933l-1901.312-76.43c-28.933-1.163-52.676,18.829-52.676,44.432v1223.06L3048.752,1913.88z"/>
			<g>
				<path style="fill:#FFFFFF;" d="M1111.95,902.472v955.384c0,23.846,22.044,42.731,48.91,41.966l1804.465-51.318
					c21.536-0.613,39.113-18.513,39.113-39.783V956.629L1111.95,902.472z"/>
				
					<linearGradient id="SVGID_00000046321399171664065240000016107280025065742226_" gradientUnits="userSpaceOnUse" x1="1476.625" y1="248.7037" x2="2778.8528" y2="1646.8295">
					<stop  offset="0" style="stop-color:#FF9085"/>
					<stop  offset="1" style="stop-color:#FB6FBB"/>
				</linearGradient>
				<path style="fill:url(#SVGID_00000046321399171664065240000016107280025065742226_);" d="M3004.438,956.629v-97.788
					c0-20.833-17.216-38.521-38.31-39.307l-1806.266-67.386c-26.319-0.982-47.911,17.324-47.911,40.682v109.642L3004.438,956.629z"
					/>
				<g>
					<path style="fill:#9D3060;" d="M1243.986,828.088c0,8.21-7.482,14.629-16.724,14.336c-9.256-0.293-16.77-7.204-16.77-15.436
						c0-8.232,7.513-14.65,16.77-14.334C1236.504,812.969,1243.986,819.879,1243.986,828.088z"/>
					<path style="fill:#9D3060;" d="M1316.075,830.456c0,8.162-7.395,14.544-16.529,14.255c-9.148-0.289-16.574-7.158-16.574-15.342
						c0-8.184,7.426-14.565,16.574-14.254C1308.68,815.426,1316.075,822.294,1316.075,830.456z"/>
					<path style="fill:#9D3060;" d="M1387.324,832.796c0,8.114-7.309,14.461-16.337,14.175c-9.041-0.286-16.381-7.114-16.381-15.25
						c0-8.136,7.339-14.482,16.381-14.174C1380.016,817.855,1387.324,824.682,1387.324,832.796z"/>
				</g>
			</g>
			
				<linearGradient id="SVGID_00000041275363823925064180000008128886832196218526_" gradientUnits="userSpaceOnUse" x1="1053.1425" y1="2075.3665" x2="3048.7517" y2="2075.3665">
				<stop  offset="0" style="stop-color:#444B8C"/>
				<stop  offset="0.9964" style="stop-color:#26264F"/>
			</linearGradient>
			<path style="fill:url(#SVGID_00000041275363823925064180000008128886832196218526_);" d="M1053.142,1955.319v244.257
				c0,25.602,23.743,45.545,52.676,44.322l1901.312-80.381c22.919-0.969,41.621-20.326,41.621-43.02v-213.717L1053.142,1955.319z"/>
			<g>
				<g>
					
						<linearGradient id="SVGID_00000164493534880766875030000007971203213218663080_" gradientUnits="userSpaceOnUse" x1="1674.3269" y1="1016.6592" x2="2244.6619" y2="2252.8975">
						<stop  offset="0" style="stop-color:#FFC444"/>
						<stop  offset="0.9964" style="stop-color:#F36F56"/>
					</linearGradient>
					<polygon style="fill:url(#SVGID_00000164493534880766875030000007971203213218663080_);" points="2298.924,1437.917 
						1250.498,1443.598 1250.498,1005.826 2298.924,1024.899 					"/>
					
						<linearGradient id="SVGID_00000020359770788105219310000001137970640527552158_" gradientUnits="userSpaceOnUse" x1="2397.3323" y1="741.6507" x2="2923.094" y2="1881.2736">
						<stop  offset="0" style="stop-color:#FFC444"/>
						<stop  offset="0.9964" style="stop-color:#F36F56"/>
					</linearGradient>
					<polygon style="fill:url(#SVGID_00000020359770788105219310000001137970640527552158_);" points="2890.942,1434.71 
						2360.434,1437.584 2360.434,1026.018 2890.942,1035.67 					"/>
					
						<linearGradient id="SVGID_00000080195629406012599860000003553340184925136770_" gradientUnits="userSpaceOnUse" x1="1768.9851" y1="973.65" x2="2314.9363" y2="2157.0349">
						<stop  offset="0" style="stop-color:#FFC444"/>
						<stop  offset="0.9964" style="stop-color:#F36F56"/>
					</linearGradient>
					<polygon style="fill:url(#SVGID_00000080195629406012599860000003553340184925136770_);" points="2890.942,1730.904 
						1250.498,1768.543 1250.498,1500.765 2890.942,1486.818 					"/>
				</g>
			</g>
			<g style="opacity:0.48;">
				<path style="fill:#FFFFFF;" d="M2842.817,1770.999c-156.158-52.744-285.349,54.84-397.597-29.868
					c-126.547-95.499-24.263-278.964-141.32-387.047c-162.611-150.146-487.708,82.705-628.903-58.845
					c-97.075-97.319,17.437-253.125-64.765-417.022c-41.795-83.333-120.111-140.146-215.177-178.763l-289.237-11.627
					c-28.932-1.164-52.675,18.829-52.675,44.432v1223.06v244.257c0,25.602,23.743,45.545,52.675,44.322l1901.313-80.381
					c22.919-0.969,41.622-20.326,41.622-43.02v-157.923C2981.795,1844.202,2907.88,1792.974,2842.817,1770.999z"/>
			</g>
		</g>
		<g>
			<g>
				<g>
					
						<linearGradient id="SVGID_00000136406163911443959580000009601647715517016976_" gradientUnits="userSpaceOnUse" x1="1681.5682" y1="2914.968" x2="1015.0447" y2="2346.3928">
						<stop  offset="0" style="stop-color:#444B8C"/>
						<stop  offset="0.9964" style="stop-color:#26264F"/>
					</linearGradient>
					<path style="fill:url(#SVGID_00000136406163911443959580000009601647715517016976_);" d="M1593.649,1757.569v1280.289
						c0,19.146-20.949,24.763-44.715,27.068l-821.952,91.917l-12.563,1.22c-25.79,2.505-46.937-11.81-46.937-31.817V1788.395
						c0-20.007,21.147-37.044,46.937-37.859l17.049-0.539l824.857,2.703C1580.086,1751.943,1593.649,1738.423,1593.649,1757.569z"/>
					
						<linearGradient id="SVGID_00000003068419345656479910000009841781543064643459_" gradientUnits="userSpaceOnUse" x1="-1355.8611" y1="2519.9556" x2="1011.434" y2="2608.0168" gradientTransform="matrix(0 -1 1 0 -1389.0323 1734.3226)">
						<stop  offset="0" style="stop-color:#444B8C"/>
						<stop  offset="0.9964" style="stop-color:#26264F"/>
					</linearGradient>
					<path style="fill:url(#SVGID_00000003068419345656479910000009841781543064643459_);" d="M1619.001,1756.111v1279.942
						c0,19.141-19.393,36.685-43.145,38.992l-835.606,81.163c-25.776,2.504-46.911-11.808-46.911-31.809V1786.913
						c0-20.001,21.135-37.033,46.911-37.848l835.606-26.394C1599.608,1721.922,1619.001,1736.97,1619.001,1756.111z"/>
					<g>
						<path style="fill:#FFFFFF;" d="M758.387,1824.744l796.52-27.799c20.275-0.708,37.103,15.523,37.129,35.81l1.492,1175.191
							c0.028,22.064-16.717,40.536-38.678,42.667l-794.169,77.061c-20.282,1.968-37.846-13.97-37.851-34.347l-0.306-1231.437
							C722.52,1841.868,738.378,1825.442,758.387,1824.744z"/>
						
							<linearGradient id="SVGID_00000014598370680538498120000001750723250505423263_" gradientUnits="userSpaceOnUse" x1="877.071" y1="2031.0911" x2="1217.9111" y2="2769.8843">
							<stop  offset="0" style="stop-color:#FFC444"/>
							<stop  offset="0.9964" style="stop-color:#F36F56"/>
						</linearGradient>
						<polygon style="fill:url(#SVGID_00000014598370680538498120000001750723250505423263_);" points="785.412,2117.727 
							1238.688,2095.919 1239.009,2520.501 785.548,2551.709 						"/>
						
							<linearGradient id="SVGID_00000052794840693971552250000002330819558309340579_" gradientUnits="userSpaceOnUse" x1="1039.3051" y1="2449.6104" x2="1344.161" y2="3110.4058">
							<stop  offset="0" style="stop-color:#FFC444"/>
							<stop  offset="0.9964" style="stop-color:#F36F56"/>
						</linearGradient>
						<polygon style="fill:url(#SVGID_00000052794840693971552250000002330819558309340579_);" points="785.565,2606.34 
							1534.945,2552.812 1535.212,2807.917 785.647,2870.921 						"/>
						
							<linearGradient id="SVGID_00000140016827398259017110000018354789978191939245_" gradientUnits="userSpaceOnUse" x1="1028.1993" y1="1656.0861" x2="1346.2018" y2="2345.3772">
							<stop  offset="0" style="stop-color:#FF9085"/>
							<stop  offset="1" style="stop-color:#FB6FBB"/>
						</linearGradient>
						<path style="fill:url(#SVGID_00000140016827398259017110000018354789978191939245_);" d="M761.614,1823.949l792.954-27.003
							c20.587-0.701,37.664,15.786,37.686,36.385l0.193,174.85l-869.878,38.798l-0.046-182.574
							C722.517,1842.586,739.809,1824.692,761.614,1823.949z"/>
						
							<linearGradient id="SVGID_00000075878842736008710770000004831741771070515089_" gradientUnits="userSpaceOnUse" x1="1073.4833" y1="2767.9082" x2="1293.9255" y2="3245.7314">
							<stop  offset="0" style="stop-color:#FFC444"/>
							<stop  offset="0.9964" style="stop-color:#F36F56"/>
						</linearGradient>
						<polygon style="fill:url(#SVGID_00000075878842736008710770000004831741771070515089_);" points="785.666,2929.375 
							1535.271,2864.276 1535.391,2979.336 785.703,3048.712 						"/>
						
							<linearGradient id="SVGID_00000139295440367089496630000014256535943617465477_" gradientUnits="userSpaceOnUse" x1="1292.6083" y1="2050.3599" x2="1584.204" y2="2682.4126">
							<stop  offset="0" style="stop-color:#FFC444"/>
							<stop  offset="0.9964" style="stop-color:#F36F56"/>
						</linearGradient>
						<polygon style="fill:url(#SVGID_00000139295440367089496630000014256535943617465477_);" points="1280.452,2093.91 
							1534.453,2081.689 1534.89,2500.138 1280.79,2517.626 						"/>
					</g>
				</g>
				<path style="fill:#DE8BDF;" d="M1181.858,1774.582c0,6.776-6.942,12.505-15.512,12.797c-8.577,0.292-15.535-4.972-15.535-11.758
					c0-6.786,6.958-12.516,15.535-12.798C1174.916,1762.541,1181.858,1767.806,1181.858,1774.582z"/>
			</g>
			<g style="opacity:0.48;">
				<path style="fill:#FFFFFF;" d="M1348.881,2492.642c-76.024-152.557-253.693-116.144-320.436-282.519
					c-39.816-99.254,9.748-146.323-20.1-267.406c-20.199-81.944-64.303-147.243-114.271-198.509l-153.825,4.858
					c-25.774,0.815-46.911,17.847-46.911,37.848v1337.485c0,20.001,21.136,34.313,46.911,31.81l672.448-65.315
					c-49.793-69.195-71.105-134.271-78.789-190.732C1310.079,2725.029,1416.406,2628.146,1348.881,2492.642z"/>
			</g>
		</g>
		<g>
			<g>
				<g>
					
						<linearGradient id="SVGID_00000181062345189965532880000003064120304708605602_" gradientUnits="userSpaceOnUse" x1="2044.2797" y1="2960.0298" x2="1629.1625" y2="2605.9158">
						<stop  offset="0" style="stop-color:#444B8C"/>
						<stop  offset="0.9964" style="stop-color:#26264F"/>
					</linearGradient>
					<path style="fill:url(#SVGID_00000181062345189965532880000003064120304708605602_);" d="M1950.195,2197.668v883.561
						c0,13.213-11.291,16.871-24.098,18.213l-441.096,54.614l-6.714,0.704c-13.781,1.446-25.078-8.615-25.078-22.359v-919.11
						c0-13.745,11.297-25.323,25.078-25.73l9.112-0.269l442.681,6.792C1942.885,2193.704,1950.195,2184.455,1950.195,2197.668z"/>
					
						<linearGradient id="SVGID_00000096779973976534022660000006989417381825031603_" gradientUnits="userSpaceOnUse" x1="-1372.168" y1="3087.3574" x2="239.0028" y2="3147.2917" gradientTransform="matrix(0 -1 1 0 -1389.0323 1734.3226)">
						<stop  offset="0" style="stop-color:#444B8C"/>
						<stop  offset="0.9964" style="stop-color:#26264F"/>
					</linearGradient>
					<path style="fill:url(#SVGID_00000096779973976534022660000006989417381825031603_);" d="M1963.863,2196.815v883.431
						c0,13.211-10.455,25.117-23.258,26.46l-448.512,47.055c-13.777,1.446-25.071-8.614-25.071-22.356v-918.974
						c0-13.743,11.294-25.32,25.071-25.726l448.512-13.225C1953.408,2173.103,1963.863,2183.604,1963.863,2196.815z"/>
					<g>
						<path style="fill:#FFFFFF;" d="M1506.995,2238.781l392.308-14.341c27.405-1.002,50.167,20.945,50.166,48.368l-0.044,791.572
							c-0.001,12.961-9.786,23.83-22.677,25.187l-420.267,44.23c-12.758,1.343-23.87-8.66-23.87-21.489l-0.019-848.217
							C1482.592,2250.463,1493.376,2239.278,1506.995,2238.781z"/>
						<g>
							
								<linearGradient id="SVGID_00000169539844488953266490000008246404465450931091_" gradientUnits="userSpaceOnUse" x1="1561.3329" y1="2407.5767" x2="1777.8088" y2="2876.8025">
								<stop  offset="0" style="stop-color:#FFC444"/>
								<stop  offset="0.9964" style="stop-color:#F36F56"/>
							</linearGradient>
							<polygon style="fill:url(#SVGID_00000169539844488953266490000008246404465450931091_);" points="1531.402,2449.552 
								1762.58,2437.339 1762.573,2731.624 1531.406,2749.163 							"/>
							
								<linearGradient id="SVGID_00000056406783825155585340000013566793321132715942_" gradientUnits="userSpaceOnUse" x1="1646.9564" y1="2710.3826" x2="1825.0032" y2="3096.3105">
								<stop  offset="0" style="stop-color:#FFC444"/>
								<stop  offset="0.9964" style="stop-color:#F36F56"/>
							</linearGradient>
							<polygon style="fill:url(#SVGID_00000056406783825155585340000013566793321132715942_);" points="1531.407,2786.858 
								1903.732,2757.531 1903.724,2934.806 1531.409,2969.357 							"/>
							
								<linearGradient id="SVGID_00000149373963263705967770000003218816760505498516_" gradientUnits="userSpaceOnUse" x1="1670.0383" y1="2921.9138" x2="1790.4415" y2="3182.8958">
								<stop  offset="0" style="stop-color:#FFC444"/>
								<stop  offset="0.9964" style="stop-color:#F36F56"/>
							</linearGradient>
							<polygon style="fill:url(#SVGID_00000149373963263705967770000003218816760505498516_);" points="1531.41,3001.536 
								1903.722,2966.064 1903.718,3045.979 1531.411,3083.805 							"/>
							
								<linearGradient id="SVGID_00000139258173584679190750000010138792498892967555_" gradientUnits="userSpaceOnUse" x1="1771.358" y1="2418.9121" x2="1959.8894" y2="2827.5664">
								<stop  offset="0" style="stop-color:#FFC444"/>
								<stop  offset="0.9964" style="stop-color:#F36F56"/>
							</linearGradient>
							<polygon style="fill:url(#SVGID_00000139258173584679190750000010138792498892967555_);" points="1787.436,2436.026 
								1903.748,2429.881 1903.734,2720.914 1787.427,2729.738 							"/>
						</g>
						
							<linearGradient id="SVGID_00000163775148267668411740000002154271214168661946_" gradientUnits="userSpaceOnUse" x1="1638.907" y1="2150.595" x2="1827.4557" y2="2559.2866">
							<stop  offset="0" style="stop-color:#FF9085"/>
							<stop  offset="1" style="stop-color:#FB6FBB"/>
						</linearGradient>
						<path style="fill:url(#SVGID_00000163775148267668411740000002154271214168661946_);" d="M1505.112,2238.849l419.038-15.318
							c13.833-0.506,25.322,10.572,25.321,24.414l-0.007,122.482l-466.868,22.549l-0.003-130.769
							C1482.592,2249.631,1492.544,2239.309,1505.112,2238.849z"/>
					</g>
				</g>
				<path style="fill:#DE8BDF;" d="M1728.669,2206.91c0,4.667-3.727,8.571-8.328,8.719c-4.604,0.149-8.339-3.519-8.339-8.192
					c0-4.673,3.735-8.577,8.339-8.719C1724.942,2198.575,1728.669,2202.243,1728.669,2206.91z"/>
			</g>
			<g style="opacity:0.48;">
				<path style="fill:#FFFFFF;" d="M1818.054,2725.925c-40.929-102.895-151.249-78.589-185.617-182.583
					c-28.052-84.883,34.346-134.625,9.918-232.906c-13.706-55.146-47.431-96.118-81.908-125.747l-68.355,2.015
					c-13.777,0.406-25.071,11.984-25.071,25.726v918.974c0,13.743,11.294,23.801,25.071,22.356l343.855-36.074
					c-27.597-43.504-38.684-83.256-42.601-116.269C1779.092,2881.277,1855.551,2820.193,1818.054,2725.925z"/>
			</g>
		</g>
		<g>
			
				<linearGradient id="SVGID_00000038379965497986879520000012574034143797364148_" gradientUnits="userSpaceOnUse" x1="2748.697" y1="2705.7793" x2="2737.9004" y2="2919.0115">
				<stop  offset="0" style="stop-color:#FF9085"/>
				<stop  offset="1" style="stop-color:#FB6FBB"/>
			</linearGradient>
			<polygon style="fill:url(#SVGID_00000038379965497986879520000012574034143797364148_);" points="2737.319,2869.45 
				3241.007,2743.462 3266.2,2865.833 2805.087,3078.653 2439.976,2988.464 2219.726,2772.21 			"/>
			
				<linearGradient id="SVGID_00000025419082216659895050000013547919955774480807_" gradientUnits="userSpaceOnUse" x1="2748.697" y1="2705.7793" x2="2737.9004" y2="2919.0115">
				<stop  offset="0" style="stop-color:#444B8C"/>
				<stop  offset="0.9964" style="stop-color:#26264F"/>
			</linearGradient>
			<polygon style="fill:url(#SVGID_00000025419082216659895050000013547919955774480807_);" points="2737.319,2869.45 
				3241.007,2743.462 3266.2,2865.833 2805.087,3078.653 2439.976,2988.464 2219.726,2772.21 			"/>
			
				<linearGradient id="SVGID_00000164476625997654228290000012822208031584836502_" gradientUnits="userSpaceOnUse" x1="2721.4854" y1="2897.0664" x2="3352.5513" y2="2897.0664">
				<stop  offset="0" style="stop-color:#444B8C"/>
				<stop  offset="0.9964" style="stop-color:#26264F"/>
			</linearGradient>
			<path style="fill:url(#SVGID_00000164476625997654228290000012822208031584836502_);" d="M2721.485,3038.833
				c100.11-53.67,174.045-108.334,224.231-149.654c98.744-81.299,144.04-142.627,244.007-166.861
				c17.867-4.33,119.655-29.006,152.502,16.195c36.367,50.045-34.337,154.697-42.925,167.409
				c-127.717,189.041-452.951,180.219-554.966,174.089C2736.718,3066.284,2729.102,3052.558,2721.485,3038.833z"/>
			
				<linearGradient id="SVGID_00000062875667335027918590000009188988469435069629_" gradientUnits="userSpaceOnUse" x1="2721.4849" y1="2898.5352" x2="3352.55" y2="2898.5352">
				<stop  offset="0" style="stop-color:#FF9085"/>
				<stop  offset="1" style="stop-color:#FB6FBB"/>
			</linearGradient>
			<path style="opacity:0.3;fill:url(#SVGID_00000062875667335027918590000009188988469435069629_);" d="M3342.225,2738.513
				c-9.599-13.209-25.151-20.337-42.71-23.864c5.843,20.232,6.375,39.217-0.926,55.804c-19.957,45.334-79.054,31.371-120.562,84.573
				c-40.767,52.251-12.547,102.61-48.585,124.161c-41.305,24.701-92.511-33.007-136.757-5.398
				c-30.083,18.769-20.724,54.379-55.782,73.776c-24.227,13.405-47.976,7.066-75.575,3.599
				c-31.635-3.975-74.973-4.824-129.373,6.539c4.125,7.436,8.252,14.871,12.379,22.308
				c102.014,6.131,427.248,14.951,554.965-174.089C3307.888,2893.209,3378.593,2788.558,3342.225,2738.513z"/>
			
				<linearGradient id="SVGID_00000151510941474739898570000002159435498072189355_" gradientUnits="userSpaceOnUse" x1="2900.1882" y1="3142.6196" x2="2778.7271" y2="2991.4683">
				<stop  offset="0" style="stop-color:#AA80F9"/>
				<stop  offset="0.9964" style="stop-color:#6165D7"/>
			</linearGradient>
			<path style="fill:url(#SVGID_00000151510941474739898570000002159435498072189355_);" d="M2797.171,3067.082
				c0,0,18.343-13.154,44.962-4.19c26.617,8.963,68.885,16.197,68.82,29.212s-42.354,21.16-71.577,15.811
				C2811.422,3102.798,2789.436,3078.502,2797.171,3067.082z"/>
			
				<linearGradient id="SVGID_00000142145684887137630840000012162108135134143668_" gradientUnits="userSpaceOnUse" x1="2825.6177" y1="3106.7258" x2="2658.269" y2="2896.1902">
				<stop  offset="0" style="stop-color:#FFC444"/>
				<stop  offset="0.9964" style="stop-color:#F36F56"/>
			</linearGradient>
			<path style="fill:url(#SVGID_00000142145684887137630840000012162108135134143668_);" d="M2770.29,3044.865l48.988,15.759
				c0,0,7.958,13.255-2.782,21.662c-10.739,8.407-48.059-9.372-48.059-9.372L2770.29,3044.865z"/>
			
				<linearGradient id="SVGID_00000120558603352327632480000016499574803317011360_" gradientUnits="userSpaceOnUse" x1="2465.3369" y1="2890.0049" x2="2326.2878" y2="3179.2273">
				<stop  offset="0" style="stop-color:#444B8C"/>
				<stop  offset="0.9964" style="stop-color:#26264F"/>
			</linearGradient>
			<path style="fill:url(#SVGID_00000120558603352327632480000016499574803317011360_);" d="M2089.374,2819.038
				c-14.465,84.218,167.292,175.321,208.902,196.177c84.801,42.505,244.362,102.508,481.178,79.585
				c3.15-18.894,6.299-37.788,9.447-56.682c-31.284-10.718-77.646-28.137-131.441-54.599
				c-91.81-45.163-126.671-77.416-254.072-154.44c-140.975-85.231-182.04-96.165-224.043-85.617
				C2143.429,2752.481,2096.095,2779.904,2089.374,2819.038z"/>
			
				<linearGradient id="SVGID_00000183943827801911147290000001591248833272923020_" gradientUnits="userSpaceOnUse" x1="2777.0449" y1="2816.804" x2="2611.0474" y2="2285.0732">
				<stop  offset="0.0036" style="stop-color:#E38DDD"/>
				<stop  offset="1" style="stop-color:#9571F6"/>
			</linearGradient>
			<path style="fill:url(#SVGID_00000183943827801911147290000001591248833272923020_);" d="M2278.763,2658.889
				c-30.724-111.118,19.992-261.052,126.86-333.344c87.229-59.006,189.436-55.177,221.33-53.982
				c34.912,1.308,31.305,5.841,141.202,26.172c152.57,28.229,166.654,21.385,211.036,42.656
				c83.453,39.996,123.947,112.663,131.524,126.802c38.781,72.362,70.344,206.885-3.315,272.67
				c-41.872,37.399-100.574,37.245-133.607,33.74c-2.249-14.845-4.498-29.691-6.748-44.536c6.723-5.207,46.384-36.998,51.283-93.12
				c5.633-64.498-39.451-106.129-44.536-110.665c-15.991,30.868-35.672,77.742-44.535,137.656
				c-11.444,77.373,0.406,140.996,10.441,178.409c-40.348,22.147-107.071,52.199-193.983,61.814
				c-65.48,7.244-146.554,16.214-198.387-24.292c-73.14-57.158-79.323-206.011-7.087-360.94
				c-26.44,17.711-64.745,49.752-80.635,100.473c-2.402,7.669-6.471,22.719-8.098,80.974
				C2448.587,2804.042,2310.603,2774.037,2278.763,2658.889z"/>
			
				<linearGradient id="SVGID_00000145764118415471130530000003993501606428940201_" gradientUnits="userSpaceOnUse" x1="2670.5852" y1="2377.7766" x2="2693.5278" y2="2748.9087">
				<stop  offset="0" style="stop-color:#FF9085"/>
				<stop  offset="1" style="stop-color:#FB6FBB"/>
			</linearGradient>
			<path style="opacity:0.3;fill:url(#SVGID_00000145764118415471130530000003993501606428940201_);" d="M2774.056,2735.814
				c-36.805,4.512-46.821,42.724-80.975,40.486c-74.311-4.866-133.954-133.514-102.568-203.785
				c20.466-45.817,73.819-53.807,70.178-83.674c-2.912-23.898-39.94-42.288-70.178-43.187
				c-47.077-1.397-78.163,39.599-89.072,53.983c-25.493,33.619-30.99,70.533-31.565,94.274
				c18.707-36.699,48.502-61.341,70.364-75.986c-72.235,154.93-66.052,303.783,7.087,360.941
				c51.833,40.505,132.907,31.536,198.387,24.292c70.54-7.804,127.777-29.069,168.411-48.645
				C2874.643,2790.244,2824.354,2729.646,2774.056,2735.814z"/>
			
				<linearGradient id="SVGID_00000071557734395235744950000005356053221368784317_" gradientUnits="userSpaceOnUse" x1="2471.6545" y1="2861.8379" x2="2903.4199" y2="2861.8379">
				<stop  offset="0" style="stop-color:#AA80F9"/>
				<stop  offset="0.9964" style="stop-color:#6165D7"/>
			</linearGradient>
			<polygon style="fill:url(#SVGID_00000071557734395235744950000005356053221368784317_);" points="2902.318,2840.631 
				2471.655,2834.203 2586.176,2889.473 2903.42,2868.709 			"/>
			<path style="fill:#D8DEE8;" d="M2456.458,2845.647v0.002c0,8.06,5.042,15.259,12.617,18.013l137.611,53.947l0.628-37.401
				l-135.659-46.006C2464.044,2832.014,2456.458,2837.728,2456.458,2845.647z"/>
			
				<linearGradient id="SVGID_00000066499344590077459430000017133536383232016005_" gradientUnits="userSpaceOnUse" x1="2494.8406" y1="2904.9033" x2="2328.8428" y2="2373.1711">
				<stop  offset="0.0036" style="stop-color:#E38DDD"/>
				<stop  offset="1" style="stop-color:#9571F6"/>
			</linearGradient>
			<path style="fill:url(#SVGID_00000066499344590077459430000017133536383232016005_);" d="M2299.586,2584.847
				c33.233-31.455,114.76-11.644,145.174,33.554c22.389,33.271,3.86,60.649,20.243,102.567
				c20.072,51.352,95.782,97.781,142.31,113.234c-7.282,15.68-5.14,19.741-12.423,35.421c-29.598-3.697-243.547-36.47-295.884-163.5
				C2296.281,2699.504,2263.949,2618.578,2299.586,2584.847z"/>
			
				<linearGradient id="SVGID_00000096757556626317965290000008017227280558360214_" gradientUnits="userSpaceOnUse" x1="2763.7058" y1="2258.7898" x2="2705.6743" y2="2397.7957">
				<stop  offset="0" style="stop-color:#FFC444"/>
				<stop  offset="0.9964" style="stop-color:#F36F56"/>
			</linearGradient>
			<path style="fill:url(#SVGID_00000096757556626317965290000008017227280558360214_);" d="M2785.223,2253.213
				c0,0-34.828,37.662-63.738,41.582c-28.909,3.92-70.689-3.76-77.888,0c-7.198,3.758,36.307,19.237,70.813,28.7
				c34.506,9.465,97.156,28.373,114.477,24.233c17.321-4.142-18.928-26.35-33.283-32.237c-14.355-5.888,6.191-36.133,6.191-36.133
				L2785.223,2253.213z"/>
			<g>
				
					<linearGradient id="SVGID_00000154416433484330938230000007661310647021300393_" gradientUnits="userSpaceOnUse" x1="-2432.2097" y1="382.7343" x2="-2495.1931" y2="222.7679" gradientTransform="matrix(-0.7945 -0.6073 -0.6073 0.7945 992.7459 529.0761)">
					<stop  offset="0" style="stop-color:#311944"/>
					<stop  offset="1" style="stop-color:#6B3976"/>
				</linearGradient>
				<path style="fill:url(#SVGID_00000154416433484330938230000007661310647021300393_);" d="M2836.9,2274.78
					c12.594-3.472,24.098-17.61,23.955-32.26c-0.124-12.604-8.974-21.206-14.271-26.357c-15.349-14.927-42.029-24.27-61.369-14.458
					c-11.461,5.816-16.693,32.211-17.852,36.787c-1.31,5.177,0.71,8.856,1.269,13.962c0.772,7.081,1.902,18.264,3.547,36.778
					c3.238-2.596,7.461-5.641,12.637-8.484c1.991-1.092,9.852-5.304,18.349-7.272
					C2820.197,2269.533,2824.963,2278.073,2836.9,2274.78z"/>
				
					<linearGradient id="SVGID_00000034771059034662251020000009513339529269659047_" gradientUnits="userSpaceOnUse" x1="3974.7849" y1="461.3059" x2="3971.8882" y2="694.6819" gradientTransform="matrix(0.8301 0.5575 -0.5575 0.8301 -235.6197 -346.7824)">
					<stop  offset="0" style="stop-color:#FFC444"/>
					<stop  offset="0.9964" style="stop-color:#F36F56"/>
				</linearGradient>
				<path style="fill:url(#SVGID_00000034771059034662251020000009513339529269659047_);" d="M2764.95,2269.16
					c0,0-2.921,26.704,20.238,42.259c20.736,13.925,57.738-28.126,52.366-47.24c-1.793-6.376-9.217-14.168-17.549-17.527
					c-4.92-1.984-7.586-1.358-15.563-4.755c-7.358-3.133-8.567-5.148-11.618-5.016c-3.817,0.165-9.193,3.636-15.298,19.559
					c-0.829-6.715-4.222-11.663-8.592-12.619c-0.697-0.151-2.763-0.273-4.604,0.536
					C2757.673,2247.289,2757.316,2257.305,2764.95,2269.16z"/>
				
					<linearGradient id="SVGID_00000021828791792711052940000017267114557906592428_" gradientUnits="userSpaceOnUse" x1="-2451.4478" y1="390.3995" x2="-2514.4995" y2="230.2595" gradientTransform="matrix(-0.7945 -0.6073 -0.6073 0.7945 992.7459 529.0761)">
					<stop  offset="0" style="stop-color:#311944"/>
					<stop  offset="1" style="stop-color:#6B3976"/>
				</linearGradient>
				<path style="fill:url(#SVGID_00000021828791792711052940000017267114557906592428_);" d="M2793.971,2233.542
					c0.405,1.444-5.243,2.756-9.333,7.617c-7.941,9.436-7.087,28.762,2.226,37.52c5.507,5.178,9.911,2.847,20.563,9.394
					c6.596,4.054,11.075,8.74,13.732,11.898c-5.15,13.09-16.286,21.52-27.254,20.959c-11.813-0.604-19.161-11.417-22.234-15.938
					c-2.056-3.027-8.656-12.701-7.033-24.339c1.689-12.128,10.315-13.576,9.197-23.521c-0.564-5.016-3.256-9.074-2.521-17.379
					c0.199-2.255,0.586-4.09,0.885-5.292C2781.452,2232.989,2793.384,2231.453,2793.971,2233.542z"/>
				
					<linearGradient id="SVGID_00000178178473927883817340000016105742836696297646_" gradientUnits="userSpaceOnUse" x1="-2513.1543" y1="293.9116" x2="-2509.876" y2="323.1393" gradientTransform="matrix(-0.7945 -0.6073 -0.6073 0.7945 992.7459 529.0761)">
					<stop  offset="0" style="stop-color:#FFC444"/>
					<stop  offset="1" style="stop-color:#F36F56"/>
				</linearGradient>
				<path style="fill:url(#SVGID_00000178178473927883817340000016105742836696297646_);" d="M2810.933,2298.42
					c0,0-5.981-1.059-13.031-7.15c-0.344-0.296-0.819-0.494-1.008-0.344c-0.708,0.568,1.606,7.345,6.905,9.475
					c3.764,1.513,8.425,0.439,8.583-0.626C2812.448,2299.325,2811.715,2298.827,2810.933,2298.42z"/>
			</g>
			<g>
				<path style="fill:#D8DEE8;" d="M2618.736,2617.788l-30.356,276.4c-1.047,9.537,12.305,23.745,21.888,23.291l445.33-27.34
					c7.316-0.346,13.409-5.732,14.649-12.952l55.893-266.951c1.668-9.716-15.795-19.75-25.649-19.473l-466.676,13.122
					C2626.024,2604.104,2619.587,2610.039,2618.736,2617.788z"/>
				<path style="fill:#FFFFFF;" d="M2628.914,2625.848l-30.356,276.4c-1.048,9.537,6.673,17.753,16.257,17.3l450.961-21.348
					c7.317-0.346,13.409-5.733,14.648-12.952l46.073-268.173c1.669-9.716-5.973-18.528-15.827-18.251l-466.677,13.121
					C2636.201,2612.164,2629.765,2618.099,2628.914,2625.848z"/>
			</g>
			
				<linearGradient id="SVGID_00000129904005987459001100000007835602472789422474_" gradientUnits="userSpaceOnUse" x1="2598.4624" y1="2765.2803" x2="3086.7834" y2="2765.2803">
				<stop  offset="0.494" style="stop-color:#EBEFF2"/>
				<stop  offset="1" style="stop-color:#FFFFFF"/>
			</linearGradient>
			<path style="fill:url(#SVGID_00000129904005987459001100000007835602472789422474_);" d="M2893.718,2833.433
				c-39.376-16.69-25.479-48.514-71.977-88.172c-61.341-52.316-123.865-29.628-145.754-70.178
				c-6.817-12.63-10.071-32.282,1.801-64.088l-33.793,0.95c-7.793,0.219-14.229,6.154-15.081,13.903l-30.356,276.4
				c-1.046,9.536,6.676,17.753,16.258,17.3l450.961-21.348c7.317-0.346,13.409-5.732,14.648-12.952l6.358-37.006
				c-13.683-7.614-30.034-14.538-49.111-18.408C2971.513,2816.415,2939.051,2852.646,2893.718,2833.433z"/>
		</g>
	</g>
</g>
</svg>
