<svg id="Layer_1" viewBox="0 0 512 512" xmlns="http://www.w3.org/2000/svg" data-name="Layer 1"><path d="m323.398 81.457c1.682-4.085 6.357-6.032 10.444-4.351 39.057 16.083 72.332 43.091 96.226 78.102 24.481 35.871 37.421 77.87 37.421 121.457 0 4.986-.186 9.988-.535 14.981l5.03-4.058c3.438-2.774 8.475-2.235 11.25 1.204 2.774 3.438 2.235 8.475-1.204 11.25l-20.239 16.328c-1.479 1.193-3.255 1.774-5.018 1.774-2.336 0-4.65-1.018-6.231-2.978l-16.328-20.239c-2.774-3.438-2.235-8.475 1.204-11.25s8.475-2.235 11.25 1.204l4.346 5.387c.311-4.534.476-9.075.476-13.602 0-81.286-48.571-153.81-123.74-184.764-4.085-1.683-6.033-6.358-4.351-10.444zm11.813 376.704c-26.256 12.114-54.341 18.256-83.474 18.256-35.27 0-69.285-9.103-99.43-26.47l6.464-1.391c4.319-.929 7.068-5.184 6.138-9.503-.929-4.32-5.187-7.069-9.503-6.138l-25.427 5.471c-4.319.929-7.068 5.184-6.138 9.503l5.471 25.427c.807 3.752 4.124 6.319 7.813 6.319.558 0 1.124-.059 1.69-.181 4.319-.929 7.068-5.184 6.138-9.503l-1.42-6.6c32.765 19.066 69.796 29.068 108.204 29.068 31.464 0 61.804-6.638 90.177-19.728 4.012-1.851 5.764-6.604 3.913-10.616s-6.602-5.762-10.616-3.913zm-290.356-154.306c.239 0 .481-.011.724-.032 4.4-.395 7.648-4.282 7.253-8.683-.562-6.263-.847-12.479-.847-18.476 0-74.76 41.086-142.104 106.161-176.518l-2.212 5.798c-1.575 4.128.495 8.751 4.623 10.327.939.358 1.902.527 2.851.527 3.222 0 6.259-1.96 7.476-5.15l9.269-24.293c1.574-4.125-.492-8.746-4.615-10.324l-24.293-9.297c-4.126-1.579-8.751.486-10.331 4.612-1.579 4.126.486 8.751 4.612 10.331l6.649 2.545c-31.533 16.397-58.52 40.316-78.769 69.986-24.48 35.871-37.42 77.87-37.42 121.457 0 6.472.306 13.169.91 19.905.373 4.158 3.863 7.286 7.959 7.286zm151.827-182.161v-94.111c0-4.418 3.582-8 8-8h94.11c4.418 0 8 3.582 8 8v94.11c0 4.418-3.582 8-8 8h-94.11c-4.418 0-8-3.582-8-8zm16-8h78.11v-78.111h-78.11v78.11zm-74.338 280.468c-4.424 16.512-14.962 30.278-29.671 38.762-9.772 5.646-20.646 8.531-31.686 8.531-5.569 0-11.179-.733-16.714-2.217-16.5-4.422-30.262-14.954-38.749-29.654-.083-.145-.162-.291-.236-.439-8.303-14.603-10.463-31.622-6.08-47.98 4.423-16.508 14.954-30.273 29.654-38.76 14.707-8.499 31.903-10.741 48.418-6.312 16.511 4.427 30.278 14.968 38.764 29.681 8.485 14.696 10.723 31.882 6.3 48.389zm-20.159-40.392c-6.352-11.013-16.667-18.904-29.05-22.224s-25.265-1.646-36.271 4.713c-11 6.352-18.885 16.667-22.202 29.046-3.318 12.381-1.644 25.253 4.714 36.245.076.13.147.263.215.396 6.367 10.811 16.586 18.558 28.823 21.837 12.378 3.318 25.254 1.643 36.259-4.716 11.01-6.35 18.898-16.665 22.215-29.046 3.317-12.378 1.646-25.253-4.704-36.251zm379.754 83.65c-1.429 2.476-4.07 4-6.929 4h-128.665c-2.858 0-5.5-1.525-6.929-4-1.429-2.476-1.428-5.526.001-8.001l64.347-111.402c1.429-2.474 4.07-3.999 6.927-3.999h.001c2.858 0 5.499 1.526 6.927 4.001l32.146 55.701 32.171 55.698c1.43 2.475 1.43 5.525.001 8.001zm-20.788-12-50.462-87.402-50.484 87.402zm-149.382-148.756c0 41.924-34.108 76.032-76.032 76.032s-76.032-34.108-76.032-76.032 34.108-76.06 76.032-76.06 76.032 34.121 76.032 76.06zm-76.032 60.032c5.998 0 11.788-.895 17.257-2.54v-15.568c0-4.418 3.582-8 8-8s8 3.582 8 8v8.023c1.9-1.269 3.719-2.648 5.458-4.119v-8.496c0-9.469-8.568-17.172-19.099-17.172h-39.26c-10.531 0-19.099 7.703-19.099 17.172v8.472c1.748 1.481 3.576 2.867 5.486 4.143v-8.023c0-4.418 3.582-8 8-8s8 3.582 8 8v15.568c5.469 1.645 11.259 2.54 17.257 2.54zm0-59.386c10.124 0 14.677-12.959 14.677-22.161 0-8.093-6.584-14.677-14.677-14.677s-14.706 6.584-14.706 14.677c0 7.23 3.595 22.161 14.706 22.161zm60.032-.646c0-33.117-26.93-60.06-60.032-60.06s-60.032 26.943-60.032 60.06c0 9.99 2.466 19.409 6.801 27.704 4.067-12.646 15.924-22.114 30.269-23.391-5.097-7.205-7.745-16.658-7.745-25.828 0-16.916 13.774-30.677 30.706-30.677s30.677 13.762 30.677 30.677c0 9.171-2.646 18.624-7.738 25.829 14.355 1.281 26.217 10.764 30.273 23.425 4.346-8.303 6.819-17.735 6.819-27.739zm44.215 33.078-7.133 17.238 8.275 22.494c1.077 2.927.354 6.213-1.851 8.419l-22.309 22.309c-2.205 2.206-5.492 2.929-8.419 1.851l-22.494-8.275-17.238 7.133-10.055 21.764c-1.308 2.832-4.143 4.645-7.262 4.645h-31.55c-3.122 0-5.959-1.816-7.266-4.652l-10.026-21.757-17.261-7.134-22.496 8.276c-2.927 1.078-6.214.354-8.419-1.851l-22.309-22.309c-2.208-2.208-2.929-5.498-1.849-8.426l8.297-22.486-7.154-17.237-21.768-10.057c-2.832-1.308-4.645-4.143-4.645-7.262v-31.55c0-3.122 1.816-5.959 4.652-7.266l21.761-10.028 7.154-17.26-8.298-22.488c-1.081-2.929-.359-6.219 1.849-8.426l22.309-22.309c2.208-2.208 5.498-2.929 8.426-1.849l22.488 8.298 17.26-7.154 10.028-21.762c1.307-2.835 4.144-4.652 7.266-4.652h31.55c3.119 0 5.954 1.813 7.262 4.645l10.057 21.769 17.236 7.154 22.486-8.298c2.928-1.082 6.219-.359 8.426 1.849l22.309 22.309c2.206 2.206 2.928 5.492 1.851 8.419l-8.276 22.496 7.134 17.262 21.757 10.026c2.835 1.307 4.652 4.144 4.652 7.266v31.55c0 3.12-1.813 5.954-4.645 7.263l-21.764 10.054zm10.409-22.434v-21.311l-19.953-9.195c-1.831-.844-3.275-2.347-4.045-4.21l-9.524-23.046c-.767-1.856-.808-3.933-.114-5.818l7.588-20.625-15.069-15.069-20.623 7.61c-1.891.698-3.975.656-5.836-.117l-23.017-9.553c-1.855-.77-3.354-2.21-4.196-4.034l-9.222-19.96h-21.311l-9.195 19.953c-.842 1.828-2.343 3.271-4.202 4.042l-23.046 9.553c-1.862.771-3.944.812-5.833.115l-20.622-7.61-15.065 15.066 7.609 20.622c.697 1.89.656 3.972-.115 5.833l-9.553 23.046c-.771 1.859-2.214 3.36-4.042 4.202l-19.953 9.195v21.311l19.959 9.221c1.824.843 3.264 2.341 4.034 4.196l9.552 23.018c.772 1.861.814 3.945.117 5.836l-7.609 20.622 15.069 15.069 20.625-7.588c1.885-.694 3.961-.653 5.818.114l23.046 9.524c1.863.77 3.366 2.215 4.21 4.045l9.195 19.953h21.311l9.222-19.96c.844-1.827 2.344-3.268 4.203-4.037l23.018-9.524c1.856-.768 3.934-.81 5.821-.116l20.626 7.588 15.073-15.073-7.588-20.625c-.694-1.886-.653-3.964.116-5.821l9.524-23.018c.769-1.859 2.21-3.36 4.037-4.204l19.96-9.221z"/></svg>