<?xml version="1.0" encoding="utf-8"?>
<!-- Generator: Adobe Illustrator 27.5.0, SVG Export Plug-In . SVG Version: 6.00 Build 0)  -->
<svg version="1.1" xmlns="http://www.w3.org/2000/svg" xmlns:xlink="http://www.w3.org/1999/xlink" x="0px" y="0px"
	 viewBox="0 0 500 500" style="enable-background:new 0 0 500 500;" xml:space="preserve">
<g id="BACKGROUND_1_">
	<g>
		<rect style="fill:#F9ECBF;" width="500" height="500"/>
		<rect x="32.385" y="361.274" style="fill:#FDE097;" width="435.231" height="68.35"/>
		<rect x="32.385" y="422.639" style="fill:#FDDA83;" width="435.231" height="6.985"/>
		
			<line style="fill:none;stroke:#FCC130;stroke-width:0.4252;stroke-miterlimit:10;" x1="32.385" y1="422.639" x2="467.615" y2="422.639"/>
		<g>
			
				<line style="fill:none;stroke:#F9ECBF;stroke-width:0.4252;stroke-miterlimit:10;" x1="43.192" y1="361.921" x2="43.192" y2="422.639"/>
			
				<line style="fill:none;stroke:#F9ECBF;stroke-width:0.4252;stroke-miterlimit:10;" x1="53.532" y1="361.921" x2="53.532" y2="422.639"/>
			
				<line style="fill:none;stroke:#F9ECBF;stroke-width:0.4252;stroke-miterlimit:10;" x1="63.872" y1="361.921" x2="63.872" y2="422.639"/>
			
				<line style="fill:none;stroke:#F9ECBF;stroke-width:0.4252;stroke-miterlimit:10;" x1="74.213" y1="361.921" x2="74.213" y2="422.639"/>
			
				<line style="fill:none;stroke:#F9ECBF;stroke-width:0.4252;stroke-miterlimit:10;" x1="84.553" y1="361.921" x2="84.553" y2="422.639"/>
			
				<line style="fill:none;stroke:#F9ECBF;stroke-width:0.4252;stroke-miterlimit:10;" x1="94.894" y1="361.921" x2="94.894" y2="422.639"/>
			
				<line style="fill:none;stroke:#F9ECBF;stroke-width:0.4252;stroke-miterlimit:10;" x1="105.234" y1="361.921" x2="105.234" y2="422.639"/>
			
				<line style="fill:none;stroke:#F9ECBF;stroke-width:0.4252;stroke-miterlimit:10;" x1="115.574" y1="361.921" x2="115.574" y2="422.639"/>
			
				<line style="fill:none;stroke:#F9ECBF;stroke-width:0.4252;stroke-miterlimit:10;" x1="125.915" y1="361.921" x2="125.915" y2="422.639"/>
			
				<line style="fill:none;stroke:#F9ECBF;stroke-width:0.4252;stroke-miterlimit:10;" x1="136.255" y1="361.921" x2="136.255" y2="422.639"/>
			
				<line style="fill:none;stroke:#F9ECBF;stroke-width:0.4252;stroke-miterlimit:10;" x1="146.596" y1="361.921" x2="146.596" y2="422.639"/>
			
				<line style="fill:none;stroke:#F9ECBF;stroke-width:0.4252;stroke-miterlimit:10;" x1="156.936" y1="361.921" x2="156.936" y2="422.639"/>
			
				<line style="fill:none;stroke:#F9ECBF;stroke-width:0.4252;stroke-miterlimit:10;" x1="167.277" y1="361.921" x2="167.277" y2="422.639"/>
			
				<line style="fill:none;stroke:#F9ECBF;stroke-width:0.4252;stroke-miterlimit:10;" x1="177.617" y1="361.921" x2="177.617" y2="422.639"/>
			
				<line style="fill:none;stroke:#F9ECBF;stroke-width:0.4252;stroke-miterlimit:10;" x1="187.957" y1="361.921" x2="187.957" y2="422.639"/>
			
				<line style="fill:none;stroke:#F9ECBF;stroke-width:0.4252;stroke-miterlimit:10;" x1="198.298" y1="361.921" x2="198.298" y2="422.639"/>
			
				<line style="fill:none;stroke:#F9ECBF;stroke-width:0.4252;stroke-miterlimit:10;" x1="208.638" y1="361.921" x2="208.638" y2="422.639"/>
			
				<line style="fill:none;stroke:#F9ECBF;stroke-width:0.4252;stroke-miterlimit:10;" x1="218.979" y1="361.921" x2="218.979" y2="422.639"/>
			
				<line style="fill:none;stroke:#F9ECBF;stroke-width:0.4252;stroke-miterlimit:10;" x1="229.319" y1="361.921" x2="229.319" y2="422.639"/>
			
				<line style="fill:none;stroke:#F9ECBF;stroke-width:0.4252;stroke-miterlimit:10;" x1="239.66" y1="361.921" x2="239.66" y2="422.639"/>
			
				<line style="fill:none;stroke:#F9ECBF;stroke-width:0.4252;stroke-miterlimit:10;" x1="250" y1="361.921" x2="250" y2="422.639"/>
			
				<line style="fill:none;stroke:#F9ECBF;stroke-width:0.4252;stroke-miterlimit:10;" x1="260.34" y1="361.921" x2="260.34" y2="422.639"/>
			
				<line style="fill:none;stroke:#F9ECBF;stroke-width:0.4252;stroke-miterlimit:10;" x1="270.681" y1="361.921" x2="270.681" y2="422.639"/>
			
				<line style="fill:none;stroke:#F9ECBF;stroke-width:0.4252;stroke-miterlimit:10;" x1="281.021" y1="361.921" x2="281.021" y2="422.639"/>
			
				<line style="fill:none;stroke:#F9ECBF;stroke-width:0.4252;stroke-miterlimit:10;" x1="291.362" y1="361.921" x2="291.362" y2="422.639"/>
			
				<line style="fill:none;stroke:#F9ECBF;stroke-width:0.4252;stroke-miterlimit:10;" x1="301.702" y1="361.921" x2="301.702" y2="422.639"/>
			
				<line style="fill:none;stroke:#F9ECBF;stroke-width:0.4252;stroke-miterlimit:10;" x1="312.043" y1="361.921" x2="312.043" y2="422.639"/>
			
				<line style="fill:none;stroke:#F9ECBF;stroke-width:0.4252;stroke-miterlimit:10;" x1="322.383" y1="361.921" x2="322.383" y2="422.639"/>
			
				<line style="fill:none;stroke:#F9ECBF;stroke-width:0.4252;stroke-miterlimit:10;" x1="332.723" y1="361.921" x2="332.723" y2="422.639"/>
			
				<line style="fill:none;stroke:#F9ECBF;stroke-width:0.4252;stroke-miterlimit:10;" x1="343.064" y1="361.921" x2="343.064" y2="422.639"/>
			
				<line style="fill:none;stroke:#F9ECBF;stroke-width:0.4252;stroke-miterlimit:10;" x1="353.404" y1="361.921" x2="353.404" y2="422.639"/>
			
				<line style="fill:none;stroke:#F9ECBF;stroke-width:0.4252;stroke-miterlimit:10;" x1="363.745" y1="361.921" x2="363.745" y2="422.639"/>
			
				<line style="fill:none;stroke:#F9ECBF;stroke-width:0.4252;stroke-miterlimit:10;" x1="374.085" y1="361.921" x2="374.085" y2="422.639"/>
			
				<line style="fill:none;stroke:#F9ECBF;stroke-width:0.4252;stroke-miterlimit:10;" x1="384.425" y1="361.921" x2="384.425" y2="422.639"/>
			
				<line style="fill:none;stroke:#F9ECBF;stroke-width:0.4252;stroke-miterlimit:10;" x1="394.766" y1="361.921" x2="394.766" y2="422.639"/>
			
				<line style="fill:none;stroke:#F9ECBF;stroke-width:0.4252;stroke-miterlimit:10;" x1="405.106" y1="361.921" x2="405.106" y2="422.639"/>
			
				<line style="fill:none;stroke:#F9ECBF;stroke-width:0.4252;stroke-miterlimit:10;" x1="415.447" y1="361.921" x2="415.447" y2="422.639"/>
			
				<line style="fill:none;stroke:#F9ECBF;stroke-width:0.4252;stroke-miterlimit:10;" x1="425.787" y1="361.921" x2="425.787" y2="422.639"/>
			
				<line style="fill:none;stroke:#F9ECBF;stroke-width:0.4252;stroke-miterlimit:10;" x1="436.128" y1="361.921" x2="436.128" y2="422.639"/>
			
				<line style="fill:none;stroke:#F9ECBF;stroke-width:0.4252;stroke-miterlimit:10;" x1="446.468" y1="361.921" x2="446.468" y2="422.639"/>
			
				<line style="fill:none;stroke:#F9ECBF;stroke-width:0.4252;stroke-miterlimit:10;" x1="456.809" y1="361.921" x2="456.809" y2="422.639"/>
		</g>
		<path style="fill:#FDDA83;" d="M186.945,452.955c0.037,1.107-5.416,2.354-9.713,2.781c-4.266,0.424-4.322-0.266-9.957,0
			c-5.466,0.258-6.296,0.948-10.723,0.766c-3.219-0.132-3.545-0.528-6.894-0.766c-4.917-0.349-7.097,0.3-10.979,0.511
			c-8.294,0.449-17.233-1.491-17.324-3.292c-0.065-1.295,4.447-2.484,4.813-2.581c3.785-0.998,6.979-0.382,7.66-0.255
			c0.811,0.151,6.924,0.186,19.149,0.255c11.365,0.065,17.225-0.774,27.83,0.766C184.747,451.712,186.922,452.262,186.945,452.955z"
			/>
		<path style="fill:#FDDA83;" d="M375.14,453.464c0.037,1.107-5.416,2.354-9.713,2.781c-4.266,0.424-4.322-0.266-9.957,0
			c-5.466,0.258-6.296,0.948-10.723,0.766c-3.219-0.132-3.545-0.528-6.894-0.766c-4.916-0.349-7.097,0.3-10.979,0.511
			c-8.294,0.449-17.233-1.491-17.324-3.292c-0.065-1.295,4.447-2.484,4.813-2.581c3.785-0.998,6.979-0.382,7.66-0.255
			c0.811,0.151,6.924,0.186,19.149,0.255c11.365,0.065,17.224-0.774,27.83,0.766C372.942,452.221,375.117,452.771,375.14,453.464z"
			/>
		<path style="fill:#FDDA83;" d="M391.197,449.596c0.037,1.107-5.416,2.354-9.713,2.781c-4.266,0.424-4.322-0.266-9.957,0
			c-5.466,0.257-6.296,0.948-10.723,0.766c-3.219-0.132-3.545-0.528-6.894-0.766c-4.917-0.349-7.097,0.3-10.979,0.511
			c-8.294,0.449-17.233-1.491-17.324-3.292c-0.065-1.295,4.447-2.484,4.813-2.581c3.785-0.998,6.978-0.382,7.659-0.255
			c0.811,0.151,6.924,0.185,19.149,0.255c11.365,0.065,17.225-0.774,27.83,0.766C388.999,448.354,391.173,448.903,391.197,449.596z"
			/>
		<path style="fill:#FDDA83;" d="M241.462,449.94c0.022,1.107-3.259,2.354-5.843,2.781c-2.566,0.424-2.6-0.266-5.991,0
			c-3.289,0.257-3.788,0.948-6.451,0.766c-1.936-0.132-2.133-0.528-4.147-0.766c-2.958-0.349-4.27,0.3-6.605,0.511
			c-4.99,0.449-10.368-1.491-10.423-3.292c-0.039-1.295,2.675-2.484,2.896-2.581c2.277-0.998,4.198-0.382,4.608-0.255
			c0.488,0.151,4.166,0.185,11.521,0.255c6.838,0.065,10.363-0.774,16.743,0.766C240.14,448.698,241.448,449.247,241.462,449.94z"/>
		<path style="fill:#FDDA83;" d="M280.26,450.713c-0.023-0.867,3.259-1.845,5.843-2.179c2.566-0.332,2.6,0.208,5.991,0
			c3.289-0.202,3.788-0.743,6.452-0.6c1.936,0.103,2.133,0.414,4.147,0.6c2.958,0.273,4.27-0.235,6.605-0.4
			c4.99-0.352,10.368,1.168,10.423,2.579c0.039,1.015-2.675,1.947-2.896,2.022c-2.277,0.782-4.198,0.299-4.608,0.2
			c-0.488-0.118-4.166-0.145-11.521-0.2c-6.838-0.051-10.363,0.607-16.743-0.6C281.583,451.687,280.275,451.256,280.26,450.713z"/>
		<g>
			<path style="fill:#3D7BA5;" d="M56.726,409.726c0,0-17.621-14.944-16.344-39.744c10.213,8.902,16.344,33.413,16.344,33.413
				s-9.958-32.388-3.194-51.683c8.551,13.896,8.475,50.425,8.475,50.425s-3.494-39.045,12.206-50.425
				c5.998,19.768-6.925,51.939-6.925,51.939s3.991-25.881,17.266-31.834c0,20.09-11.842,37.909-11.842,37.909H56.726z"/>
			<path style="fill:#5088AE;" d="M57.78,410.485c0,0-2.218-7.602,1.866-14.243c2.041,4.593,1.786,9.298,1.786,9.298
				s-0.087-7.669,4.935-10.783c1.703,6.588,0,10.783,0,10.783s4.09-4.912,8.513-7.617c0.849,5.21-4.894,12.562-4.894,12.562"/>
			<rect x="48.17" y="406.568" style="fill:#FFFFFF;" width="21.191" height="36.759"/>
			
				<rect x="69.362" y="406.568" transform="matrix(-1 -1.224647e-16 1.224647e-16 -1 148.9362 849.8949)" style="fill:#D0DAE9;" width="10.213" height="36.759"/>
		</g>
	</g>
</g>
<g id="OBJECTS_1_">
	<g>
		<g>
			<path style="fill:#40B7D6;" d="M426.35,106.762h-37.722c-8.65,0-15.662-7.012-15.662-15.662V59.061
				c0-8.65,7.012-15.662,15.662-15.662h37.722c8.65,0,15.662,7.012,15.662,15.662V91.1C442.012,99.75,435,106.762,426.35,106.762z"
				/>
			<polygon style="fill:#40B7D6;" points="399.768,102.064 399.768,117.213 415.209,101.772 			"/>
		</g>
		<g>
			<g>
				<path style="fill:#FFFFFF;" d="M363.294,159.064h-53.351c-12.234,0-22.151-9.918-22.151-22.151V91.6
					c0-12.234,9.918-22.151,22.151-22.151h53.351c12.234,0,22.151,9.917,22.151,22.151v45.313
					C385.446,149.146,375.528,159.064,363.294,159.064z"/>
				<polygon style="fill:#FFFFFF;" points="325.7,152.419 325.7,173.845 347.538,152.007 				"/>
			</g>
			<path style="fill:#F3DA80;" d="M336.619,129.83L336.619,129.83c-14.69,0-26.598-11.908-26.598-26.598l0,0
				c0-14.69,11.908-26.598,26.598-26.598l0,0c14.69,0,26.598,11.908,26.598,26.598l0,0
				C363.217,117.921,351.309,129.83,336.619,129.83z"/>
			<g>
				<rect x="304.875" y="138.852" style="fill:#D0DAE9;" width="18.711" height="2.257"/>
				<rect x="304.875" y="134.366" style="fill:#D0DAE9;" width="18.711" height="2.257"/>
				<rect x="304.875" y="143.084" style="fill:#D0DAE9;" width="18.711" height="2.257"/>
				<rect x="304.875" y="147.315" style="fill:#D0DAE9;" width="18.711" height="2.257"/>
				<rect x="327.263" y="138.852" style="fill:#D0DAE9;" width="18.711" height="2.257"/>
				<rect x="327.263" y="134.366" style="fill:#D0DAE9;" width="18.711" height="2.257"/>
				<rect x="327.263" y="143.084" style="fill:#D0DAE9;" width="18.711" height="2.257"/>
				<rect x="327.263" y="147.315" style="fill:#D0DAE9;" width="18.711" height="2.257"/>
				<rect x="349.652" y="138.852" style="fill:#D0DAE9;" width="18.711" height="2.257"/>
				<rect x="349.652" y="134.366" style="fill:#D0DAE9;" width="18.711" height="2.257"/>
				<rect x="349.652" y="143.084" style="fill:#D0DAE9;" width="18.711" height="2.257"/>
				<rect x="349.652" y="147.315" style="fill:#D0DAE9;" width="18.711" height="2.257"/>
			</g>
			<path style="fill:#F3DA80;" d="M336.619,129.83L336.619,129.83c-14.69,0-26.598-11.908-26.598-26.598l0,0
				c0-14.69,11.908-26.598,26.598-26.598l0,0c14.69,0,26.598,11.908,26.598,26.598l0,0
				C363.217,117.921,351.309,129.83,336.619,129.83z"/>
			<g>
				<circle style="fill:#40B7D6;" cx="336.619" cy="102.817" r="11.997"/>
				<g>
					<defs>
						<path id="SVGID_7_" d="M336.619,129.83L336.619,129.83c-14.69,0-26.598-11.908-26.598-26.598l0,0
							c0-14.69,11.908-26.598,26.598-26.598l0,0c14.69,0,26.598,11.908,26.598,26.598l0,0
							C363.217,117.921,351.309,129.83,336.619,129.83z"/>
					</defs>
					<clipPath id="SVGID_00000041270145899552353590000004528224847898184093_">
						<use xlink:href="#SVGID_7_"  style="overflow:visible;"/>
					</clipPath>
					<path style="clip-path:url(#SVGID_00000041270145899552353590000004528224847898184093_);fill:#40B7D6;" d="M318.056,129.83
						c0-10.252,8.311-18.562,18.562-18.562c10.252,0,18.562,8.311,18.562,18.562H318.056z"/>
				</g>
			</g>
		</g>
		<g>
			<path style="fill:#FFFFFF;" d="M50.9,123.434h25.265c6.946,0,12.577-5.631,12.577-12.577l0,0c0-6.946-5.631-12.577-12.577-12.577
				H50.9c-6.946,0-12.577,5.631-12.577,12.577l0,0C38.322,117.803,43.953,123.434,50.9,123.434z"/>
			<polygon style="fill:#FFFFFF;" points="69.169,120.003 69.169,131.065 57.894,119.79 			"/>
		</g>
		<g>
			<path style="fill:#66C5DE;" d="M88.484,71.686h26.541c7.297,0,13.213-5.915,13.213-13.213l0,0
				c0-7.297-5.916-13.213-13.213-13.213H88.484c-7.297,0-13.213,5.916-13.213,13.213l0,0C75.271,65.77,81.187,71.686,88.484,71.686z
				"/>
			<polygon style="fill:#66C5DE;" points="107.677,68.081 107.677,79.703 95.832,67.858 			"/>
		</g>
		<g>
			<path style="fill:#C6E9F3;" d="M266.159,287.566h18.07c4.968,0,8.995-4.027,8.995-8.995l0,0c0-4.968-4.027-8.996-8.995-8.996
				h-18.07c-4.968,0-8.996,4.027-8.996,8.996l0,0C257.163,283.539,261.191,287.566,266.159,287.566z"/>
			<polygon style="fill:#C6E9F3;" points="279.226,285.112 279.226,293.025 271.162,284.96 			"/>
		</g>
		<g>
			<path style="fill:#F58A91;" d="M137.264,255.503h48.934c13.454,0,24.36-10.906,24.36-24.36v0c0-13.454-10.906-24.36-24.36-24.36
				l-48.934,0c-13.454,0-24.36,10.906-24.36,24.36v0C112.904,244.596,123.81,255.503,137.264,255.503z"/>
			<polygon style="fill:#F58A91;" points="182.15,248.858 182.15,270.284 160.312,248.446 			"/>
			<g>
				
					<rect x="133.769" y="226.665" transform="matrix(-1 -1.224647e-16 1.224647e-16 -1 323.462 456.951)" style="fill:#F26D76;" width="55.925" height="3.622"/>
				
					<rect x="133.769" y="219.488" transform="matrix(-1 -1.224647e-16 1.224647e-16 -1 323.462 442.5979)" style="fill:#F26D76;" width="55.925" height="3.622"/>
				
					<rect x="133.769" y="233.456" transform="matrix(-1 -1.224647e-16 1.224647e-16 -1 323.462 470.5333)" style="fill:#F26D76;" width="55.925" height="3.622"/>
				
					<rect x="133.769" y="240.247" transform="matrix(-1 -1.224647e-16 1.224647e-16 -1 323.462 484.1157)" style="fill:#F26D76;" width="55.925" height="3.622"/>
			</g>
		</g>
		<g>
			<path style="fill:#FDD46E;" d="M279.313,126.879h-30.943c-8.507,0-15.404-6.897-15.404-15.404l0,0
				c0-8.507,6.896-15.404,15.404-15.404h30.943c8.507,0,15.404,6.896,15.404,15.404l0,0
				C294.717,119.983,287.821,126.879,279.313,126.879z"/>
			<polygon style="fill:#FDD46E;" points="256.938,122.677 256.938,136.226 270.747,122.417 			"/>
		</g>
		<g>
			<path style="fill:#FDD46E;" d="M109.489,286.212h23.732c6.525,0,11.814-5.289,11.814-11.814l0,0
				c0-6.525-5.289-11.814-11.814-11.814h-23.732c-6.525,0-11.814,5.29-11.814,11.814l0,0
				C97.675,280.922,102.964,286.212,109.489,286.212z"/>
			<polygon style="fill:#FDD46E;" points="136.151,282.989 136.151,293.38 125.56,282.789 			"/>
		</g>
		<g>
			<path style="fill:#FDD46E;" d="M329.134,238.507H280.2c-13.454,0-24.36-10.906-24.36-24.36v0c0-13.454,10.906-24.36,24.36-24.36
				h48.934c13.454,0,24.36,10.906,24.36,24.36v0C353.494,227.6,342.587,238.507,329.134,238.507z"/>
			<polygon style="fill:#FDD46E;" points="293.748,231.862 293.748,253.288 315.586,231.45 			"/>
			<g>
				<rect x="275.263" y="213.094" style="fill:#FCC130;" width="58.808" height="2.553"/>
				<rect x="275.263" y="208" style="fill:#FCC130;" width="58.808" height="2.553"/>
				<rect x="275.263" y="202.907" style="fill:#FCC130;" width="58.808" height="2.553"/>
				<rect x="275.263" y="217.882" style="fill:#FCC130;" width="58.808" height="2.553"/>
				<rect x="275.263" y="222.669" style="fill:#FCC130;" width="58.808" height="2.553"/>
			</g>
		</g>
		<g>
			<path style="fill:#FFFFFF;" d="M263.469,199.578h-48.934c-13.454,0-24.36-10.906-24.36-24.36l0,0
				c0-13.454,10.906-24.36,24.36-24.36h48.934c13.454,0,24.36,10.906,24.36,24.36l0,0
				C287.828,188.672,276.922,199.578,263.469,199.578z"/>
			<polygon style="fill:#FFFFFF;" points="228.082,192.933 228.082,214.359 249.921,192.521 			"/>
			<g>
				<rect x="203.732" y="158.94" style="fill:#D0DAE9;" width="70.539" height="3.031"/>
				<rect x="203.732" y="164.623" style="fill:#D0DAE9;" width="70.539" height="3.031"/>
				<rect x="203.732" y="170.306" style="fill:#D0DAE9;" width="70.539" height="3.031"/>
			</g>
			<g>
				<rect x="203.732" y="176.297" style="fill:#D0DAE9;" width="70.539" height="3.031"/>
				<rect x="203.732" y="181.98" style="fill:#D0DAE9;" width="70.539" height="3.031"/>
				<rect x="203.732" y="187.663" style="fill:#D0DAE9;" width="70.539" height="3.031"/>
			</g>
		</g>
		<g>
			<path style="fill:#FFFFFF;" d="M380.741,195.56h-25.265c-6.946,0-12.577-5.631-12.577-12.577l0,0
				c0-6.946,5.631-12.577,12.577-12.577h25.265c6.946,0,12.577,5.631,12.577,12.577l0,0
				C393.318,189.929,387.688,195.56,380.741,195.56z"/>
			<polygon style="fill:#FFFFFF;" points="362.471,192.129 362.471,203.191 373.746,191.916 			"/>
			<g>
				<rect x="349.899" y="177.766" style="fill:#D0DAE9;" width="36.419" height="2.196"/>
				<rect x="349.899" y="181.884" style="fill:#D0DAE9;" width="36.419" height="2.196"/>
				<rect x="349.899" y="186.002" style="fill:#D0DAE9;" width="36.419" height="2.196"/>
			</g>
		</g>
		<g>
			<g>
				<path style="fill:#FFFFFF;" d="M437.326,206.161h-23.721c-5.44,0-9.849-4.41-9.849-9.849v-20.147
					c0-5.439,4.41-9.849,9.849-9.849h23.721c5.44,0,9.849,4.41,9.849,9.849v20.147C447.175,201.752,442.766,206.161,437.326,206.161
					z"/>
				<polygon style="fill:#FFFFFF;" points="420.611,203.207 420.611,212.733 430.321,203.023 				"/>
			</g>
			<g>
				<path style="fill:#F3DA80;" d="M434.199,181.665c0-4.864-3.977-8.8-8.857-8.732c-4.754,0.066-8.612,3.984-8.608,8.738
					c0.002,2.4,0.971,4.573,2.54,6.15c0.862,0.867,1.364,2.027,1.364,3.249v0.005c0,0.987,0.8,1.787,1.787,1.787h6.084
					c0.987,0,1.787-0.8,1.787-1.787v-0.005c0-1.197,0.462-2.356,1.313-3.198C433.207,186.29,434.199,184.094,434.199,181.665z"/>
				<path style="fill:#D0DAE9;" d="M428.416,199.016h-5.901c-0.479,0-0.867-0.388-0.867-0.867v-5.287h7.634v5.287
					C429.283,198.628,428.895,199.016,428.416,199.016z"/>
				<rect x="421.649" y="192.862" style="fill:#ADBCDB;" width="7.634" height="1.392"/>
				<path style="fill:#ADBCDB;" d="M428.704,199.016h-6.477l0,0c0,0.639,0.518,1.157,1.157,1.157h4.164
					C428.186,200.172,428.704,199.654,428.704,199.016L428.704,199.016z"/>
				<path style="fill:#D0DAE9;" d="M426.097,201.194h-1.262c-0.292,0-0.567-0.139-0.741-0.374l-0.479-0.648h3.701l-0.479,0.648
					C426.664,201.055,426.389,201.194,426.097,201.194z"/>
			</g>
		</g>
		<g>
			<path style="fill:#FFFFFF;" d="M51.124,255.632h32.39c8.905,0,16.124-7.219,16.124-16.124l0,0
				c0-8.905-7.219-16.124-16.124-16.124h-32.39c-8.905,0-16.124,7.219-16.124,16.124l0,0C35,248.413,42.219,255.632,51.124,255.632z
				"/>
			<polygon style="fill:#FFFFFF;" points="86.896,251.234 86.896,265.416 72.441,250.961 			"/>
			<g>
				
					<rect x="43.974" y="232.821" transform="matrix(-1 -1.224647e-16 1.224647e-16 -1 134.6372 468.4575)" style="fill:#D0DAE9;" width="46.69" height="2.816"/>
				
					<rect x="43.974" y="238.1" transform="matrix(-1 -1.224647e-16 1.224647e-16 -1 134.6372 479.0163)" style="fill:#D0DAE9;" width="46.69" height="2.816"/>
				
					<rect x="43.974" y="243.38" transform="matrix(-1 -1.224647e-16 1.224647e-16 -1 134.6372 489.5751)" style="fill:#D0DAE9;" width="46.69" height="2.816"/>
			</g>
		</g>
		<g>
			<path style="fill:#F26D76;" d="M257.656,69.771h24.513c5.621,0,10.178-4.557,10.178-10.178V38.773
				c0-5.621-4.557-10.178-10.178-10.178h-24.513c-5.621,0-10.178,4.557-10.178,10.178v20.819
				C247.479,65.214,252.035,69.771,257.656,69.771z"/>
			<polygon style="fill:#F26D76;" points="274.93,66.718 274.93,76.562 264.896,66.528 			"/>
		</g>
		<g>
			<path style="fill:#F8B6BA;" d="M49.75,314.853h24.513c5.621,0,10.178-4.557,10.178-10.178v-20.82
				c0-5.621-4.557-10.178-10.178-10.178H49.75c-5.621,0-10.178,4.557-10.178,10.178v20.82
				C39.572,310.297,44.129,314.853,49.75,314.853z"/>
			<polygon style="fill:#F8B6BA;" points="76.524,311.8 76.524,321.645 66.49,311.611 			"/>
		</g>
		<g>
			<path style="fill:#F8B6BA;" d="M104.683,178.363h53.351c12.234,0,22.151-9.917,22.151-22.151v-45.313
				c0-12.234-9.918-22.152-22.151-22.152h-53.351c-12.234,0-22.151,9.918-22.151,22.152v45.313
				C82.531,168.445,92.449,178.363,104.683,178.363z"/>
			<polygon style="fill:#F8B6BA;" points="151.777,171.718 151.777,193.144 129.939,171.306 			"/>
			<g>
				
					<rect x="96.089" y="143.9" transform="matrix(-1 -1.224647e-16 1.224647e-16 -1 262.7166 292.0535)" style="fill:#F7A7AD;" width="70.539" height="4.254"/>
				
					<rect x="96.089" y="151.876" transform="matrix(-1 -1.224647e-16 1.224647e-16 -1 262.7166 308.0057)" style="fill:#F7A7AD;" width="70.539" height="4.254"/>
				
					<rect x="96.089" y="159.852" transform="matrix(-1 -1.224647e-16 1.224647e-16 -1 262.7166 323.9579)" style="fill:#F7A7AD;" width="70.539" height="4.254"/>
			</g>
			<rect x="95.496" y="100.975" style="fill:none;stroke:#F7A7AD;stroke-miterlimit:10;" width="69.586" height="35.337"/>
			<rect x="103.918" y="121.079" style="fill:#FFFFFF;" width="4.016" height="10.417"/>
			<rect x="110.879" y="113.449" style="fill:#FFFFFF;" width="4.016" height="18.047"/>
			<rect x="117.839" y="117.634" style="fill:#FFFFFF;" width="4.016" height="13.862"/>
			<rect x="124.8" y="113.835" style="fill:#FFFFFF;" width="4.016" height="17.661"/>
			<rect x="131.761" y="119.005" style="fill:#FFFFFF;" width="4.016" height="12.491"/>
			<rect x="138.722" y="120.136" style="fill:#FFFFFF;" width="4.016" height="11.361"/>
			<rect x="145.683" y="123.048" style="fill:#FFFFFF;" width="4.016" height="8.448"/>
			<rect x="152.644" y="115.274" style="fill:#FFFFFF;" width="4.016" height="16.222"/>
		</g>
		<g>
			<path style="fill:#B3E2EF;" d="M67.192,203.302h32.042c7.348,0,13.304-5.956,13.304-13.304v-27.215
				c0-7.348-5.956-13.304-13.304-13.304H67.192c-7.348,0-13.304,5.956-13.304,13.304v27.215
				C53.888,197.345,59.844,203.302,67.192,203.302z"/>
			<polygon style="fill:#B3E2EF;" points="89.771,199.311 89.771,212.179 76.655,199.063 			"/>
			<g>
				<polygon style="fill:#FFFFFF;" points="86.327,162.949 80.099,162.949 81.101,156.551 85.324,156.551 				"/>
				<polygon style="fill:#FFFFFF;" points="85.153,190.56 91.005,188.43 92.252,194.786 88.283,196.23 				"/>
				<polygon style="fill:#FFFFFF;" points="76.663,164.005 71.892,168.008 68.548,162.462 71.783,159.748 				"/>
				<polygon style="fill:#FFFFFF;" points="93.581,186.302 96.695,180.908 101.735,184.975 99.624,188.633 				"/>
				<polygon style="fill:#FFFFFF;" points="70.276,170.953 69.194,177.086 63.067,174.988 63.8,170.829 				"/>
				<polygon style="fill:#FFFFFF;" points="97.231,177.086 96.15,170.953 102.625,170.829 103.358,174.988 				"/>
				<polygon style="fill:#FFFFFF;" points="69.73,180.908 72.844,186.302 66.802,188.633 64.69,184.975 				"/>
				<polygon style="fill:#FFFFFF;" points="94.533,168.008 89.762,164.005 94.643,159.748 97.878,162.462 				"/>
				<polygon style="fill:#FFFFFF;" points="75.42,188.43 81.272,190.56 78.142,196.23 74.174,194.786 				"/>
				<path style="fill:#FFFFFF;" d="M83.213,160.972c-8.63,0-15.626,6.996-15.626,15.626c0,8.63,6.996,15.626,15.626,15.626
					c8.63,0,15.626-6.996,15.626-15.626C98.839,167.968,91.843,160.972,83.213,160.972z M83.213,184.154
					c-4.173,0-7.556-3.383-7.556-7.556c0-4.173,3.383-7.556,7.556-7.556c4.173,0,7.556,3.383,7.556,7.556
					C90.768,180.771,87.386,184.154,83.213,184.154z"/>
				<path style="fill:none;stroke:#B3E2EF;stroke-width:0.4252;stroke-miterlimit:10;" d="M83.213,164.93
					c-6.444,0-11.668,5.224-11.668,11.668c0,6.444,5.224,11.668,11.668,11.668c6.444,0,11.667-5.224,11.667-11.668
					C94.88,170.154,89.657,164.93,83.213,164.93z"/>
			</g>
		</g>
		<g>
			<path style="fill:#FFFFFF;" d="M163.649,126.299H217c12.234,0,22.151-9.918,22.151-22.151V58.835
				c0-12.234-9.918-22.151-22.151-22.151h-53.351c-12.234,0-22.152,9.917-22.152,22.151v45.313
				C141.498,116.382,151.415,126.299,163.649,126.299z"/>
			<polygon style="fill:#FFFFFF;" points="201.244,119.654 201.244,141.08 179.405,119.242 			"/>
			<g>
				<rect x="150.574" y="99.253" style="fill:#D0DAE9;" width="23.673" height="2.855"/>
				<rect x="150.574" y="93.577" style="fill:#D0DAE9;" width="23.673" height="2.855"/>
				<rect x="150.574" y="104.607" style="fill:#D0DAE9;" width="23.673" height="2.855"/>
				<rect x="150.574" y="109.96" style="fill:#D0DAE9;" width="23.673" height="2.855"/>
				<rect x="178.9" y="99.253" style="fill:#D0DAE9;" width="23.673" height="2.855"/>
				<rect x="178.9" y="93.577" style="fill:#D0DAE9;" width="23.673" height="2.855"/>
				<rect x="178.9" y="104.607" style="fill:#D0DAE9;" width="23.673" height="2.855"/>
				<rect x="178.9" y="109.96" style="fill:#D0DAE9;" width="23.673" height="2.855"/>
				<rect x="207.226" y="99.253" style="fill:#D0DAE9;" width="23.672" height="2.855"/>
				<rect x="207.226" y="93.577" style="fill:#D0DAE9;" width="23.672" height="2.855"/>
				<rect x="150.574" y="49.666" style="fill:#FCC130;" width="23.673" height="36.295"/>
				<rect x="178.9" y="49.666" style="fill:#F26D76;" width="23.673" height="36.295"/>
				<rect x="207.226" y="49.666" style="fill:#40B7D6;" width="23.672" height="36.295"/>
				<rect x="207.226" y="104.607" style="fill:#D0DAE9;" width="23.672" height="2.855"/>
				<rect x="207.226" y="109.96" style="fill:#D0DAE9;" width="23.672" height="2.855"/>
			</g>
		</g>
		<g>
			<g>
				
					<ellipse transform="matrix(0.6863 -0.7273 0.7273 0.6863 -113.5968 249.4289)" style="fill:#66C5DE;" cx="232.374" cy="256.412" rx="16.832" ry="16.832"/>
				<polygon style="fill:#FFFFFF;" points="240.676,256.412 226.83,248.418 226.83,264.405 				"/>
			</g>
			<polygon style="fill:#66C5DE;" points="226.393,270.119 226.393,281.277 237.366,270.304 			"/>
		</g>
		<g>
			<g>
				<path style="fill:#FFFFFF;" d="M412.675,306.579h-47.443c-10.879,0-19.698-8.819-19.698-19.698v-40.294
					c0-10.879,8.819-19.698,19.698-19.698h47.443c10.879,0,19.698,8.819,19.698,19.698v40.294
					C432.373,297.76,423.554,306.579,412.675,306.579z"/>
				<polygon style="fill:#FFFFFF;" points="379.243,300.67 379.243,319.723 398.663,300.304 				"/>
			</g>
			<g>
				
					<rect x="363.301" y="242.849" style="fill:none;stroke:#D0DAE9;stroke-width:0.4252;stroke-miterlimit:10;" width="8.752" height="8.752"/>
				<polyline style="fill:none;stroke:#40B7D6;stroke-width:1.4173;stroke-miterlimit:10;" points="365.645,245.901 
					367.966,248.223 375.475,240.714 				"/>
				<rect x="376.305" y="249.456" style="fill:#D0DAE9;" width="38.301" height="2.145"/>
				<rect x="376.305" y="246.153" style="fill:#D0DAE9;" width="38.301" height="2.145"/>
				<rect x="376.305" y="242.849" style="fill:#D0DAE9;" width="38.301" height="2.145"/>
			</g>
			<g>
				
					<rect x="363.301" y="256.98" style="fill:none;stroke:#D0DAE9;stroke-width:0.4252;stroke-miterlimit:10;" width="8.752" height="8.752"/>
				<polyline style="fill:none;stroke:#40B7D6;stroke-width:1.4173;stroke-miterlimit:10;" points="365.645,260.032 
					367.966,262.353 375.475,254.845 				"/>
				<rect x="376.305" y="263.587" style="fill:#D0DAE9;" width="38.301" height="2.145"/>
				<rect x="376.305" y="260.283" style="fill:#D0DAE9;" width="38.301" height="2.145"/>
				<rect x="376.305" y="256.98" style="fill:#D0DAE9;" width="38.301" height="2.145"/>
			</g>
			<g>
				
					<rect x="363.301" y="271.111" style="fill:none;stroke:#D0DAE9;stroke-width:0.4252;stroke-miterlimit:10;" width="8.752" height="8.752"/>
				<polyline style="fill:none;stroke:#40B7D6;stroke-width:1.4173;stroke-miterlimit:10;" points="365.645,274.163 
					367.966,276.484 375.475,268.976 				"/>
				<rect x="376.305" y="277.717" style="fill:#D0DAE9;" width="38.301" height="2.145"/>
				<rect x="376.305" y="274.414" style="fill:#D0DAE9;" width="38.301" height="2.145"/>
				<rect x="376.305" y="271.111" style="fill:#D0DAE9;" width="38.301" height="2.145"/>
			</g>
			<g>
				
					<rect x="363.301" y="285.242" style="fill:none;stroke:#D0DAE9;stroke-width:0.4252;stroke-miterlimit:10;" width="8.752" height="8.752"/>
				<polyline style="fill:none;stroke:#40B7D6;stroke-width:1.4173;stroke-miterlimit:10;" points="365.645,288.294 
					367.966,290.615 375.475,283.107 				"/>
				<rect x="376.305" y="291.848" style="fill:#D0DAE9;" width="38.301" height="2.145"/>
				<rect x="376.305" y="288.545" style="fill:#D0DAE9;" width="38.301" height="2.145"/>
				<rect x="376.305" y="285.242" style="fill:#D0DAE9;" width="38.301" height="2.145"/>
			</g>
		</g>
		<g>
			<g>
				<path style="fill:#5E1A1E;" d="M212.921,297.181c-4.409-2.355-8.717-1.283-8.43,5.171c0.287,6.453-0.766,6.853-2.489,6.605
					c2.776,4.348,12.073,4.75,10.92-6.988"/>
				<path style="fill:#66C5DE;" d="M210.522,299.194c0,1.744,1.25,3.157,2.792,3.157c1.542,0,2.792-1.414,2.792-3.157
					c0-1.744-1.25-3.157-2.792-3.157C211.773,296.037,210.522,297.451,210.522,299.194z"/>
				<path style="fill:#FFB383;" d="M204.993,386.543c0,0,1.697,29.825,3.849,44.298c0.456,3.066,0.875,13.91,0.875,13.91v4.899
					h0.875v-2.45c0,0,0.612,3.412,2.625,4.024c2.012,0.612,4.987,1.137,5.249,0.612c0.262-0.525-3.15-6.999-4.637-8.924
					c1.75-22.747,3.325-47.068,1.575-58.879C213.655,372.224,204,374.526,204.993,386.543z"/>
				<path style="fill:#3D7BA5;" d="M210.593,447.201v2.45h-0.875v-4.899c0,0-0.014-0.368-0.04-0.984
					c1.796,2.009,2.49,4.484,2.49,4.484h4.818c0.917,1.783,1.604,3.341,1.481,3.587c-0.262,0.525-3.237,0-5.249-0.612
					C211.205,450.613,210.593,447.201,210.593,447.201z"/>
				<path style="fill:#FFB383;" d="M221.112,386.543c0,0,1.698,29.825,3.85,44.298c0.456,3.066,0.875,13.91,0.875,13.91v4.899h0.875
					v-2.45c0,0,0.612,3.412,2.625,4.024c2.012,0.612,4.987,1.137,5.249,0.612c0.262-0.525-3.15-6.999-4.637-8.924
					c1.75-22.747,3.325-47.068,1.575-58.879C229.774,372.224,220.119,374.526,221.112,386.543z"/>
				<path style="fill:#3D7BA5;" d="M226.711,447.201v2.45h-0.875v-4.899c0,0-0.014-0.368-0.04-0.984
					c1.796,2.009,2.49,4.484,2.49,4.484h4.818c0.917,1.783,1.604,3.341,1.481,3.587c-0.262,0.525-3.237,0-5.249-0.612
					C227.324,450.613,226.711,447.201,226.711,447.201z"/>
				<path style="fill:#AC290E;" d="M230.401,349.303l1.503,15.47c0,0,2.505,64.991,1.503,75.607
					c-11.522,0.259-11.522,0.259-11.522,0.259l-2.658-45.668l-1.6,45.668h-11.272c0,0-3.909-61.366-3.408-71.982
					c0.501-10.616,5.662-19.354,5.662-19.354H230.401z"/>
				<g>
					<path style="fill:#FFB383;" d="M240.148,334.166l11.073-11.186l2.254,2.436c0,0-6.564,16.237-11.765,17.731
						c-3.109,0.893-9.291-3.511-12.259-9.323c2.962-1.25,5.709-1.843,8.058-4.067C238.503,331.91,240.148,334.166,240.148,334.166z"
						/>
					<path style="fill:#FFFFFF;" d="M229.45,315.906c2.647,2.261,3.61,6.373,8.058,13.85c-2.349,2.224-5.095,3.817-8.058,5.067
						c-3.555-6.112-6.944-12.909-6.944-12.909L229.45,315.906z"/>
					<path style="fill:#FFB383;" d="M249.072,322.986c0.093-2.372,1.341-4.305,2.1-3.757c0.421,0.304-0.595,1.935-0.595,1.935
						s2.903-4.577,3.583-3.976c0.762,0.639-1.071,3.098-1.071,3.098s1.693-3.208,2.503-2.525c0.708,0.597-1.504,3.396-1.504,3.396
						s1.939-2.509,2.571-2.132c0.632,0.377-1.624,3.193-1.624,3.193s1.479-1.943,2.109-1.523c0.565,0.377-1.333,2.552-1.56,2.82
						c-1.043,1.228-2.861,2.929-4.623,2.774C249.278,326.141,248.987,324.387,249.072,322.986z"/>
					
						<line style="fill:none;stroke:#0C1153;stroke-width:0.4252;stroke-miterlimit:10;" x1="256.03" y1="320.845" x2="255.204" y2="321.915"/>
					
						<line style="fill:none;stroke:#0C1153;stroke-width:0.4252;stroke-miterlimit:10;" x1="255.275" y1="319.811" x2="254.089" y2="321.157"/>
					
						<line style="fill:none;stroke:#0C1153;stroke-width:0.4252;stroke-miterlimit:10;" x1="254.114" y1="318.546" x2="253.09" y2="320.286"/>
					
						<line style="fill:none;stroke:#0C1153;stroke-width:0.4252;stroke-miterlimit:10;" x1="251.223" y1="320.193" x2="250.188" y2="321.831"/>
				</g>
				<polygon style="fill:#FFB383;" points="215.311,313.543 216.358,304.821 222.668,305.966 223.08,313.999 220.188,315.906 				
					"/>
				<path style="fill:#FFB383;" d="M212.93,299.754c-0.84,7.527,5.268,12.306,11.894,11.181c5.392-0.916,2.524-12.827,1.808-15.677
					C225.916,292.407,213.987,290.279,212.93,299.754z"/>
				<path style="fill:none;stroke:#0C1153;stroke-width:0.4252;stroke-miterlimit:10;" d="M218.524,308.957
					c0,0,1.787,1.872,4.411,2.124"/>
				<path style="fill:none;stroke:#0C1153;stroke-width:0.4252;stroke-miterlimit:10;" d="M225.933,303.693
					c1.62-1.432,2.102,0.787,0.529,1.247"/>
				<path style="fill:none;stroke:#0C1153;stroke-width:0.4252;stroke-miterlimit:10;" d="M224.348,306.358
					c0,0,1.694,0.656,2.739-0.156"/>
				<path style="fill:#0C1153;" d="M223.71,302.319c0.036,0.52-0.145,0.956-0.406,0.974c-0.26,0.018-0.501-0.388-0.537-0.908
					s0.145-0.956,0.406-0.974C223.433,301.392,223.673,301.799,223.71,302.319z"/>
				<path style="fill:#0C1153;" d="M227.559,301.949c0.036,0.52-0.145,0.956-0.406,0.974c-0.26,0.018-0.501-0.389-0.537-0.908
					s0.145-0.956,0.406-0.974C227.282,301.022,227.523,301.429,227.559,301.949z"/>
				<path style="fill:#FFFFFF;" d="M230.405,317.04c-1.968-4.987-16.9-6.716-22.293-0.385c-5.172,6.071,2.503,21.161-1.874,34.693
					c9.198,7.104,25.658,1.021,25.658,1.021s-4.735-13.447-2.463-18.347C231.706,329.121,235.777,330.654,230.405,317.04z"/>
				<path style="fill:#FFFFFF;" d="M216.94,324.48l-0.635,11.881c-2.799,0.419-5.755,0.674-8.671,0.727
					c-0.968-6.222-1.067-10.936-1.067-10.936L216.94,324.48z"/>
				<path style="fill:#FFB383;" d="M223.594,312.992l-0.678,8.12l-7.881-8.128C215.035,312.983,220.007,311.825,223.594,312.992z"/>
				
					<line style="fill:none;stroke:#ADBCDB;stroke-width:0.4252;stroke-miterlimit:10;" x1="216.305" y1="336.361" x2="216.177" y2="327.116"/>
				
					<line style="fill:none;stroke:#ADBCDB;stroke-width:0.4252;stroke-miterlimit:10;" x1="207.634" y1="337.088" x2="206.673" y2="329.213"/>
				<path style="fill:none;stroke:#ADBCDB;stroke-width:0.4252;stroke-miterlimit:10;" d="M229.278,319.05
					c0,0-0.51,4.163,0.446,7.277c0.424,1.384,2.82,3.389-0.291,7.694"/>
				<path style="fill:none;stroke:#ADBCDB;stroke-width:0.4252;stroke-miterlimit:10;" d="M225.691,313.605l0.642,3.697
					l-2.298-0.412l-1.119,4.221l-6.319-4.138l-1.958,1.3c0,0-1.73-3.46-1.695-4.781"/>
				<path style="fill:#5E1A1E;" d="M220.61,298.465c0,0-0.672,5.725-3.542,6.356c-0.989-6.906-5.905-3.474-1.133,3.525
					c-3.233,0.109-5.167-4.432-3.891-10.504c1.276-6.072,10.465-8.664,14.588-4.594C231.516,298.07,227.613,300.456,220.61,298.465z
					"/>
				<path style="fill:#FFFFFF;" d="M215.913,306.928c0,0.36-0.292,0.651-0.651,0.651c-0.36,0-0.651-0.292-0.651-0.651
					c0-0.359,0.291-0.651,0.651-0.651C215.622,306.277,215.913,306.569,215.913,306.928z"/>
				<path style="fill:none;stroke:#6E3134;stroke-width:0.4252;stroke-miterlimit:10;" d="M226.632,296.691
					c0,0-4.101,1.025-6.506-1.673"/>
				<path style="fill:none;stroke:#6E3134;stroke-width:0.4252;stroke-miterlimit:10;" d="M225.44,295.282
					c0,0-1.522-1.934-4.093-0.736"/>
				<path style="fill:none;stroke:#6E3134;stroke-width:0.4252;stroke-miterlimit:10;" d="M218.356,296.144
					c0,0,0.322,2.397-2.277,3.035"/>
				<path style="fill:none;stroke:#6E3134;stroke-width:0.4252;stroke-miterlimit:10;" d="M218.133,294.264
					c0,0-2.266,0.155-3.655,2.322"/>
				<path style="fill:none;stroke:#6E3134;stroke-width:0.4252;stroke-miterlimit:10;" d="M224.348,293.327
					c0,0-2.815-1.192-4.266-0.24"/>
				<g>
					<path style="fill:#FFB383;" d="M234.136,348.149c2.285-0.641,4.509-0.05,4.221,0.842c-0.16,0.494-2.024,0.03-2.024,0.03"/>
					<g>
						<path style="fill:#D0DAE9;" d="M236.711,363.26l12.121,1.716c0.917,0.13,1.766-0.509,1.896-1.426l3.151-22.264
							c0.13-0.917-0.508-1.766-1.426-1.896l-12.121-1.715c-0.917-0.13-1.766,0.508-1.896,1.426l-3.151,22.264
							C235.155,362.281,235.793,363.13,236.711,363.26z"/>
						<path style="fill:#ADBCDB;" d="M237.498,363.371l12.121,1.715c0.917,0.13,1.766-0.508,1.896-1.426l3.151-22.264
							c0.13-0.917-0.508-1.766-1.426-1.896l-12.121-1.715c-0.917-0.13-1.766,0.508-1.896,1.426l-3.151,22.264
							C235.942,362.393,236.581,363.241,237.498,363.371z"/>
						<path style="fill:#D0DAE9;" d="M244.469,345.544c-0.15,1.063,0.489,2.032,1.427,2.165c0.939,0.133,1.822-0.621,1.972-1.684
							c0.15-1.063-0.489-2.032-1.428-2.165C245.502,343.727,244.619,344.481,244.469,345.544z"/>
					</g>
					<path style="fill:#FFB383;" d="M236.333,349.021c0,0,4.346,1.147,3.983,1.979c-0.373,0.922-2.374,0.14-2.374,0.14
						s1.584,0.006,1.184,0.988c-0.35,0.858-1.705,0.231-1.705,0.231s1.316,0.574,1.152,1.291c-0.164,0.718-1.869-0.064-1.869-0.064
						s1.363,0.267,1.157,0.996c-0.184,0.654-1.898,0.059-2.223-0.075c-1.489-0.614-3.668-1.821-4.063-3.544
						c-0.378-1.647,1.202-2.463,2.561-2.814"/>
					<path style="fill:#FFB383;" d="M216.009,341.915l19.902,7.995l-1.279,3.562c0,0-22.021-3.825-25.057-7.231
						c-0.827-0.928-1.331-5.242-1.94-9.153c2.916-0.053,5.872-0.308,8.671-0.727L216.009,341.915z"/>
					
						<line style="fill:none;stroke:#0C1153;stroke-width:0.4252;stroke-miterlimit:10;" x1="237.829" y1="353.935" x2="237.043" y2="353.653"/>
					
						<line style="fill:none;stroke:#0C1153;stroke-width:0.4252;stroke-miterlimit:10;" x1="238.363" y1="352.767" x2="237.421" y2="352.358"/>
					
						<line style="fill:none;stroke:#0C1153;stroke-width:0.4252;stroke-miterlimit:10;" x1="238.927" y1="351.359" x2="237.941" y2="351.14"/>
					
						<line style="fill:none;stroke:#0C1153;stroke-width:0.4252;stroke-miterlimit:10;" x1="237.455" y1="349.335" x2="235.579" y2="348.854"/>
				</g>
				<polyline style="opacity:0.5;fill:none;stroke:#5E1A1E;stroke-width:0.4252;stroke-miterlimit:10;" points="219.196,395.516 
					220.126,374.06 225.691,371.571 				"/>
				<path style="fill:none;stroke:#6E3134;stroke-width:0.4252;stroke-miterlimit:10;" d="M211.647,301.723
					c0,0-0.092,3.762,1.372,5.044"/>
				<path style="fill:none;stroke:#6E3134;stroke-width:0.4252;stroke-miterlimit:10;" d="M209.631,301.982
					c0,0,0.546,5.883-2.121,6.975"/>
				<path style="fill:none;stroke:#6E3134;stroke-width:0.4252;stroke-miterlimit:10;" d="M208.594,298.552
					c0,0-1.041,0.506-0.959,3.8"/>
				<path style="fill:none;stroke:#6E3134;stroke-width:0.4252;stroke-miterlimit:10;" d="M206.568,302.352
					c0,0-0.127,2.634-0.878,4.256"/>
				<path style="fill:none;stroke:#ADBCDB;stroke-width:0.4252;stroke-miterlimit:10;" d="M222.507,333.69
					c0,0-2.245,1.899-6.076,0.331"/>
				
					<line style="fill:none;stroke:#0C1153;stroke-width:0.4252;stroke-miterlimit:10;" x1="240.148" y1="334.166" x2="238.6" y2="335.422"/>
				<path style="opacity:0.5;fill:none;stroke:#5E1A1E;stroke-width:0.4252;stroke-miterlimit:10;" d="M206.568,354.252
					c6.282,3.696,18.009,3.915,24.337,0.232"/>
				<path style="opacity:0.5;fill:none;stroke:#5E1A1E;stroke-width:0.4252;stroke-miterlimit:10;" d="M213.315,357.058
					c-1.487,7.193-3.047,7.321-5.203,6.683"/>
				<path style="opacity:0.5;fill:none;stroke:#5E1A1E;stroke-width:0.4252;stroke-miterlimit:10;" d="M210.522,355.695
					c0,0-4.092,9.393-3.244,21.079"/>
			</g>
			<g>
				<path style="fill:#FFB383;" d="M314.244,390.344c0,0-1.67,26.396-3.788,40.636c-0.449,3.017-0.861,13.688-0.861,13.688v4.821
					h-0.861v-2.41c0,0-0.603,3.357-2.583,3.96s-4.907,1.119-5.165,0.603c-0.258-0.517,3.099-6.887,4.563-8.781
					c-1.722-22.382-3.271-43.362-1.549-54.984C305.722,376.255,315.221,378.52,314.244,390.344z"/>
				<path style="fill:#40B7D6;" d="M308.735,447.078v2.41h0.861v-4.821c0,0,0.014-0.362,0.04-0.968
					c-1.767,1.976-2.45,4.412-2.45,4.412h-4.741c-0.903,1.754-1.578,3.287-1.457,3.53c0.258,0.517,3.185,0,5.165-0.603
					C308.132,450.436,308.735,447.078,308.735,447.078z"/>
				<path style="fill:#FFB383;" d="M300.352,390.344c0,0-1.67,26.396-3.788,40.636c-0.449,3.017-0.861,13.688-0.861,13.688v4.821
					h-0.861v-2.41c0,0-0.603,3.357-2.583,3.96c-1.98,0.603-4.907,1.119-5.165,0.603c-0.258-0.517,3.099-6.887,4.563-8.781
					c-1.722-22.382-3.271-43.362-1.55-54.984C291.829,376.255,301.329,378.52,300.352,390.344z"/>
				<path style="fill:#40B7D6;" d="M294.842,447.078v2.41h0.861v-4.821c0,0,0.014-0.362,0.04-0.968
					c-1.767,1.976-2.45,4.412-2.45,4.412h-4.741c-0.902,1.754-1.578,3.287-1.457,3.53c0.258,0.517,3.185,0,5.165-0.603
					C294.24,450.436,294.842,447.078,294.842,447.078z"/>
				<path style="fill:#3D7BA5;" d="M288.246,350.024c0,0-10.962,37.369-5.452,60.325c24.334,1.837,24.334,1.837,24.334,1.837
					l5.509-23.677l1.228,23.677h6.807c0,0,4.477-40.238-6.255-62.161C310.112,349.22,288.246,350.024,288.246,350.024z"/>
				<path style="fill:none;stroke:#242964;stroke-width:0.4252;stroke-miterlimit:10;" d="M287.503,353.15
					c0,0,18.112,2.552,28.281,0"/>
				<path style="fill:none;stroke:#242964;stroke-width:0.4252;stroke-miterlimit:10;" d="M312.878,353.717
					c0,0,0.907,15.737-0.241,34.791"/>
				<g>
					<path style="fill:#FFB383;" d="M273.707,330.021l-3.698-7.681l-2.877,1.544c0,0,0.198,3.76,0.854,8.076
						C270.034,332.104,271.949,331.297,273.707,330.021z"/>
					<path style="fill:#FFB383;" d="M268.773,317.644c0.108,0.802,0.359,1.591,0.359,1.591S269.007,318.44,268.773,317.644z"/>
					<path style="fill:#FFB383;" d="M267.912,319.69c0.008,0.023,0.012,0.036,0.012,0.036S267.919,319.713,267.912,319.69z"/>
					<path style="fill:#FFB383;" d="M266.666,320.302c0.022,0.064,0.037,0.107,0.037,0.107S266.69,320.369,266.666,320.302z"/>
					<path style="fill:#FFB383;" d="M272.005,323.034c0.673-2.236,0.131-4.435-0.751-4.168c-0.489,0.148-0.066,1.991-0.066,1.991
						s-1.234-5.188-2.06-4.847c-0.435,0.167-0.453,0.905-0.355,1.634c0.234,0.795,0.359,1.591,0.359,1.591s-0.25-0.789-0.359-1.591
						c-0.259-0.879-0.651-1.757-1.161-1.56c-0.799,0.309,0.178,3.251,0.299,3.605c0.008,0.023,0.012,0.036,0.012,0.036
						s-0.005-0.013-0.012-0.036c-0.116-0.333-1.034-2.909-1.697-2.771c-0.636,0.133,0.259,2.826,0.451,3.383
						c0.024,0.066,0.037,0.107,0.037,0.107s-0.015-0.043-0.037-0.107c-0.159-0.445-0.81-2.15-1.437-1.985
						c-0.646,0.17,0.423,2.801,0.549,3.123c0.577,1.476,1.724,3.642,3.412,4.062C270.803,325.904,271.635,324.365,272.005,323.034z"
						/>
					
						<line style="fill:none;stroke:#0C1153;stroke-width:0.4252;stroke-miterlimit:10;" x1="266.218" y1="318.814" x2="266.644" y2="320.074"/>
					
						<line style="fill:none;stroke:#0C1153;stroke-width:0.4252;stroke-miterlimit:10;" x1="267.251" y1="318.093" x2="267.924" y2="319.726"/>
					
						<line style="fill:none;stroke:#0C1153;stroke-width:0.4252;stroke-miterlimit:10;" x1="268.736" y1="317.289" x2="269.132" y2="319.236"/>
					<path style="fill:none;stroke:#0C1153;stroke-width:0.4252;stroke-miterlimit:10;" d="M270.899,319.747l0.289,1.11
						c0,0-0.791,0.218-1.18,1.483"/>
				</g>
				<path style="fill:#FFB383;" d="M342.599,315.134l3.186,2.161l-2.152,6.24c-1.665-0.457-3.345-1.06-4.727-2.119L342.599,315.134z
					"/>
				<path style="fill:#FFB383;" d="M340.821,316.647c-1.082-2.41-0.796-4.955,0.233-4.784c0.57,0.095,0.366,2.223,0.366,2.223
					s0.626-6,1.601-5.737c1.076,0.259,0.467,3.618,0.467,3.618s-0.122-1.826,1.024-1.547c1.002,0.244,0.403,1.92,0.403,1.92
					s0.359-1.611,1.176-1.548c0.817,0.062,0.293,2.137,0.293,2.137s0.215-0.834,1.051-0.728c0.75,0.096,0.232,1.369,0.138,1.749
					c-0.431,1.74-1.401,4.336-3.233,5.055C342.589,319.69,341.431,318.086,340.821,316.647z"/>
				<path style="fill:none;stroke:#0C1153;stroke-width:0.4252;stroke-miterlimit:10;" d="M343.647,309.725l-0.159,2.241
					c-0.128,1.282,0.908,1.478,1.565-0.081c0.079,1.855,0.417,2.189,1.33,1.042c-0.442,1.688,0.405,1.741,0.865,1.149"/>
				<path style="fill:none;stroke:#0C1153;stroke-width:0.4252;stroke-miterlimit:10;" d="M341.866,311.458l-0.221,2.145
					c0,0,1.42-0.348,1.621,0.957"/>
				<path style="fill:#0C1153;" d="M311.413,293.722c3.326,2.021,5.44,1.324,5.624,4.426c0.184,3.101,6.85,2.326,6.029,7.104
					c-0.822,4.779,11.669,8.841,6.082,18.343c-5.587,9.502-4.544,19.161-21.243,16.302c-16.699-2.859-27.15-7.435-21.539-20.112
					c5.611-12.677,1.716-13.28,4.653-16.713c2.937-3.433,0.153-14.079,7.36-14.372C305.586,288.407,311.413,293.722,311.413,293.722
					z"/>
				<path style="fill:#F26D76;" d="M284.803,316.967c0,0-7.059,11.363-8.609,15.495c-1.549,4.132,0.368-3.247-3.35-4.436
					c-3.718-1.189-8.755,3.458-5.943,10.88c5.943,15.688,17.213,7.158,21.69-0.934"/>
				<path style="fill:#F4838B;" d="M267.153,330.321l-0.172-3.405l4.806-1.628l1.057,2.737
					C272.844,328.026,270.559,331.069,267.153,330.321z"/>
				<path style="fill:#F26D76;" d="M316.655,315.245c4.993,3.443,11.191,12.052,11.191,12.052s7.231-5.337,9.986-4.821
					c2.755,0.517,6.198,0.861,6.198,3.443c0,2.583-0.861,3.125-1.894,5.695c-1.033,2.57-3.616,7.218-7.059,6.702
					c-3.444-0.516-9.073,6.971-13.479,1.107c-1.846-2.457-7.354-4.723-7.354-4.723"/>
				<path style="fill:#F4838B;" d="M337.832,322.476l2.066-3.099l4.993,1.549l-1.146,3.851
					C343.745,324.778,339.381,323.853,337.832,322.476z"/>
				<path style="fill:#F26D76;" d="M284.803,316.967c0,0,7.059-5.682,17.561-5.682c10.503,0,14.29,3.96,14.29,3.96
					s3.788,19.455-2.238,34.779c-12.052,2.238-26.17,0-26.17,0S283.081,323.165,284.803,316.967z"/>
				<g>
					<defs>
						<path id="SVGID_6_" d="M337.832,322.476c-2.755-0.516-9.986,4.821-9.986,4.821s-6.198-8.609-11.191-12.052
							c0,0-3.788-3.96-14.29-3.96s-17.561,5.682-17.561,5.682s-7.059,11.363-8.609,15.495c-1.549,4.132,0.368-3.247-3.35-4.436
							c-3.718-1.189-8.755,3.458-5.943,10.88c5.215,13.764,14.528,8.885,19.758,2.017c0.835,5.184,1.588,9.101,1.588,9.101
							s14.118,2.238,26.17,0c1.739-4.422,2.657-9.186,3.089-13.729c1.538,0.856,3.222,1.969,4.093,3.128
							c4.406,5.863,10.036-1.624,13.479-1.107c3.443,0.517,6.026-4.132,7.059-6.702c1.033-2.57,1.894-3.112,1.894-5.695
							C344.03,323.337,340.587,322.993,337.832,322.476z"/>
					</defs>
					<clipPath id="SVGID_00000097464475913019758230000004057359052599909028_">
						<use xlink:href="#SVGID_6_"  style="overflow:visible;"/>
					</clipPath>
					<g style="clip-path:url(#SVGID_00000097464475913019758230000004057359052599909028_);">
						<path style="fill:none;stroke:#F58A91;stroke-width:0.4252;stroke-miterlimit:10;" d="M279.097,322.267
							c0,0,8.018-2.604,10.734,2.013c2.716,4.618,5.507-0.975,9.218,3.8c3.711,4.775,8.438-2.711,12.394-0.819
							c3.956,1.892,4.722-10.122,12.509-7.817"/>
						<path style="fill:none;stroke:#F58A91;stroke-width:0.4252;stroke-miterlimit:10;" d="M276.079,327.261
							c0,0-0.773,4.882,5.167,3.323c5.94-1.559,8.229-1.782,10.531,1.394c2.302,3.175,7.814,3.992,11.058,2.116
							c3.244-1.877,6.914-5.148,9.802-2.555c2.889,2.593,10.676,2.231,10.548-1.099c-0.128-3.329,3.358-6.966,4.66-6.905"/>
						<path style="fill:none;stroke:#F58A91;stroke-width:0.4252;stroke-miterlimit:10;" d="M276.046,331.538
							c1.565,3.104,2.586,6.272,7.182,4.751c4.596-1.52,6.375-0.701,8.549,2.4c2.174,3.101,11.359-1.334,16.724,1.458
							c5.365,2.792,13.097,0.778,13.097,0.778"/>
						<path style="fill:none;stroke:#F58A91;stroke-width:0.4252;stroke-miterlimit:10;" d="M273.707,327.261
							c0,0,0.956,3.39-1.4,5.066c-2.355,1.677-2.228,5.56-6.823,6.363"/>
						<path style="fill:none;stroke:#F58A91;stroke-width:0.4252;stroke-miterlimit:10;" d="M275.151,331.152
							c0,0-1.391,1.294-1.445,5.009c-0.053,3.715,3.18,8.888-0.862,12.493"/>
						<path style="fill:none;stroke:#F58A91;stroke-width:0.4252;stroke-miterlimit:10;" d="M279.097,348.654
							c-2.38-2.523-2.542-5.917,0.52-6.124c3.062-0.206,6.13-4.417,5.764,0.677"/>
						<path style="fill:none;stroke:#F58A91;stroke-width:0.4252;stroke-miterlimit:10;" d="M286.659,344.677
							c0.539-0.503,5.012-4.583,8.897-1.883c3.885,2.699,4.107-3.391,9.039,0.484c4.931,3.875,11.326,4.313,13.235,2.307"/>
						<path style="fill:none;stroke:#F58A91;stroke-width:0.4252;stroke-miterlimit:10;" d="M284.451,347.949
							c0,0,7.429-3.628,11.592-1.191c4.163,2.437,6.556-0.253,8.551,0.646c1.995,0.898,8.645,2.594,13.235,1.491"/>
						<path style="fill:none;stroke:#F58A91;stroke-width:0.4252;stroke-miterlimit:10;" d="M322.93,342.38
							c0,0,4.98-0.756,4.916-5.205c-0.065-4.448,1.754-11.274,1.291-12.011"/>
						<path style="fill:none;stroke:#F58A91;stroke-width:0.4252;stroke-miterlimit:10;" d="M332.123,322.868
							c0,0-3.445,4.814,0,6.443c3.445,1.629,4.466,9.474,1.913,12.318"/>
						<path style="fill:none;stroke:#F58A91;stroke-width:0.4252;stroke-miterlimit:10;" d="M334.292,321.167
							c0,0,1.463,5.053,3.54,5.434c2.077,0.381,5.345,1.307,5.435,5.376"/>
						<path style="fill:none;stroke:#F58A91;stroke-width:0.4252;stroke-miterlimit:10;" d="M281.363,317.102
							c4.332-0.776,7.486-0.456,9.399,2.606s6.316,0.702,6.316,0.702"/>
						<path style="fill:none;stroke:#F58A91;stroke-width:0.4252;stroke-miterlimit:10;" d="M306.641,320.086
							c0,0,1.684,3.415,4.263,1.709c2.579-1.706,9.168-5.801,9.168-5.801"/>
					</g>
				</g>
				<path style="fill:#FFB383;" d="M305.339,316.374c2.388-0.531,4.301-2.162,5.565-4.331c-3.285-1.19-9.154-2.313-16.825,0.298
					C296.148,316.217,300.742,318.045,305.339,316.374z"/>
				<path style="fill:#FFFFFF;" d="M310.904,312.042c-1.264,2.169-3.177,3.801-5.565,4.331c-4.597,1.672-9.191-0.156-11.26-4.034
					c-0.93,0.316-1.883,0.682-2.865,1.115l9.926,11.323l12.725-11.323C313.865,313.455,312.826,312.738,310.904,312.042z"/>
				<path style="fill:#0C1153;" d="M290.767,295.041c-1.094,4.943,1.367,7.746,6.31,8.84c4.943,1.094,9.196-0.222,10.291-5.165
					c1.094-4.943-2.026-9.838-6.969-10.932C295.456,286.689,291.862,290.097,290.767,295.041z"/>
				<polygon style="fill:#FFB383;" points="306.789,312.459 305.375,302.937 298.516,304.199 297.976,312.702 				"/>
				<path style="fill:#FFB383;" d="M307.965,296.04c1.469,8.279-3.981,12.696-11.429,12.279c-7.449-0.416-4.046-12.687-3.58-15.915
					C293.422,289.175,305.5,282.151,307.965,296.04z"/>
				<path style="fill:none;stroke:#0C1153;stroke-width:0.4252;stroke-miterlimit:10;" d="M302.835,306.839
					c0,0-2.69,2.361-6.791,1.713"/>
				<path style="fill:none;stroke:#0C1153;stroke-width:0.4252;stroke-miterlimit:10;" d="M295.253,300.962
					c-1.105-0.722-1.6,0.192-0.557,1.397"/>
				<path style="fill:none;stroke:#0C1153;stroke-width:0.4252;stroke-miterlimit:10;" d="M297.078,303.881
					c0,0-1.864,0.77-3.044-0.106"/>
				<path style="fill:#0C1153;" d="M297.181,299.417c-0.027,0.578,0.185,1.057,0.474,1.071c0.289,0.014,0.546-0.443,0.574-1.021
					c0.028-0.578-0.185-1.057-0.474-1.071C297.466,298.381,297.209,298.839,297.181,299.417z"/>
				<path style="fill:#0C1153;" d="M292.671,299.479c-0.028,0.578,0.185,1.058,0.474,1.071c0.29,0.014,0.547-0.444,0.574-1.021
					c0.028-0.578-0.185-1.058-0.474-1.071C292.956,298.444,292.699,298.902,292.671,299.479z"/>
				<path style="fill:#0C1153;" d="M301.499,297.589c-1.426-0.098-6.56-0.509-7.854-3.843c-1.956,4.364-2.172,3.583-2.172,3.583
					s-0.473-5.076,1.454-6.899c1.928-1.823,8.684-4.973,13.671-0.591c2.821,2.479,5.762,8.7-0.816,15.838
					C305.335,303.881,300.922,301.162,301.499,297.589z"/>
				<path style="fill:none;stroke:#242964;stroke-width:0.4252;stroke-miterlimit:10;" d="M304.316,295.534
					c0,0-4.548,0.656-7.34-2.357"/>
				<path style="fill:none;stroke:#242964;stroke-width:0.4252;stroke-miterlimit:10;" d="M306.475,294.844
					c0,0-2.768-2.496-5.894-1.849"/>
				<path style="fill:none;stroke:#242964;stroke-width:0.4252;stroke-miterlimit:10;" d="M304.595,291.162
					c0,0-3.057-2.745-5.465-1.21"/>
				<path style="fill:none;stroke:#242964;stroke-width:0.4252;stroke-miterlimit:10;" d="M308.516,297.418
					c0,0-0.314,2.732,1.925,3.925c2.24,1.193,3.451,2.115,3.233,3.591"/>
				<path style="fill:none;stroke:#242964;stroke-width:0.4252;stroke-miterlimit:10;" d="M311.353,297.226
					c0,0,1.173,4.535,5.626,5.565c4.453,1.03,2.788,8.55,2.788,8.55"/>
				<path style="fill:none;stroke:#242964;stroke-width:0.4252;stroke-miterlimit:10;" d="M306.879,299.244
					c0,0-1.092,2.965,1.4,4.496"/>
				<polyline style="fill:none;stroke:#AC290E;stroke-width:0.4252;stroke-miterlimit:10;" points="314.988,314.042 
					301.422,326.602 289.831,314.042 				"/>
				
					<line style="fill:none;stroke:#AC290E;stroke-width:0.4252;stroke-miterlimit:10;" x1="318.767" y1="329.892" x2="317.497" y2="336.29"/>
				<path style="fill:none;stroke:#AC290E;stroke-width:0.4252;stroke-miterlimit:10;" d="M286.659,340.926
					c0,0-1.525-9.896-1.243-13.665"/>
				
					<line style="fill:none;stroke:#AC290E;stroke-width:0.4252;stroke-miterlimit:10;" x1="327.846" y1="327.297" x2="324.891" y2="328.863"/>
				<path style="fill:none;stroke:#AC290E;stroke-width:0.4252;stroke-miterlimit:10;" d="M275.513,334.093
					c0,0,1.106-0.754,1.277,1.129c0.17,1.883,2.468,4.742,2.298,5.185"/>
			</g>
			<g>
				<g>
					<path style="fill:#FFB383;" d="M184.132,326.349l6.8-5.849l2.124,2.701c0,0-1.774,3.542-4.225,7.428
						C186.796,329.905,185.29,328.319,184.132,326.349z"/>
					<path style="fill:#FFB383;" d="M194.1,316.492c-0.442,0.728-1.016,1.383-1.016,1.383S193.54,317.16,194.1,316.492z"/>
					<path style="fill:#FFB383;" d="M194.07,318.827c-0.017,0.019-0.027,0.03-0.027,0.03S194.053,318.846,194.07,318.827z"/>
					<path style="fill:#FFB383;" d="M195.013,319.942c-0.048,0.053-0.081,0.088-0.081,0.088S194.962,319.996,195.013,319.942z"/>
					<path style="fill:#FFB383;" d="M188.714,320.329c0.293-2.44,1.741-4.332,2.479-3.703c0.409,0.349-0.774,1.947-0.774,1.947
						s3.375-4.483,4.027-3.806c0.349,0.344,0.056,1.064-0.346,1.725c-0.56,0.668-1.016,1.383-1.016,1.383s0.574-0.656,1.016-1.383
						c0.619-0.739,1.367-1.42,1.777-1.015c0.64,0.634-1.541,3.06-1.807,3.351c-0.017,0.019-0.027,0.03-0.027,0.03
						s0.01-0.011,0.027-0.03c0.252-0.272,2.222-2.37,2.803-1.958c0.557,0.396-1.44,2.616-1.86,3.073
						c-0.051,0.054-0.081,0.088-0.081,0.088s0.033-0.035,0.081-0.088c0.34-0.363,1.686-1.732,2.222-1.309
						c0.552,0.436-1.587,2.523-1.844,2.781c-1.178,1.18-3.196,2.785-5.001,2.48C188.665,323.602,188.511,321.768,188.714,320.329z"
						/>
					
						<line style="fill:none;stroke:#0C1153;stroke-width:0.4252;stroke-miterlimit:10;" x1="196.072" y1="318.696" x2="195.131" y2="319.731"/>
					
						<line style="fill:none;stroke:#0C1153;stroke-width:0.4252;stroke-miterlimit:10;" x1="195.379" y1="317.566" x2="194.043" y2="318.857"/>
					
						<line style="fill:none;stroke:#0C1153;stroke-width:0.4252;stroke-miterlimit:10;" x1="194.286" y1="316.164" x2="193.084" y2="317.875"/>
					<path style="fill:none;stroke:#0C1153;stroke-width:0.4252;stroke-miterlimit:10;" d="M191.165,317.624l-0.746,0.949
						c0,0,0.671,0.544,0.513,1.927"/>
				</g>
				<path style="fill:#FFB383;" d="M100.706,316.145l-2.126,3.449l4.758,5.059c1.4-1.157,2.753-2.46,3.622-4.073L100.706,316.145z"
					/>
				<path style="fill:#FFB383;" d="M103.065,316.831c-0.002-2.779-1.374-5.099-2.288-4.491c-0.506,0.337,0.608,2.291,0.608,2.291
					s-3.189-5.488-4.012-4.815c-0.92,0.713,1.113,3.674,1.113,3.674s-0.671-1.805-1.65-1.043c-0.856,0.667,0.442,2.017,0.442,2.017
					s-1.04-1.391-1.796-0.979c-0.757,0.412,0.641,2.177,0.641,2.177s-0.567-0.708-1.323-0.245c-0.678,0.415,0.368,1.414,0.622,1.738
					c1.165,1.484,3.216,3.557,5.283,3.456C102.681,320.514,103.101,318.474,103.065,316.831z"/>
				<path style="fill:none;stroke:#0C1153;stroke-width:0.4252;stroke-miterlimit:10;" d="M97.366,311.407l1.12,2.082
					c0.676,1.175-0.234,1.81-1.537,0.598c0.724,1.814,0.545,2.281-0.827,1.574c1.152,1.429,0.362,1.846-0.335,1.476"/>
				<path style="fill:none;stroke:#0C1153;stroke-width:0.4252;stroke-miterlimit:10;" d="M99.824,312.302l1.137,1.963
					c0,0-1.513,0.279-1.143,1.618"/>
				<polygon style="fill:#D0DAE9;" points="102.931,324.653 101.051,323.444 104.006,317.937 106.961,320.742 				"/>
				<polygon style="fill:#D0DAE9;" points="184.868,325.88 187.824,322.392 191.924,327.362 189.838,330.201 				"/>
				<path style="fill:#5E1A1E;" d="M155.795,283.309c4.204,0.637,7.092,1.161,6.961,2.553c-0.131,1.393,1.258,3.42-0.494,5.517
					c-1.752,2.097-1.863,3.102-4.482,0.488C155.16,289.254,155.795,283.309,155.795,283.309z"/>
				<polygon style="fill:#FF874F;" points="148.08,308.985 151.169,299.758 157.773,302.226 156.808,310.784 				"/>
				<path style="fill:#FF874F;" d="M147.164,293.588c-0.586,8.478,5.365,12.332,12.807,11.113
					c7.442-1.219,2.703-13.186,1.887-16.381C161.042,285.126,148.147,279.364,147.164,293.588z"/>
				<path style="fill:#5E1A1E;" d="M163.747,302.213c-0.598,1.991-1.316,2.588-2.824,2.588c-1.508,0-2.04-1.373-2.04-3.201
					c0-1.828,0.68-3.657,2.993-3.053C164.607,297.87,164.273,300.462,163.747,302.213z"/>
				<path style="fill:none;stroke:#0C1153;stroke-width:0.4252;stroke-miterlimit:10;" d="M161.876,296.626
					c0.792-0.763,2.089,0.346,0.663,1.36"/>
				<path style="fill:none;stroke:#0C1153;stroke-width:0.4252;stroke-miterlimit:10;" d="M160.406,299.808
					c0,0,1.633,0.682,2.462-0.237"/>
				<path style="fill:#0C1153;" d="M160.064,295.488c0.109,0.571,0.008,1.056-0.226,1.082c-0.234,0.026-0.511-0.416-0.62-0.987
					c-0.109-0.571-0.008-1.056,0.226-1.082C159.677,294.474,159.955,294.916,160.064,295.488z"/>
				<path style="fill:#0C1153;" d="M163.316,294.842c0.109,0.571,0.008,1.056-0.226,1.082c-0.234,0.026-0.511-0.416-0.62-0.987
					c-0.109-0.571-0.008-1.056,0.226-1.082C162.929,293.829,163.207,294.271,163.316,294.842z"/>
				<path style="fill:#5E1A1E;" d="M150.245,302.516c0.807-0.186,1.107-2.012-0.161-3.812c-1.268-1.799-1.292-3.806,0.204-4.155
					c1.496-0.35,2.487,2.361,2.637,4.218c2.869,0.403,1.211-3.17,1.946-4.451s6.969-0.684,6.918-4.768
					c0.316-1.759,0.966-3.419-0.178-4.222c-3.295-2.31-5.844-2.852-9.451-1.696c-3.607,1.156-6.297,1.995-6.33,6.297
					c-0.033,4.302-1.654,2.32-0.299,5.55C146.885,298.707,146.218,302.838,150.245,302.516z"/>
				<path style="fill:none;stroke:#0C1153;stroke-width:0.4252;stroke-miterlimit:10;" d="M157.886,304.91
					c-1.641-0.035-2.091,0.011-5.038-1.15"/>
				<path style="opacity:0.4;fill:none;stroke:#5E1A1E;stroke-width:0.4252;stroke-miterlimit:10;" d="M160.057,287.789
					c0,0-0.906,2.582-3.088,2.765s-2.831,0.616-2.779,1.511"/>
				<path style="opacity:0.4;fill:none;stroke:#5E1A1E;stroke-width:0.4252;stroke-miterlimit:10;" d="M157.891,285.862
					c0,0-1.346,2.836-3.836,3.017c-2.489,0.181-2.73,2.903-2.73,2.903"/>
				<path style="opacity:0.4;fill:none;stroke:#5E1A1E;stroke-width:0.4252;stroke-miterlimit:10;" d="M156.81,286.128
					c0,0-1.591,1.288-4.338,0.558"/>
				<path style="opacity:0.4;fill:none;stroke:#5E1A1E;stroke-width:0.4252;stroke-miterlimit:10;" d="M154.414,284.945
					c0,0-3.486-0.32-4.509,1.814"/>
				<path style="fill:#3D7BA5;" d="M171.813,313.025l6.336,17.08l7.989-7.163l5.785,7.163c0,0-8.484,17.353-14.601,16.805
					c-6.117-0.548-8.54-11.295-8.54-11.295S167.681,318.535,171.813,313.025z"/>
				
					<rect x="164.35" y="443.432" transform="matrix(-1 -1.224647e-16 1.224647e-16 -1 333.719 890.9966)" style="fill:#FFFFFF;" width="5.018" height="4.132"/>
				
					<rect x="135.639" y="443.432" transform="matrix(-1 -1.224647e-16 1.224647e-16 -1 275.8751 891.4615)" style="fill:#FFFFFF;" width="4.597" height="4.597"/>
				<path style="fill:#854936;" d="M163.687,446.635c0,0.413,0,6.405,0,6.405l4.132,0.413l0.516-1.136c0,0,0.264,0.62,4.706,1.136
					c4.442,0.516,5.636,0,5.636,0s-0.31-2.663-3.822-3.294s-4.66-1.768-5.177-3.524
					C165.339,446.635,163.687,446.635,163.687,446.635z"/>
				<path style="fill:#854936;" d="M140.546,446.635l0.207,6.612c0,0-2.479,4.855-4.339,4.752c-2.789-2.273-3.306-3.719-2.893-4.855
					c0.413-1.136,1.653-1.55,1.653-6.508C139.616,446.635,140.546,446.635,140.546,446.635z"/>
				<polygon style="fill:#154059;" points="168.65,363.633 171.813,444.879 161.896,444.879 152.231,376.911 144.347,444.879 
					132.144,444.879 136.551,359.28 168.65,360.382 				"/>
				<path style="fill:#FF874F;" d="M150.199,310.408c-2.411-0.438-4.368-1.507-5.852-2.975c3.814-0.922,9.824-1.534,16.434,0.985
					C158,310.921,154.101,310.842,150.199,310.408z"/>
				<path style="fill:#D0DAE9;" d="M144.347,307.434c1.484,1.468,3.441,2.536,5.852,2.975c3.901,0.434,7.801,0.513,10.582-1.989
					c0.732,0.279,1.471,0.595,2.216,0.955c3.03,16.324,0,51.008,0,51.008h-20.937l-1.944-51.523
					C140.117,308.858,141.708,308.072,144.347,307.434z"/>
				<path style="fill:#ADBCDB;" d="M141.892,355.894l0.169,4.488h20.937c0,0,0.142-1.631,0.334-4.346
					C156.185,356.155,149.038,356.471,141.892,355.894z"/>
				<path style="fill:#ADBCDB;" d="M140.445,317.53l0.106,2.808c7.854,0.061,15.708,0.424,23.562-0.234
					c-0.038-0.764-0.084-1.514-0.134-2.255C156.103,318.553,148.1,318.605,140.445,317.53z"/>
				<path style="fill:#ADBCDB;" d="M140.254,312.48l0.103,2.724c7.966,0.072,15.615,0.379,23.39-0.19
					c-0.062-0.658-0.132-1.297-0.205-1.926C155.742,313.43,147.857,313.41,140.254,312.48z"/>
				<path style="fill:#ADBCDB;" d="M140.705,324.444l0.122,3.231c7.698,0.056,15.623-1.024,23.477-1.749
					c-0.009-0.51-0.022-1.015-0.034-1.521C156.415,324.807,148.561,324.476,140.705,324.444z"/>
				<path style="fill:#ADBCDB;" d="M140.899,329.579l0.12,3.186c7.767,0.211,15.534,0.636,23.301,0.245
					c0.014-1.142,0.02-2.288,0.019-3.431C156.561,329.579,148.86,329.579,140.899,329.579z"/>
				<path style="fill:#ADBCDB;" d="M141.115,335.3l0.134,3.544c7.484,0.073,15.283,0.376,22.957-0.189
					c0.032-1.105,0.059-2.228,0.081-3.357C156.554,335.951,148.711,336.071,141.115,335.3z"/>
				<path style="fill:#ADBCDB;" d="M141.364,341.913l0.154,4.092c7.557-0.652,14.806,0.849,22.411-0.136
					c0.06-1.27,0.117-2.598,0.168-3.956C156.52,341.913,148.942,341.913,141.364,341.913z"/>
				<path style="fill:#ADBCDB;" d="M141.639,349.2l0.149,3.948c7.135,0.876,14.505,0.249,21.74-0.032
					c0.077-1.211,0.157-2.558,0.235-3.982C156.422,349.516,148.945,349.332,141.639,349.2z"/>
				<path style="fill:#3D7BA5;" d="M171.813,313.025c0,0-8.945-4.421-14.05-5.785c-3.03,21.763-0.276,56.447,1.102,59.478
					c1.377,3.03,9.366,8.264,12.948,4.408C170.436,333.66,171.813,313.025,171.813,313.025z"/>
				<path style="fill:#3D7BA5;" d="M147.879,306.632c0,0,0.518,51.712-0.033,57.001c-0.551,5.289-4.132,11.048-13.499,8.857
					c0.551-36.351-2.204-59.465-2.204-59.465S139.165,306.468,147.879,306.632z"/>
				<path style="fill:#3D7BA5;" d="M132.144,313.025l-13.223,13.774l-13.246-9.141l-3.857,7.438c0,0,11.042,12.997,17.654,12.171
					c6.612-0.826,17.08-9.366,17.08-9.366"/>
				<polyline style="fill:none;stroke:#154059;stroke-width:0.4252;stroke-miterlimit:10;" points="161.125,308.605 
					162.893,313.661 158.256,315.676 162.893,316.935 157.084,332.668 				"/>
				<polyline style="fill:none;stroke:#154059;stroke-width:0.4252;stroke-miterlimit:10;" points="148.02,332.315 141.99,315.784 
					146.418,315.122 142.061,313.025 145.076,307.064 				"/>
				
					<line style="fill:none;stroke:#154059;stroke-width:0.4252;stroke-miterlimit:10;" x1="133.515" y1="330.201" x2="132.932" y2="321.56"/>
				
					<line style="fill:none;stroke:#154059;stroke-width:0.4252;stroke-miterlimit:10;" x1="171.425" y1="322.392" x2="171.21" y2="342.944"/>
				
					<line style="fill:none;stroke:#154059;stroke-width:0.4252;stroke-miterlimit:10;" x1="178.149" y1="330.105" x2="175.063" y2="333.908"/>
				<path style="fill:none;stroke:#0C1153;stroke-width:0.4252;stroke-miterlimit:10;" d="M133.521,453.143
					c0,0,3.125-2.101,6.651-0.121"/>
				
					<line style="fill:none;stroke:#0C1153;stroke-width:0.4252;stroke-miterlimit:10;" x1="163.687" y1="451.074" x2="168.335" y2="452.316"/>
				<path style="fill:none;stroke:#0C1153;stroke-width:0.4252;stroke-miterlimit:10;" d="M172.511,453.387
					c0,0,1.163-2.331,2.344-3.228"/>
				
					<line style="fill:none;stroke:#0C1153;stroke-width:0.4252;stroke-miterlimit:10;" x1="152.231" y1="376.911" x2="156.396" y2="375.114"/>
				
					<line style="fill:none;stroke:#0C1153;stroke-width:0.4252;stroke-miterlimit:10;" x1="147.899" y1="362.928" x2="158.117" y2="362.928"/>
				<path style="fill:none;stroke:#0C1153;stroke-width:0.4252;stroke-miterlimit:10;" d="M147.917,310.784
					c0,0,5.729,1.493,9.167,0.624"/>
				<path style="fill:none;stroke:#154059;stroke-width:0.4252;stroke-miterlimit:10;" d="M136.551,356.477c0.498,0,8.439,0,8.439,0
					s1.215,8.16-4.22,8.261C135.337,364.838,136.551,356.477,136.551,356.477z"/>
				<path style="fill:none;stroke:#154059;stroke-width:0.4252;stroke-miterlimit:10;" d="M161.136,356.378h7.952
					c0,0,0.108,7.96-3.976,7.859C161.028,364.135,161.136,356.378,161.136,356.378z"/>
				<path style="fill:none;stroke:#154059;stroke-width:0.4252;stroke-miterlimit:10;" d="M185.406,327.06
					c-0.513-0.286,0.705-2.158,1.31-1.18C187.32,326.858,186.679,327.771,185.406,327.06z"/>
				<path style="fill:none;stroke:#154059;stroke-width:0.4252;stroke-miterlimit:10;" d="M183.226,329.377
					c-0.513-0.286,0.705-2.158,1.31-1.18C185.14,329.176,184.499,330.088,183.226,329.377z"/>
				<path style="fill:none;stroke:#154059;stroke-width:0.4252;stroke-miterlimit:10;" d="M157.408,335.635
					c-0.513-0.286,0.705-2.158,1.31-1.18C159.322,335.434,158.682,336.346,157.408,335.635z"/>
				<path style="fill:none;stroke:#154059;stroke-width:0.4252;stroke-miterlimit:10;" d="M157.667,343.547
					c-0.513-0.286,0.705-2.158,1.31-1.18C159.581,343.345,158.94,344.258,157.667,343.547z"/>
				<path style="fill:none;stroke:#154059;stroke-width:0.4252;stroke-miterlimit:10;" d="M157.925,351.459
					c-0.513-0.286,0.705-2.158,1.31-1.18C159.839,351.257,159.199,352.17,157.925,351.459z"/>
				<path style="fill:none;stroke:#154059;stroke-width:0.4252;stroke-miterlimit:10;" d="M109.093,321.823
					c0.174-0.561,2.257,0.245,1.424,1.038C109.685,323.655,108.66,323.216,109.093,321.823z"/>
				<path style="fill:none;stroke:#154059;stroke-width:0.4252;stroke-miterlimit:10;" d="M106.376,320.169
					c0.174-0.561,2.257,0.245,1.424,1.038S105.943,321.562,106.376,320.169z"/>
			</g>
			<g>
				<g>
					<path style="fill:#F26D76;" d="M360.585,451.051c38.085,0,39.957-25.407,40.809-45.81c0.851-20.403-15.39-20.367-26.078-3.96
						c-10.688,16.408-39.114-1.465-50.688,11.642C313.053,426.03,317.053,451.051,360.585,451.051z"/>
				</g>
				<g>
					<defs>
						<path id="SVGID_5_" d="M360.585,451.051c38.085,0,39.957-25.407,40.809-45.81c0.851-20.403-15.39-20.367-26.078-3.96
							c-10.688,16.408-39.114-1.465-50.688,11.642C313.053,426.03,317.053,451.051,360.585,451.051z"/>
					</defs>
					<clipPath id="SVGID_00000139974381658884421250000005905198674631330696_">
						<use xlink:href="#SVGID_5_"  style="overflow:visible;"/>
					</clipPath>
					<g style="clip-path:url(#SVGID_00000139974381658884421250000005905198674631330696_);">
						<path style="fill:none;stroke:#F6999F;stroke-width:0.4252;stroke-miterlimit:10;" d="M363.244,453.257
							c11.177-9.01,11.385-23.765,4.898-18.685s9.155,10.75,16.398,0s0.349-12.282-3.225-5.644
							c-3.575,6.638,12.557,6.894,18.662-1.787"/>
						<path style="fill:none;stroke:#F6999F;stroke-width:0.4252;stroke-miterlimit:10;" d="M315.783,430.715
							c13.611,10.526,25.291,3.574,19.2,0c-6.091-3.574-7.368,10.714,6.989,8.644c22.38-3.227,21.564-14.772,14.965-11.197
							c-6.599,3.574,7.172,8.599,15.606-0.679c8.434-9.278-3.18-10.12-3.382-3.571c-0.201,6.548,16.294,3.499,18.65-7.87
							c2.357-11.369-15.551,6.99,6.042,4.194c21.593-2.797,12.91-18.142,12.91-18.142"/>
						<path style="fill:none;stroke:#F6999F;stroke-width:0.4252;stroke-miterlimit:10;" d="M403.19,403.593
							c-11.234,9.249-13.31-0.386-9.336-1.313c3.974-0.927,3.289,9.219-10.794,5.295"/>
						<path style="fill:none;stroke:#F6999F;stroke-width:0.4252;stroke-miterlimit:10;" d="M360.771,452.321
							c-4.273-2.681-10.226-10.52-3.382-11.682c3.382-0.574,2.875,10.592-12.759,7.138c-9.456-2.089-10.213-6.081-7.664-6.562
							c2.549-0.481,4.462,4.339-3.977,5.728"/>
						<path style="fill:none;stroke:#F6999F;stroke-width:0.4252;stroke-miterlimit:10;" d="M326.051,421.587
							c7.947,3.925,12.383-0.192,8.92-2.394c-3.463-2.202-4.133,5.704,7.069,6.012c11.202,0.307,18.865-4.193,15.225-5.725
							c-3.64-1.532-2.775,6.032,3.974,3.83c6.748-2.202,5.921-6.606,3.271-5.17c-2.65,1.436,3.286,6.142,8.552-2.099"/>
						<path style="fill:none;stroke:#F6999F;stroke-width:0.4252;stroke-miterlimit:10;" d="M414.844,435.47
							c-8.574-2.248-12.091,2.676-8.257,4.138s2.902-6.419-8.133-4.468c-11.035,1.95-17.638,7.899-13.764,8.668
							c3.874,0.769,1.506-6.467-4.662-2.953c-6.168,3.514-4.472,7.662-2.165,5.722c2.308-1.939-4.453-5.356-7.955,3.775"/>
						<path style="fill:none;stroke:#F6999F;stroke-width:0.4252;stroke-miterlimit:10;" d="M391.53,398.737
							c4.798,1.116,7.287-4.193,5.181-4.076c-2.106,0.117-0.574,6.505,6.128,2.114"/>
					</g>
				</g>
				<polygon style="fill:#FF6437;" points="379.539,366.001 376.534,357.024 370.109,359.425 371.048,367.751 				"/>
				<path style="fill:#FF6437;" d="M377.786,349.716c2.905,7.741-1.572,12.99-8.849,13.923s-6.187-11.542-6.315-14.747
					C362.494,345.686,372.913,336.728,377.786,349.716z"/>
				<path style="fill:none;stroke:#0C1153;stroke-width:0.4252;stroke-miterlimit:10;" d="M364.915,356.64
					c-0.95-0.491-1.851,0.904-0.24,1.453"/>
				<path style="fill:none;stroke:#0C1153;stroke-width:0.4252;stroke-miterlimit:10;" d="M367.17,359.198
					c0,0-1.332,1.09-2.361,0.464"/>
				<path style="fill:#0C1153;" d="M366.288,355.075c0.057,0.563,0.286,0.987,0.511,0.946c0.225-0.041,0.361-0.53,0.304-1.093
					c-0.057-0.563-0.286-0.987-0.511-0.946C366.366,354.022,366.23,354.512,366.288,355.075z"/>
				<path style="fill:#0C1153;" d="M363.076,355.377c0.057,0.563,0.286,0.987,0.511,0.946c0.225-0.041,0.361-0.53,0.304-1.093
					c-0.057-0.563-0.286-0.987-0.511-0.946S363.019,354.814,363.076,355.377z"/>
				<path style="fill:none;stroke:#0C1153;stroke-width:0.4252;stroke-miterlimit:10;" d="M370.939,363.254
					c1.521-0.489,1.953-0.571,4.377-2.473"/>
				<polygon style="fill:#FFFFFF;" points="341.323,434.827 343.331,448.85 350.045,448.66 349.367,435.443 				"/>
				<path style="fill:#3D7BA5;" d="M343.331,448.85c-0.617,0.377-1.538,1.104-2.786,1.582c-2.785,1.067-4.851,0.789-5.434,2.034
					c-0.134,0.287-0.242,0.765,0.023,1.538c3.464,1.224,14.411,0.841,16.273-0.21c0.849-3.052-1.363-5.134-1.363-5.134
					L343.331,448.85z"/>
				<path style="fill:none;stroke:#0C1153;stroke-width:0.4252;stroke-miterlimit:10;" d="M351.594,452.758
					c0,0-8.814,1.8-16.611,0.565"/>
				<polygon style="fill:#FFFFFF;" points="318.6,434.827 320.608,448.85 327.322,448.66 326.644,435.443 				"/>
				<path style="fill:#3D7BA5;" d="M320.608,448.85c-0.617,0.377-1.537,1.104-2.786,1.582c-2.785,1.067-4.851,0.789-5.434,2.034
					c-0.134,0.287-0.242,0.765,0.023,1.538c3.464,1.224,14.411,0.841,16.273-0.21c0.849-3.052-1.363-5.134-1.363-5.134
					L320.608,448.85z"/>
				<path style="fill:none;stroke:#0C1153;stroke-width:0.4252;stroke-miterlimit:10;" d="M328.87,452.758
					c0,0-8.814,1.8-16.611,0.565"/>
				<path style="fill:#40B7D6;" d="M360.04,367.661c-3.864,1.594-10.627,25.022-10.627,25.022l-16.423,4.83v6.602
					c0,0,24.152,1.66,27.05-2.109C362.938,398.237,363.904,372.829,360.04,367.661z"/>
				<path style="fill:#154059;" d="M361.497,405.241c-0.483,10.144-9.419,13.525-30.673,10.868
					c-1.691,29.707-1.691,29.707-1.691,29.707h-10.627c0,0-3.623-34.054,0-39.609C322.13,400.652,345.799,400.894,361.497,405.241z"
					/>
				<path style="fill:#40B7D6;" d="M388.78,367.661c-6.28-3.478-22.22-2.56-28.741,0c-2.174,26.712-1.691,35.89-1.691,35.89
					l25.359,1.691L388.78,367.661z"/>
				
					<line style="fill:#40B7D6;stroke:#3D7BA5;stroke-width:0.4252;stroke-miterlimit:10;" x1="357.266" y1="401.135" x2="359.537" y2="378.868"/>
				<path style="fill:#154059;" d="M383.798,405.241c-0.483,10.144-9.419,13.525-30.673,10.868
					c-1.691,29.707-1.691,29.707-1.691,29.707h-10.627c0,0-3.623-34.054,0-39.609C344.43,400.652,368.099,400.894,383.798,405.241z"
					/>
				<path style="fill:none;stroke:#0C1153;stroke-width:0.4252;stroke-miterlimit:10;" d="M339.215,416.874
					c0.09-4.955,0.529-9.037,1.592-10.666c1.205-1.848,4.628-3.054,9.237-3.681"/>
				<path style="fill:#40B7D6;" d="M388.78,367.661c9.661,6.183,6.476,28.95,3.337,33.393c-3.14,4.443-23.88,1.438-23.88,1.438
					l-0.266-6.436l15.738-2.727v-12.963"/>
				<path style="fill:#FF6437;" d="M369.043,397.588c0,0-11.011-1.436-13.883,1.867c-1.867,2.106,0.511,2.043,1.915-0.048
					c-1.005,1.963,0.038,2.471,1.532,0.287c-0.957,2.059,0.527,1.723,1.34,0.239c-0.335,2.202,1.171,1.34,1.551,0
					c2.268,2.168,4.79,0.266,4.79,0.266l2.894,0.213L369.043,397.588z"/>
				<path style="fill:none;stroke:#0C1153;stroke-width:0.4252;stroke-miterlimit:10;" d="M361.24,398.402
					c0,0-0.957,0.33-1.293,1.532"/>
				<path style="fill:none;stroke:#0C1153;stroke-width:0.4252;stroke-miterlimit:10;" d="M359.372,398.402
					c0,0-0.463,0.627-0.766,1.532"/>
				<path style="fill:none;stroke:#0C1153;stroke-width:0.4252;stroke-miterlimit:10;" d="M357.84,398.737
					c0,0-0.69,0.345-0.903,0.96"/>
				<polyline style="fill:#40B7D6;stroke:#3D7BA5;stroke-width:0.4252;stroke-miterlimit:10;" points="383.708,380.365 
					383.708,393.328 367.971,396.055 368.237,402.491 383.946,403.485 				"/>
				<g>
					
						<rect x="321.409" y="401.135" transform="matrix(-1 -1.224647e-16 1.224647e-16 -1 688.0587 804.4089)" style="fill:#ADBCDB;" width="45.241" height="2.138"/>
					
						<rect x="318.801" y="401.135" transform="matrix(-1 -1.224647e-16 1.224647e-16 -1 665.0255 804.4089)" style="fill:#D0DAE9;" width="27.424" height="2.138"/>
					
						<rect x="318.801" y="380.727" transform="matrix(-1 -1.224647e-16 1.224647e-16 -1 665.0255 781.8626)" style="fill:#ADBCDB;" width="27.424" height="20.408"/>
					
						<rect x="345.198" y="380.727" transform="matrix(-1 -1.224647e-16 1.224647e-16 -1 691.423 781.8626)" style="fill:#D0DAE9;" width="1.026" height="20.408"/>
					
						<line style="fill:#40B7D6;stroke:#0C1153;stroke-width:0.4252;stroke-miterlimit:10;" x1="318.801" y1="401.135" x2="346.225" y2="401.135"/>
				</g>
				<path style="fill:#FF6437;" d="M381.44,365.724c-3.888-0.746-8.312-0.699-12.739-0.033
					C372.167,368.319,377.49,368.08,381.44,365.724z"/>
				<path style="fill:#FFFFFF;" d="M368.701,365.691c-2.314,0.227-4.451,0.601-6.112,1.17c0,0,14.975,6.278,23.401-0.383
					c-1.036-0.303-2.637-0.565-4.55-0.753C377.49,368.08,372.167,368.319,368.701,365.691z"/>
				<path style="fill:#5E1A1E;" d="M364.73,349.477c0,0,10.596,5.617,16.71-1.404c-2.174-0.894-3.75-1.517-4.647-4.141
					c-0.897-2.625-9.827-3.043-11.757,0.417c-3.467-0.616-2.765,4.49-4.45,6.022C361.849,351.774,364.73,349.477,364.73,349.477z"/>
				<path style="fill:#5E1A1E;" d="M372.585,351.212l0.957,4.52h1.774c0,0-0.963-3.064,0.642-3.319
					c1.606-0.255,1.243,6.785,1.243,6.785s2.023-2.024,2.789-3.894c0.766-1.87-0.766-6.774-3.702-7.896"/>
				
					<line style="opacity:0.5;fill:none;stroke:#5E1A1E;stroke-width:0.4252;stroke-miterlimit:10;" x1="365.036" y1="344.348" x2="364.352" y2="347.408"/>
				<path style="opacity:0.5;fill:none;stroke:#5E1A1E;stroke-width:0.4252;stroke-miterlimit:10;" d="M366.695,346.731
					c0,0,2.188-0.626,5.89,0.677"/>
				<path style="opacity:0.5;fill:none;stroke:#5E1A1E;stroke-width:0.4252;stroke-miterlimit:10;" d="M368.701,344.348
					c0,0,3.462-0.055,5.588,1.132"/>
				<path style="opacity:0.5;fill:none;stroke:#5E1A1E;stroke-width:0.4252;stroke-miterlimit:10;" d="M368.701,347.945
					c0,0,4.336,3.344,7.684,0.842"/>
				<path style="fill:none;stroke:#3D7BA5;stroke-width:0.4252;stroke-miterlimit:10;" d="M361.497,367.162
					c3.811,2.867,17.263,6.662,25.346-0.342"/>
				<path style="opacity:0.5;fill:none;stroke:#5E1A1E;stroke-width:0.4252;stroke-miterlimit:10;" d="M371.495,351.5
					c0,0,4.275,1.26,8.044-1.722"/>
				<path style="fill:#D0DAE9;" d="M332.99,387.105c0,1.166-0.945,2.112-2.111,2.112c-1.166,0-2.111-0.945-2.111-2.112
					c0-1.166,0.945-2.112,2.111-2.112C332.045,384.994,332.99,385.939,332.99,387.105z"/>
				<g>
					<path style="fill:#3D7BA5;" d="M358.947,371.953c0,0.264-0.214,0.479-0.479,0.479s-0.479-0.214-0.479-0.479
						c0-0.264,0.214-0.479,0.479-0.479S358.947,371.689,358.947,371.953z"/>
					<path style="fill:#3D7BA5;" d="M365.468,371.953c0,0.264-0.214,0.479-0.479,0.479c-0.264,0-0.479-0.214-0.479-0.479
						c0-0.264,0.214-0.479,0.479-0.479C365.253,371.474,365.468,371.689,365.468,371.953z"/>
					<path style="fill:#3D7BA5;" d="M371.989,371.953c0,0.264-0.214,0.479-0.479,0.479c-0.264,0-0.479-0.214-0.479-0.479
						c0-0.264,0.214-0.479,0.479-0.479C371.774,371.474,371.989,371.689,371.989,371.953z"/>
					<path style="fill:#3D7BA5;" d="M378.509,371.953c0,0.264-0.214,0.479-0.479,0.479c-0.264,0-0.479-0.214-0.479-0.479
						c0-0.264,0.214-0.479,0.479-0.479C378.295,371.474,378.509,371.689,378.509,371.953z"/>
					<path style="fill:#3D7BA5;" d="M385.03,371.953c0,0.264-0.214,0.479-0.479,0.479s-0.479-0.214-0.479-0.479
						c0-0.264,0.214-0.479,0.479-0.479S385.03,371.689,385.03,371.953z"/>
					<path style="fill:#3D7BA5;" d="M391.551,371.953c0,0.264-0.214,0.479-0.479,0.479c-0.264,0-0.479-0.214-0.479-0.479
						c0-0.264,0.214-0.479,0.479-0.479C391.337,371.474,391.551,371.689,391.551,371.953z"/>
					<path style="fill:#3D7BA5;" d="M361.729,376.949c0,0.264-0.214,0.479-0.479,0.479c-0.264,0-0.479-0.214-0.479-0.479
						s0.214-0.479,0.479-0.479C361.514,376.47,361.729,376.684,361.729,376.949z"/>
					<path style="fill:#3D7BA5;" d="M357.868,376.949c0,0.264-0.214,0.479-0.479,0.479c-0.264,0-0.479-0.214-0.479-0.479
						s0.214-0.479,0.479-0.479C357.653,376.47,357.868,376.684,357.868,376.949z"/>
					<path style="fill:#3D7BA5;" d="M368.249,376.949c0,0.264-0.214,0.479-0.479,0.479s-0.479-0.214-0.479-0.479
						s0.214-0.479,0.479-0.479S368.249,376.684,368.249,376.949z"/>
					<path style="fill:#3D7BA5;" d="M374.77,376.949c0,0.264-0.214,0.479-0.479,0.479c-0.264,0-0.479-0.214-0.479-0.479
						s0.214-0.479,0.479-0.479C374.556,376.47,374.77,376.684,374.77,376.949z"/>
					<circle style="fill:#3D7BA5;" cx="380.812" cy="376.949" r="0.479"/>
					<circle style="fill:#3D7BA5;" cx="387.333" cy="376.949" r="0.479"/>
					<path style="fill:#3D7BA5;" d="M361.729,368.81c0,0.264-0.214,0.479-0.479,0.479c-0.264,0-0.479-0.214-0.479-0.479
						s0.214-0.479,0.479-0.479C361.514,368.332,361.729,368.546,361.729,368.81z"/>
					<path style="fill:#3D7BA5;" d="M387.812,368.81c0,0.264-0.214,0.479-0.479,0.479s-0.479-0.214-0.479-0.479
						s0.214-0.479,0.479-0.479S387.812,368.546,387.812,368.81z"/>
					<path style="fill:#3D7BA5;" d="M393.375,377.427c0,0.264-0.214,0.479-0.479,0.479c-0.264,0-0.479-0.214-0.479-0.479
						s0.214-0.479,0.479-0.479C393.161,376.949,393.375,377.163,393.375,377.427z"/>
					<path style="fill:#3D7BA5;" d="M357.868,382.017c0,0.264-0.214,0.479-0.479,0.479c-0.264,0-0.479-0.214-0.479-0.479
						s0.214-0.479,0.479-0.479C357.653,381.539,357.868,381.753,357.868,382.017z"/>
					<path style="fill:#3D7BA5;" d="M365.468,382.496c0,0.264-0.214,0.479-0.479,0.479c-0.264,0-0.479-0.214-0.479-0.479
						s0.214-0.479,0.479-0.479C365.253,382.017,365.468,382.232,365.468,382.496z"/>
					<path style="fill:#3D7BA5;" d="M371.989,382.496c0,0.264-0.214,0.479-0.479,0.479c-0.264,0-0.479-0.214-0.479-0.479
						s0.214-0.479,0.479-0.479C371.774,382.017,371.989,382.232,371.989,382.496z"/>
					<path style="fill:#3D7BA5;" d="M378.509,382.496c0,0.264-0.214,0.479-0.479,0.479c-0.264,0-0.479-0.214-0.479-0.479
						s0.214-0.479,0.479-0.479C378.295,382.017,378.509,382.232,378.509,382.496z"/>
					<circle style="fill:#3D7BA5;" cx="384.551" cy="382.496" r="0.479"/>
					<path style="fill:#3D7BA5;" d="M391.551,382.496c0,0.264-0.214,0.479-0.479,0.479c-0.264,0-0.479-0.214-0.479-0.479
						s0.214-0.479,0.479-0.479C391.337,382.017,391.551,382.232,391.551,382.496z"/>
					<path style="fill:#3D7BA5;" d="M361.729,387.492c0,0.264-0.214,0.479-0.479,0.479c-0.264,0-0.479-0.214-0.479-0.479
						c0-0.264,0.214-0.479,0.479-0.479C361.514,387.013,361.729,387.228,361.729,387.492z"/>
					<path style="fill:#3D7BA5;" d="M368.249,387.492c0,0.264-0.214,0.479-0.479,0.479s-0.479-0.214-0.479-0.479
						c0-0.264,0.214-0.479,0.479-0.479S368.249,387.228,368.249,387.492z"/>
					<path style="fill:#3D7BA5;" d="M374.77,387.492c0,0.264-0.214,0.479-0.479,0.479c-0.264,0-0.479-0.214-0.479-0.479
						c0-0.264,0.214-0.479,0.479-0.479C374.556,387.013,374.77,387.228,374.77,387.492z"/>
					<path style="fill:#3D7BA5;" d="M381.291,387.492c0,0.264-0.214,0.479-0.479,0.479c-0.264,0-0.479-0.214-0.479-0.479
						c0-0.264,0.214-0.479,0.479-0.479C381.077,387.013,381.291,387.228,381.291,387.492z"/>
					<path style="fill:#3D7BA5;" d="M387.812,387.492c0,0.264-0.214,0.479-0.479,0.479s-0.479-0.214-0.479-0.479
						c0-0.264,0.214-0.479,0.479-0.479S387.812,387.228,387.812,387.492z"/>
					<path style="fill:#3D7BA5;" d="M393.854,387.492c0,0.264-0.214,0.479-0.479,0.479c-0.264,0-0.479-0.214-0.479-0.479
						c0-0.264,0.214-0.479,0.479-0.479C393.64,387.013,393.854,387.228,393.854,387.492z"/>
					<path style="fill:#3D7BA5;" d="M359.468,392.708c0,0.264-0.214,0.479-0.479,0.479c-0.264,0-0.479-0.214-0.479-0.479
						c0-0.264,0.214-0.479,0.479-0.479C359.254,392.229,359.468,392.443,359.468,392.708z"/>
					<path style="fill:#3D7BA5;" d="M365.468,393.039c0,0.264-0.214,0.479-0.479,0.479c-0.264,0-0.479-0.214-0.479-0.479
						s0.214-0.479,0.479-0.479C365.253,392.561,365.468,392.775,365.468,393.039z"/>
					<path style="fill:#3D7BA5;" d="M371.989,393.039c0,0.264-0.214,0.479-0.479,0.479c-0.264,0-0.479-0.214-0.479-0.479
						s0.214-0.479,0.479-0.479C371.774,392.561,371.989,392.775,371.989,393.039z"/>
					<path style="fill:#3D7BA5;" d="M378.509,393.039c0,0.264-0.214,0.479-0.479,0.479c-0.264,0-0.479-0.214-0.479-0.479
						s0.214-0.479,0.479-0.479C378.295,392.561,378.509,392.775,378.509,393.039z"/>
					<path style="fill:#3D7BA5;" d="M385.509,393.518c0,0.264-0.214,0.479-0.479,0.479c-0.264,0-0.479-0.214-0.479-0.479
						s0.214-0.479,0.479-0.479C385.295,393.039,385.509,393.254,385.509,393.518z"/>
					<path style="fill:#3D7BA5;" d="M391.551,393.039c0,0.264-0.214,0.479-0.479,0.479c-0.264,0-0.479-0.214-0.479-0.479
						s0.214-0.479,0.479-0.479C391.337,392.561,391.551,392.775,391.551,393.039z"/>
					<path style="fill:#3D7BA5;" d="M362.305,396.32c0,0.264-0.214,0.479-0.479,0.479s-0.479-0.214-0.479-0.479
						s0.214-0.479,0.479-0.479S362.305,396.056,362.305,396.32z"/>
					<path style="fill:#3D7BA5;" d="M370.119,399.934c0,0.264-0.214,0.479-0.479,0.479s-0.479-0.214-0.479-0.479
						s0.214-0.479,0.479-0.479S370.119,399.67,370.119,399.934z"/>
					<path style="fill:#3D7BA5;" d="M374.77,398.035c0,0.264-0.214,0.479-0.479,0.479c-0.264,0-0.479-0.214-0.479-0.479
						s0.214-0.479,0.479-0.479C374.556,397.556,374.77,397.771,374.77,398.035z"/>
					<circle style="fill:#3D7BA5;" cx="380.812" cy="398.035" r="0.479"/>
					<circle style="fill:#3D7BA5;" cx="387.333" cy="398.035" r="0.479"/>
					<path style="fill:#3D7BA5;" d="M392.488,397.277c0,0.264-0.214,0.479-0.479,0.479s-0.479-0.214-0.479-0.479
						s0.214-0.479,0.479-0.479S392.488,397.013,392.488,397.277z"/>
					<path style="fill:#3D7BA5;" d="M378.509,402.006c0,0.264-0.214,0.479-0.479,0.479c-0.264,0-0.479-0.214-0.479-0.479
						c0-0.264,0.214-0.479,0.479-0.479C378.295,401.527,378.509,401.742,378.509,402.006z"/>
					<path style="fill:#3D7BA5;" d="M385.03,401.614c0,0.264-0.214,0.479-0.479,0.479s-0.479-0.214-0.479-0.479
						s0.214-0.479,0.479-0.479S385.03,401.35,385.03,401.614z"/>
					<circle style="fill:#3D7BA5;" cx="390.115" cy="400.657" r="0.479"/>
					<path style="fill:#3D7BA5;" d="M354.473,386.07c0,0.264-0.214,0.479-0.479,0.479s-0.479-0.214-0.479-0.479
						s0.214-0.479,0.479-0.479S354.473,385.805,354.473,386.07z"/>
					<circle style="fill:#3D7BA5;" cx="347.473" cy="394.661" r="0.479"/>
					<path style="fill:#3D7BA5;" d="M354.473,393.039c0,0.264-0.214,0.479-0.479,0.479s-0.479-0.214-0.479-0.479
						s0.214-0.479,0.479-0.479S354.473,392.775,354.473,393.039z"/>
					<circle style="fill:#3D7BA5;" cx="350.255" cy="398.035" r="0.479"/>
					<path style="fill:#3D7BA5;" d="M348.268,399.934c0,0.264-0.214,0.479-0.479,0.479c-0.264,0-0.479-0.214-0.479-0.479
						s0.214-0.479,0.479-0.479C348.054,399.455,348.268,399.67,348.268,399.934z"/>
					<path style="fill:#3D7BA5;" d="M354.951,398.035c0,0.264-0.214,0.479-0.479,0.479c-0.264,0-0.479-0.214-0.479-0.479
						s0.214-0.479,0.479-0.479C354.737,397.556,354.951,397.771,354.951,398.035z"/>
				</g>
			</g>
		</g>
	</g>
</g>
</svg>
