<svg id="Layer_1_1_" enable-background="new 0 0 64 64" height="512" viewBox="0 0 64 64" width="512" xmlns="http://www.w3.org/2000/svg"><path d="m24.525 47.263c.601-.765.975-1.717.975-2.763 0-2.481-2.019-4.5-4.5-4.5s-4.5 2.019-4.5 4.5c0 1.046.374 1.998.975 2.763-1 .323-1.86.942-2.475 1.768-.615-.826-1.475-1.445-2.475-1.768.601-.765.975-1.717.975-2.763 0-2.481-2.019-4.5-4.5-4.5s-4.5 2.019-4.5 4.5c0 1.046.374 1.998.975 2.763-2.009.649-3.475 2.515-3.475 4.737v9c0 .553.448 1 1 1h24c.552 0 1-.447 1-1v-9c0-2.222-1.466-4.088-3.475-4.737zm-15.525-5.263c1.378 0 2.5 1.121 2.5 2.5s-1.122 2.5-2.5 2.5-2.5-1.121-2.5-2.5 1.122-2.5 2.5-2.5zm5 18h-10v-8c0-1.654 1.346-3 3-3h4c1.654 0 3 1.346 3 3zm7-18c1.378 0 2.5 1.121 2.5 2.5s-1.122 2.5-2.5 2.5-2.5-1.121-2.5-2.5 1.122-2.5 2.5-2.5zm5 18h-10v-8c0-1.654 1.346-3 3-3h4c1.654 0 3 1.346 3 3z"/><path d="m40 24c.242 0 .484-.087.676-.263l12-11-1.352-1.475-11.294 10.354-3.323-3.323-1.414 1.414 4 4c.195.195.451.293.707.293z"/><path d="m17.658 9.875-3.112-.452-1.392-2.82c-.337-.684-1.457-.684-1.794 0l-1.392 2.82-3.112.452c-.377.055-.69.318-.808.68s-.02.76.253 1.025l2.252 2.196-.532 3.1c-.064.375.09.754.398.978.309.225.716.254 1.053.076l2.784-1.463 2.784 1.463c.146.077.306.115.465.115.207 0 .414-.064.588-.191.308-.224.462-.603.398-.978l-.532-3.1 2.252-2.196c.272-.266.371-.663.253-1.024-.116-.363-.429-.626-.806-.681zm-3.47 2.836c-.235.229-.343.561-.288.885l.278 1.621-1.456-.765c-.291-.154-.64-.154-.931 0l-1.456.765.278-1.621c.055-.324-.052-.655-.288-.885l-1.178-1.148 1.627-.236c.326-.047.607-.252.753-.547l.728-1.475.728 1.475c.146.295.428.5.753.547l1.627.236z"/><path d="m51 54h2v-4h4v-2h-4v-4h-2v4h-4v2h4z"/><path d="m4 2c-1.103 0-2 .897-2 2v16c0 1.103.897 2 2 2h5.382l4.724 9.447c.172.345.521.553.894.553.076 0 .153-.009.23-.026.451-.108.77-.51.77-.974v-9h5c1.103 0 2-.897 2-2v-16c0-1.103-.897-2-2-2zm11 18c-.552 0-1 .447-1 1v5.764l-3.105-6.211c-.17-.339-.516-.553-.895-.553h-6v-16h17l.001 16z"/><path d="m60 39h-16c-1.103 0-2 .897-2 2v5.198l-8.217 1.825c-.439.098-.759.477-.782.925-.023.449.256.858.682 1l8.317 2.773v4.279c0 1.103.897 2 2 2h16c1.103 0 2-.897 2-2v-16c0-1.103-.897-2-2-2zm0 18h-16v-5c0-.431-.275-.812-.684-.948l-5.575-1.858 5.476-1.217c.457-.103.783-.508.783-.977v-6h16z"/><path d="m30.354 37.763c.186.158.416.237.646.237.206 0 .412-.063.588-.191l10.737-7.809h12.493c1.203 0 2.182-.997 2.182-2.223v-19.554c0-1.226-.979-2.223-2.182-2.223h-23.636c-1.203 0-2.182.997-2.182 2.223v19.555c0 1.225.979 2.222 2.182 2.222h2.2l-3.276 6.553c-.207.412-.104.912.248 1.21zm.828-9.763c-.099 0-.182-.102-.182-.223v-19.554c0-.121.083-.223.182-.223h23.637c.098 0 .181.102.181.223v19.555c0 .12-.083.222-.182.222h-12.818c-.211 0-.417.067-.588.191l-7.683 5.588 2.166-4.332c.155-.31.138-.678-.044-.973s-.504-.474-.851-.474z"/></svg>