<?xml version="1.0" encoding="iso-8859-1"?>
<!-- Generator: Adobe Illustrator 19.0.0, SVG Export Plug-In . SVG Version: 6.00 Build 0)  -->
<svg version="1.1" id="Capa_1" xmlns="http://www.w3.org/2000/svg" xmlns:xlink="http://www.w3.org/1999/xlink" x="0px" y="0px"
	 viewBox="0 0 512 512" style="enable-background:new 0 0 512 512;" xml:space="preserve">
<g>
	<g>
		<path d="M112.828,379.088l-43.18,45.159l-18.546-22.995l-31.8,25.646l47.738,59.19l75.317-78.768L112.828,379.088z
			 M40.395,429.158l8.448-6.814l19.849,24.61l44.613-46.659l7.844,7.5l-53.15,55.587L40.395,429.158z"/>
	</g>
</g>
<g>
	<g>
		<path d="M256.003,0c-72.647,0-131.75,59.103-131.75,131.75c0,70.131,55.078,127.638,124.25,131.539v43.782h15v-43.782
			c69.172-3.901,124.25-61.408,124.25-131.539C387.753,59.103,328.65,0,256.003,0z M256.003,248.5
			c-64.376,0-116.75-52.374-116.75-116.75S191.627,15,256.003,15s116.75,52.374,116.75,116.75S320.379,248.5,256.003,248.5z"/>
	</g>
</g>
<g>
	<g>
		<path d="M256.003,30.262c-55.961,0-101.488,45.527-101.488,101.488s45.527,101.488,101.488,101.488
			s101.488-45.527,101.488-101.488S311.964,30.262,256.003,30.262z M263.503,217.916v-12.249h-15v12.249
			c-41.719-3.6-75.065-36.946-78.666-78.666h12.25v-15h-12.25c3.601-41.719,36.947-75.065,78.666-78.666v12.249h15V45.584
			c41.719,3.6,75.065,36.946,78.666,78.666H329.92v15h12.249C338.569,180.969,305.223,214.315,263.503,217.916z"/>
	</g>
</g>
<g>
	<g>
		<path d="M197.847,151.733l-14.182,4.887c7.552,21.911,25.113,39.592,46.976,47.295l4.984-14.147
			C218.043,183.574,203.92,169.354,197.847,151.733z"/>
	</g>
</g>
<g>
	<g>
		<path d="M317.97,86.952l-12.146,8.803c5.475,7.555,9.2,16.379,10.775,25.519l14.783-2.545
			C329.42,107.34,324.782,96.352,317.97,86.952z"/>
	</g>
</g>
<g>
	<g>
		<path d="M272.704,57.099l-3.273,14.639c4.34,0.97,8.583,2.422,12.61,4.314l6.379-13.576
			C283.401,60.118,278.113,58.308,272.704,57.099z"/>
	</g>
</g>
<g>
	<g>
		<path d="M298.077,67.897l-8.271,12.514c3.715,2.454,7.173,5.321,10.283,8.521l10.758-10.453
			C306.987,74.506,302.691,70.946,298.077,67.897z"/>
	</g>
</g>
<g>
	<g>
		<path d="M276.419,131.748c0-2.885-0.602-5.633-1.686-8.123l21.969-21.968L286.095,91.05l-21.969,21.968
			c-2.491-1.084-5.238-1.686-8.123-1.686c-11.258,0.001-20.416,9.16-20.416,20.418c0,2.885,0.602,5.633,1.686,8.124l-4.427,4.427
			l10.605,10.607l4.428-4.428c2.491,1.084,5.238,1.686,8.124,1.686c2.886,0,5.633-0.602,8.124-1.687l7.61,7.609l10.605-10.607
			l-7.609-7.609C275.818,137.381,276.419,134.634,276.419,131.748z M256.003,137.167c-2.986,0-5.416-2.43-5.416-5.417
			s2.43-5.417,5.416-5.417c2.987,0,5.417,2.43,5.417,5.417S258.99,137.167,256.003,137.167z"/>
	</g>
</g>
<g>
	<g>
		<rect x="215.981" y="80.643" transform="matrix(0.7071 -0.7071 0.7071 0.7071 -4.7118 187.0904)" width="15" height="37.18"/>
	</g>
</g>
<g>
	<g>
		<rect x="290.14" y="167.67" width="15" height="15"/>
	</g>
</g>
<g>
	<g>
		<rect x="265.14" y="167.67" width="15" height="15"/>
	</g>
</g>
<g>
	<g>
		<rect x="52" y="374.57" width="15" height="15"/>
	</g>
</g>
<g>
	<g>
		<rect x="22" y="374.57" width="20" height="15"/>
	</g>
</g>
<g>
	<g>
		<rect x="77" y="374.57" width="15" height="15"/>
	</g>
</g>
<g>
	<g>
		<path d="M287.612,379.088l-43.182,45.159l-18.545-22.996l-31.8,25.647l47.738,59.19l75.317-78.768L287.612,379.088z
			 M215.177,429.158l8.448-6.813l19.848,24.609l44.613-46.659l7.845,7.5l-53.15,55.587L215.177,429.158z"/>
	</g>
</g>
<g>
	<g>
		<rect x="251.78" y="374.57" width="15" height="15"/>
	</g>
</g>
<g>
	<g>
		<rect x="196.78" y="374.57" width="20" height="15"/>
	</g>
</g>
<g>
	<g>
		<rect x="226.78" y="374.57" width="15" height="15"/>
	</g>
</g>
<g>
	<g>
		<path d="M462.394,379.088l-43.182,45.159l-18.545-22.996l-31.8,25.647l47.738,59.19l75.317-78.768L462.394,379.088z
			 M389.959,429.158l8.448-6.813l19.848,24.609l44.613-46.659l7.845,7.5l-53.15,55.587L389.959,429.158z"/>
	</g>
</g>
<g>
	<g>
		<path d="M437.865,349.57v-7.5h-15v7.5h-73.298V512h162.43V349.57H437.865z M496.997,497h-132.43V364.57h132.43V497z"/>
	</g>
</g>
<g>
	<g>
		<rect x="401.57" y="374.57" width="15" height="15"/>
	</g>
</g>
<g>
	<g>
		<rect x="426.57" y="374.57" width="15" height="15"/>
	</g>
</g>
<g>
	<g>
		<rect x="371.57" y="374.57" width="20" height="15"/>
	</g>
</g>
<g>
	<g>
		<rect x="422.87" y="317.07" width="15" height="15"/>
	</g>
</g>
<g>
	<g>
		<polygon points="274.003,279.02 274.003,294.02 422.865,294.02 422.865,307.07 437.865,307.07 437.865,279.02 		"/>
	</g>
</g>
<g>
	<g>
		<polygon points="73.301,279.02 73.301,307.07 88.301,307.07 88.301,294.02 238.003,294.02 238.003,279.02 		"/>
	</g>
</g>
<g>
	<g>
		<path d="M88.301,349.57v-7.5h-15v7.5H0.003V512h162.43V349.57H88.301z M147.433,497H15.003V364.57h132.43V497z"/>
	</g>
</g>
<g>
	<g>
		<rect x="73.3" y="317.07" width="15" height="15"/>
	</g>
</g>
<g>
	<g>
		<path d="M263.503,349.57v-7.5h-15v7.5h-73.718V512h162.43V349.57H263.503z M322.215,497h-132.43V364.57h132.43V497z"/>
	</g>
</g>
<g>
	<g>
		<rect x="248.5" y="317.07" width="15" height="15"/>
	</g>
</g>
<g>
</g>
<g>
</g>
<g>
</g>
<g>
</g>
<g>
</g>
<g>
</g>
<g>
</g>
<g>
</g>
<g>
</g>
<g>
</g>
<g>
</g>
<g>
</g>
<g>
</g>
<g>
</g>
<g>
</g>
</svg>
