<svg id="Layer_1" enable-background="new 0 0 512 512" viewBox="0 0 512 512" xmlns="http://www.w3.org/2000/svg"><path d="m221.215 304.697c0 3.267-2.657 5.924-5.924 5.924s-5.924-2.657-5.924-5.924 2.657-5.924 5.924-5.924 5.924 2.657 5.924 5.924zm38.25-116.409c0-24.358-19.816-44.174-44.174-44.174s-44.174 19.816-44.174 44.174c0 3.267 2.657 5.924 5.924 5.924s5.924-2.657 5.924-5.924c0-17.825 14.502-32.327 32.327-32.327 17.824 0 32.326 14.502 32.326 32.327 0 16.223-11.601 29.684-27.584 32.006-6.081.883-10.665 6.152-10.665 12.256v27.206c0 3.267 2.657 5.924 5.924 5.924s5.924-2.658 5.924-5.924v-21.208c0-3.595 2.398-6.749 5.863-7.709 19.067-5.286 32.385-22.784 32.385-42.551zm71.157 62.472c-14.604 0-29.389 9.65-29.389 28.095 0 .184.006.367.019.55l8.119 117.885c.158 11.507 9.241 20.146 21.251 20.146s21.092-8.638 21.251-20.145l8.119-117.886c.013-.183.019-.366.019-.55 0-18.445-14.784-28.095-29.389-28.095zm0 171.882c-13.815 0-25.054 11.239-25.054 25.054s11.239 25.055 25.054 25.055 25.055-11.239 25.055-25.055c0-13.814-11.24-25.054-25.055-25.054zm177.24 64.156c-4.305 7.598-12.105 12.135-20.866 12.135h-312.748c-8.761 0-16.561-4.537-20.866-12.135s-4.187-16.621.316-24.135l19.167-31.986v-25.112c-18.971-4.492-36.938-11.939-53.567-22.204l-19.883 19.883c-1.5 1.5-3.535 2.343-5.657 2.343s-4.157-.843-5.657-2.343l-48.686-48.687c-3.124-3.124-3.124-8.189 0-11.313l19.882-19.882c-10.261-16.623-17.709-34.592-22.203-53.568h-28.103c-4.418 0-8-3.582-8-8v-68.852c0-4.418 3.582-8 8-8h28.102c4.492-18.97 11.939-36.936 22.205-53.567l-19.884-19.885c-1.5-1.5-2.343-3.535-2.343-5.657s.843-4.157 2.343-5.657l48.687-48.686c3.124-3.124 8.189-3.125 11.313 0l19.884 19.883c16.622-10.26 34.591-17.708 53.567-22.202v-28.104c0-4.418 3.582-8 8-8h68.853c4.418 0 8 3.582 8 8v28.105c18.969 4.492 36.935 11.939 53.565 22.204l19.885-19.885c1.5-1.5 3.535-2.343 5.657-2.343s4.157.843 5.657 2.343l48.686 48.687c3.124 3.124 3.124 8.189 0 11.313l-19.884 19.884c10.261 16.622 17.708 34.587 22.203 53.565h28.105c4.418 0 8 3.582 8 8v68.852c0 4.418-3.582 8-8 8h-28.107c-.141.595-.301 1.183-.448 1.776l114.511 191.093c4.5 7.516 4.619 16.539.314 24.137zm-325.433-95.522c3.742.746 6.436 4.03 6.436 7.846v4.854l27.723-46.264c-.433.004-.866.021-1.298.021-71.883 0-130.365-58.481-130.365-130.365s58.481-130.364 130.365-130.364c57.049 0 107.65 37.456 124.49 91.585 3.277 1.673 6.075 4.247 8.054 7.549l35.198 58.737c1.187-.689 2.561-1.081 4.012-1.081h26.547v-52.852h-26.547c-3.815 0-7.099-2.694-7.845-6.435-4.277-21.445-12.615-41.562-24.782-59.79-2.118-3.173-1.701-7.4.997-10.098l18.783-18.783-37.372-37.374-18.785 18.783c-2.696 2.698-6.924 3.116-10.097.998-18.24-12.171-38.356-20.51-59.79-24.782-3.742-.746-6.436-4.03-6.436-7.846v-26.548h-52.853v26.548c0 3.815-2.694 7.099-6.436 7.845-21.445 4.277-41.562 12.614-59.792 24.781-3.172 2.119-7.399 1.701-10.098-.997l-18.781-18.782-37.373 37.372 18.783 18.783c2.698 2.697 3.115 6.924.998 10.097-12.172 18.241-20.51 38.357-24.783 59.792-.746 3.742-4.03 6.436-7.846 6.436h-26.545v52.852h26.545c3.815 0 7.1 2.694 7.846 6.436 4.276 21.446 12.614 41.563 24.782 59.792 2.118 3.173 1.701 7.4-.997 10.098l-18.781 18.781 37.372 37.373 18.782-18.782c2.697-2.698 6.926-3.114 10.097-.998 18.239 12.172 38.356 20.51 59.792 24.782zm54.786-131.519v-15.454c22.799-8.939 38.25-31.159 38.25-56.015 0-33.18-26.994-60.174-60.174-60.174s-60.174 26.994-60.174 60.174c0 12.089 9.835 21.924 21.924 21.924s21.924-9.835 21.924-21.924c0-9.002 7.324-16.327 16.327-16.327 9.002 0 16.326 7.324 16.326 16.327 0 8.202-5.84 15.003-13.885 16.172-13.89 2.018-24.365 14.094-24.365 28.09v27.206c0 12.089 9.835 21.924 21.924 21.924s21.923-9.835 21.923-21.923zm-21.923 23.016c-12.089 0-21.924 9.835-21.924 21.924s9.835 21.924 21.924 21.924 21.924-9.835 21.924-21.924-9.836-21.924-21.924-21.924zm278.529 188.113-159.712-266.525c-1.061-1.771-2.792-1.962-3.487-1.962s-2.426.191-3.487 1.962l-159.713 266.526c-2.165 3.612-.805 6.814-.12 8.023.686 1.209 2.734 4.022 6.945 4.022h312.748c4.212 0 6.26-2.813 6.945-4.022.686-1.209 2.046-4.411-.119-8.024z"/></svg>