<svg height="512" viewBox="0 0 60 60" width="512" xmlns="http://www.w3.org/2000/svg"><g id="Page-1" fill="none" fill-rule="evenodd"><g id="020---Teamwork" fill="rgb(0,0,0)" fill-rule="nonzero" transform="translate(-1 -1)"><path id="Shape" d="m57.859 5.018c-.713297-.0723674-1.431681.07486818-2.059.422-.3062758-.9935906-1.0430095-1.79685016-2.0064864-2.18766897-.9634769-.39081882-2.051608-.32778609-2.9635136.17166897-.5077104-1.57213372-2.0456014-2.57516049-3.689-2.406-1.0693851.12156354-2.0217756.73260075-2.578 1.654-.8313886-.61545069-1.8959636-.82321948-2.8977568-.56554345-1.0017931.25767603-1.833996.95332415-2.2652432 1.89354345h-9.848c-.1824546-.00135359-.3611277-.05215619-.517-.147l-4.043-2.419c-.4647996-.28090279-.9969206-.43086415-1.54-.434h-14.809c-1.82994155-.02451483-3.38821954 1.32527631-3.625 3.14-.07225308.71361161.07496938 1.43228049.422 2.06-.99387552.30587375-1.79740742 1.04265202-2.18811759 2.00633915-.39071017.96368712-.32713703 2.05201805.17311759 2.96366085-1.57456683.5058717-2.57901437 2.0461359-2.407 3.691.12112007 1.0695428.73227254 2.022113 1.654 2.578-.50746305.6998981-.74019761 1.5617989-.654 2.422.14287018 1.1956544.89201833 2.2331981 1.982 2.745v9.844c-.00174647.1815935-.05291015.3592836-.148.514l-2.44 4.064c-.2655487.4632574-.40743068.9870499-.412 1.521v14.809c-.02303509 1.829566 1.3267193 3.3868757 3.141 3.624.71319562.0703896 1.43099617-.0767264 2.059-.422.30612275.9939325 1.04309437 1.7974472 2.00692723 2.1881378.96383286.3906907 2.05228167.3271121 2.96407277-.1731378.4633205 1.4469284 1.809704 2.4276974 3.329 2.425 1.2055336.0002685 2.322003-.6347283 2.938-1.671.8321843.6154258 1.8973988.8230587 2.8997985.5652323 1.0023997-.2578265 1.8352354-.9536554 2.2672015-1.8942323h9.843c.1824546.0013536.3611277.0521562.517.147l4.043 2.421c.4651005.2798508.9972017.42877 1.54.431h14.809c1.8299416.0245148 3.3882195-1.3252763 3.625-3.14.0720458-.7132807-.0751702-1.4315695-.422-2.059.9938755-.3058738 1.7974074-1.042652 2.1881176-2.0063391.3907102-.9636872.327137-2.0520181-.1731176-2.9636609 1.5737652-.5057195 2.5780149-2.0448458 2.407-3.689-.1211201-1.0695428-.7322725-2.022113-1.654-2.578.507463-.6998981.7401976-1.5617989.654-2.422-.143991-1.1942418-.8930034-2.2300858-1.982-2.741v-9.85c.0021231-.1820292.0528755-.3601805.147-.516l2.422-4.042c.2798404-.4654711.4287517-.9978896.431-1.541v-14.809c.0230351-1.82956601-1.3267193-3.38687575-3.141-3.624zm-54.851 9.645c-.0463306-.4238298.08988816-.8473503.37460845-1.1647028.28472029-.3173524.69103705-.4985481 1.11739155-.4982972h6.5c.5522847 0 1-.4477153 1-1s-.4477153-1-1-1h-4.5c-.42629448.0010112-.8328833-.1794096-1.11816549-.4961778-.28528218-.3167681-.42230725-.73995874-.37683451-1.1638222.12796759-.79696883.83147693-1.37248929 1.638-1.34h6.357c.5522847 0 1-.44771525 1-1s-.4477153-1-1-1h-4.5c-.42629448.00101123-.8328833-.17940959-1.11816549-.49617777-.28528218-.31676818-.42230725-.73995877-.37683451-1.16382223.1275504-.79720882.83132436-1.37294576 1.638-1.34h14.809c.1822741.00138325.3607033.05256061.516.148l4.044 2.422c.465398.27904179.9973641.42757776 1.54.43h9.448v8.889l-1.732-1.418c-1.2997134-.9920197-3.1278644-.8915159-4.311.237-.8784975.8519673-1.1838425 2.1357425-.783 3.292h-3.353c-.7870196.0033139-1.5412181.3157675-2.1.87l-9.411 9.334-.02.02-.416.412c-.4877945.4768937-1.2687913.4715383-1.75-.012-.4392138-.4409512-.4820552-1.1396951-.1-1.631l2.75-3.36c.2445321-.29906.2949399-.7122196.1294846-1.0613004s-.5171779-.571641-.9034846-.5716996h-11.357c-.80522709.0314569-1.50712477-.5433694-1.635-1.339-.04572041-.4235054.09077461-.8464772.37542515-1.1633704.28465054-.3168931.69060872-.4978186 1.11657485-.4976296h5.5c.5522847 0 1-.4477153 1-1s-.4477153-1-1-1h-6.357c-.80442416.0311405-1.50580838-.5424073-1.635-1.337zm39.992 18.994-9.13 9.054c-.1836391.1835334-.4323716.2870521-.692.288h-4.836l-9.053-9.126c-.1840516-.1837832-.2879416-.4329036-.289-.693v-4.84l9.127-9.051c.1839665-.184388.4335348-.2883148.694-.289h4.84l9.053 9.126c.1826449.184883.2853542.4341145.286.694zm-23.348 24.335c-.4210381.0454447-.8414044-.0914018-1.155-.376-.3150607-.2856821-.4954343-.6907059-.497-1.116v-.015-5.485c0-.5522847-.4477153-1-1-1s-1 .4477153-1 1v5.5.014.845c.0274644.8080688-.5522423 1.5096383-1.351 1.635-.4201596.04574-.8397246-.0912013-1.152-.376-.3157804-.2860017-.4962448-.6919558-.497-1.118v-2-.02-4.48c0-.5522847-.4477153-1-1-1s-1 .4477153-1 1v4.5.012c-.0026683.4240276-.1846823.8271157-.5010002 1.1095153-.316318.2823995-.73738387.4177236-1.1589998.3724847-.79681564-.1275084-1.37242635-.8306985-1.34-1.637v-1.857-.015-4.485c0-.5522847-.44771525-1-1-1s-1 .4477153-1 1v4.5.009c-.00185239.4243577-.18336505.8280738-.49955713 1.1111028-.31619209.2830291-.73747235.4188836-1.15944287.3738972-.79658301-.1274307-1.37238414-.8298994-1.341-1.636v-14.809c.00154101-.1801517.04867232-.3569801.137-.514l2.433-4.046c.27845949-.4652825.42695702-.9967655.43-1.539v-9.45h8.888l-1.419 1.733c-.9148286 1.1127325-.9798926 2.6975092-.1593568 3.8814881.8205357 1.1839789 2.3272752 1.6794449 3.6903568 1.2135119v3.352c.0033139.7870196.3157675 1.5412181.87 2.1l9.326 9.4c.011.012.022.023.034.034l.407.41c.3503884.3566587.4523023.8888576.2584682 1.3497327-.1938342.4608751-.6454917.7602538-1.1454682.7592673-.2721359.0012076-.5366007-.0901209-.75-.259l-3.359-2.749c-.2990014-.2497249-.7158111-.3030767-1.0680718-.1367134-.3522608.1663632-.5758432.5221548-.5729282.9117134v11.357c.0276692.8070895-.5504401 1.5082829-1.348 1.635zm39.34-10.655c.0463306.4238298-.0898882.8473503-.3746084 1.1647028-.2847203.3173524-.6910371.4985481-1.1173916.4982972h-6.5c-.5522847 0-1 .4477153-1 1s.4477153 1 1 1h4.5c.4262945-.0010112.8328833.1794096 1.1181655.4961778.2852822.3167681.4223072.7399587.3768345 1.1638222-.1279676.7969688-.8314769 1.3724893-1.638 1.34h-6.357c-.5522847 0-1 .4477153-1 1s.4477153 1 1 1h4.5c.4262945-.0010112.8328833.1794096 1.1181655.4961778.2852822.3167681.4223072.7399587.3768345 1.1638222-.1275504.7972088-.8313244 1.3729458-1.638 1.34h-14.809c-.1822741-.0013833-.3607033-.0525606-.516-.148l-4.044-2.422c-.465398-.2790418-.9973641-.4275778-1.54-.43h-9.448v-8.891l1.732 1.418c1.2985208.9958877 3.1294738.8952298 4.311-.237.8787634-.8509228 1.1852394-2.1337549.786-3.29h3.35c.7870196-.0033139 1.5412181-.3157675 2.1-.87l9.408-9.33.035-.034.407-.4c.4877945-.4768937 1.2687913-.4715383 1.75.012.4392138.4409512.4820552 1.1396951.1 1.631l-2.75 3.36c-.2429447.2986794-.2928442.7103058-.1283026 1.0583828s.5142985.5707793.8993026.5726172h11.357c.8052271-.0314569 1.5071248.5433694 1.635 1.339.0457204.4235054-.0907746.8464772-.3754252 1.1633704-.2846505.3168931-.6906087.4978186-1.1165748.4976296h-5.5c-.5522847 0-1 .4477153-1 1s.4477153 1 1 1h6.36c.8033013-.0295912 1.502941.5435819 1.632 1.337zm.008-23.886c-.001534.1821145-.0523299.3604185-.147.516l-2.423 4.044c-.2789145.4650868-.4274476.996697-.43 1.539v9.45h-8.891l1.419-1.733c1.0300158-1.2873797.9270696-3.1434268-.239-4.309-.8735475-.8382248-2.136691-1.1293354-3.289-.758v-3.38c-.0033139-.7870196-.3157675-1.5412181-.87-2.1l-9.33-9.414-.019-.019-.413-.416c-.2342944-.2314392-.3651624-.5477093-.3629029-.8770311s.1374549-.6437663.3749029-.8719689c.4469994-.4264546 1.1362785-.4686899 1.632-.1l3.359 2.749c.2987148.2417036.7095035.2908685 1.0568205.1264846s.5697246-.5132384.5721795-.8974846v-11.357c-.0309343-.80540032.5442088-1.50716065 1.34-1.635.4233431-.04541573.8460408.0912172 1.1627044.37583293s.4974539.69039491.4972956 1.11616707v5.5c0 .5522847.4477153 1 1 1s1-.4477153 1-1v-6.357c-.0313889-.80555296.5439698-1.50757643 1.34-1.635.4233431-.04541573.8460408.0912172 1.1627044.37583293s.4974539.69039491.4972956 1.11616707v6.5c0 .5522847.4477153 1 1 1s1-.4477153 1-1v-4.5c-.0007267-.42612042.1798174-.83243925.4965507-1.1174992s.7397594-.42195433 1.1634493-.3765008c.7968156.12750842 1.3724263.83069851 1.34 1.637v6.357c0 .5522847.4477153 1 1 1s1-.4477153 1-1v-4.5c-.0007267-.42612042.1798174-.83243925.4965507-1.1174992s.7397594-.42195433 1.1634493-.3765008c.7961835.12788239 1.3714522.83022536 1.34 1.636z"/></g></g></svg>