<?xml version="1.0" encoding="utf-8"?>
<!-- Generator: Adobe Illustrator 27.5.0, SVG Export Plug-In . SVG Version: 6.00 Build 0)  -->
<svg version="1.1" xmlns="http://www.w3.org/2000/svg" xmlns:xlink="http://www.w3.org/1999/xlink" x="0px" y="0px"
	 viewBox="0 0 500 500" style="enable-background:new 0 0 500 500;" xml:space="preserve">
<g id="BACKGROUND">
	<rect style="fill:#FFFFFF;" width="500" height="500"/>
</g>
<g id="OBJECTS">
	<g>
		<g>
			<rect x="236.027" y="188.439" style="fill:#767285;" width="27.946" height="33.459"/>
			<rect x="229.468" y="178.3" style="fill:#B8B3CF;" width="41.064" height="10.139"/>
			
				<rect x="292.456" y="205.626" transform="matrix(0.8308 0.5566 -0.5566 0.8308 175.5972 -132.9247)" style="fill:#767285;" width="27.946" height="33.459"/>
			
				<rect x="298.03" y="199.175" transform="matrix(0.8308 0.5566 -0.5566 0.8308 167.5699 -142.7411)" style="fill:#B8B3CF;" width="41.064" height="10.139"/>
			
				<rect x="179.597" y="205.626" transform="matrix(-0.8308 0.5566 -0.5566 -0.8308 478.1438 299.3578)" style="fill:#767285;" width="27.946" height="33.459"/>
			
				<rect x="160.906" y="199.175" transform="matrix(-0.8308 0.5566 -0.5566 -0.8308 445.8517 272.9525)" style="fill:#B8B3CF;" width="41.064" height="10.139"/>
			
				<ellipse transform="matrix(0.7071 -0.7071 0.7071 0.7071 -145.0959 267.2075)" style="fill:#B8B3CF;" cx="250" cy="308.75" rx="110.64" ry="110.64"/>
			<circle style="fill:#FFFFFF;" cx="250" cy="308.75" r="95.664"/>
			<g>
				<circle style="fill:#968FB0;" cx="250" cy="224.75" r="4.563"/>
				<path style="fill:#968FB0;" d="M254.563,392.75c0,2.52-2.043,4.563-4.563,4.563c-2.52,0-4.563-2.043-4.563-4.563
					c0-2.52,2.043-4.563,4.563-4.563C252.52,388.188,254.563,390.23,254.563,392.75z"/>
			</g>
			<g>
				<circle style="fill:#968FB0;" cx="334" cy="308.75" r="4.563"/>
				<circle style="fill:#968FB0;" cx="166" cy="308.75" r="4.563"/>
			</g>
			<g>
				
					<line style="fill:none;stroke:#424874;stroke-width:2;stroke-linecap:round;stroke-miterlimit:10;" x1="312.623" y1="246.127" x2="303.124" y2="255.626"/>
				
					<line style="fill:none;stroke:#424874;stroke-width:2;stroke-linecap:round;stroke-miterlimit:10;" x1="196.876" y1="361.874" x2="187.377" y2="371.373"/>
			</g>
			<g>
				
					<line style="fill:none;stroke:#424874;stroke-width:2;stroke-linecap:round;stroke-miterlimit:10;" x1="187.377" y1="246.127" x2="196.876" y2="255.626"/>
				
					<line style="fill:none;stroke:#424874;stroke-width:2;stroke-linecap:round;stroke-miterlimit:10;" x1="303.124" y1="361.874" x2="312.623" y2="371.373"/>
			</g>
			<path style="fill:#424874;" d="M244.959,303.53l49.957-37.492l-39.956,48.009c-2.796,3.36-7.897,3.529-10.91,0.361l0,0
				C241.038,311.24,241.463,306.154,244.959,303.53z"/>
		</g>
		<g>
			<path style="fill:#767285;" d="M195.27,158.484H56.917c-1.708,0-3.093-1.385-3.093-3.093v-0.581c0-1.708,1.385-3.093,3.093-3.093
				H195.27c1.708,0,3.093,1.385,3.093,3.093v0.581C198.363,157.099,196.978,158.484,195.27,158.484z"/>
			<path style="fill:#767285;" d="M195.27,419.39H56.917c-1.708,0-3.093-1.385-3.093-3.093v-0.581c0-1.708,1.385-3.093,3.093-3.093
				H195.27c1.708,0,3.093,1.385,3.093,3.093v0.581C198.363,418.005,196.978,419.39,195.27,419.39z"/>
			<path style="fill:#DCD6F7;" d="M172.979,334.728c-5.704-9.226-13.14-15.509-21.357-22.324
				c-6.074-5.037-21.054-17.313-20.641-26.851c-0.413-9.538,14.567-21.814,20.641-26.851c8.218-6.815,15.653-13.098,21.357-22.324
				c5.494-8.887,9.155-18.794,11.714-28.89c0.756-2.981,7.69-49.005,5.824-49.005c-0.002,0-64.423,0-64.423,0s-64.421,0-64.423,0
				c-1.867,0,5.068,46.024,5.824,49.005c2.56,10.096,6.22,20.003,11.714,28.89c5.704,9.226,13.14,15.509,21.357,22.324
				c6.074,5.037,21.054,17.313,20.641,26.851c0.413,9.538-14.567,21.814-20.641,26.851c-8.218,6.814-15.653,13.098-21.357,22.324
				c-5.494,8.887-9.155,18.794-11.714,28.89c-0.756,2.981-7.69,49.005-5.824,49.005c0.002,0,64.423,0,64.423,0s64.421,0,64.423,0
				c1.867,0-5.068-46.024-5.824-49.005C182.133,353.522,178.473,343.615,172.979,334.728z"/>
			<path style="fill:#A6B1E1;" d="M150.056,254.464c7.714-6.526,14.693-12.544,20.048-21.38c5.158-8.511,8.593-17.999,10.996-27.668
				c0.161-0.65,0.624-3.442,1.221-7.361c-5.151-0.207-10.381,0.276-15.483,1.036c-9.59,1.429-19.086,3.771-28.777,4.073
				c-13.809,0.43-27.372-3.292-40.686-6.982c-9.651-2.675-19.301-5.35-28.952-8.024c1.215,8.665,2.387,16.138,2.666,17.258
				c2.403,9.669,5.838,19.157,10.996,27.668c5.354,8.836,12.334,14.853,20.048,21.38c5.702,4.824,22.316,16.581,21.928,25.715
				v71.878c-40.332,1.917-50.775,60.566-50.775,60.566h52.809h52.809c0,0-10.443-58.648-50.775-60.566V280.18
				C127.74,271.045,144.354,259.288,150.056,254.464z"/>
			<path style="fill:#DCD6F7;" d="M83.102,363.618c2.56-10.096,6.22-20.003,11.714-28.89c5.704-9.226,13.14-15.509,21.357-22.324
				c4.319-3.581,13.135-10.822,17.724-18.136c-1.865-2.973-3.036-5.958-2.917-8.715c-0.12-2.756,1.051-5.742,2.917-8.715
				c-4.589-7.314-13.405-14.555-17.724-18.136c-8.218-6.815-15.653-13.098-21.357-22.324c-5.494-8.887-9.155-18.794-11.714-28.89
				c-0.756-2.981-7.69-49.004-5.824-49.004c-8.989,0-15.607,0-15.608,0c-1.867,0,5.068,46.024,5.824,49.004
				c2.56,10.096,6.22,20.003,11.714,28.89c5.704,9.226,13.14,15.509,21.357,22.324c6.074,5.037,21.054,17.313,20.641,26.851
				c0.413,9.538-14.567,21.814-20.641,26.851c-8.218,6.814-15.653,13.098-21.357,22.324c-5.494,8.887-9.155,18.794-11.714,28.89
				c-0.756,2.981-7.69,49.005-5.824,49.005c0.001,0,6.619,0,15.608,0C75.411,412.623,82.346,366.599,83.102,363.618z"/>
			<path style="opacity:0.5;fill:#DCD6F7;" d="M172.979,334.728c-5.704-9.226-13.14-15.509-21.357-22.324
				c-6.074-5.037-21.054-17.313-20.641-26.851c-0.413-9.538,14.566-21.814,20.641-26.851c8.218-6.815,15.653-13.098,21.357-22.324
				c5.494-8.887,9.155-18.794,11.714-28.89c0.756-2.981,7.69-49.004,5.824-49.004c0,0-0.917,0-2.517,0
				c1.867,0-5.068,46.024-5.824,49.004c-2.56,10.096-6.22,20.003-11.714,28.89c-5.704,9.226-13.14,15.509-21.357,22.324
				c-6.074,5.037-21.054,17.313-20.641,26.851c-0.413,9.538,14.566,21.814,20.641,26.851c8.218,6.814,15.653,13.098,21.357,22.324
				c5.494,8.887,9.155,18.794,11.714,28.89c0.756,2.981,7.69,49.005,5.824,49.005c1.6,0,2.517,0,2.517,0
				c1.867,0-5.068-46.024-5.824-49.005C182.133,353.522,178.473,343.615,172.979,334.728z"/>
		</g>
		<rect x="34" y="419.39" style="fill:#968FB0;" width="432" height="5.544"/>
		<g>
			<path style="fill:#23263D;" d="M402.002,359.307h-44.957c-1.854,0-3.356-1.503-3.356-3.356v-1.106
				c0-1.854,1.503-3.356,3.356-3.356h44.957c1.854,0,3.357,1.503,3.357,3.356v1.106
				C405.359,357.805,403.856,359.307,402.002,359.307z"/>
			<polygon style="fill:#424874;" points="361.534,359.307 352.363,419.39 355.014,419.39 367.419,359.307 			"/>
			<polygon style="fill:#424874;" points="397.513,359.307 406.684,419.39 404.033,419.39 391.627,359.307 			"/>
		</g>
		<g>
			<path style="fill:#784940;" d="M355.679,252.885c0,1.671-1.355,3.026-3.026,3.026c-1.671,0-3.026-1.355-3.026-3.026
				s1.355-3.026,3.026-3.026C354.324,249.859,355.679,251.214,355.679,252.885z"/>
			<polygon style="fill:#616885;" points="377.04,256.169 358.761,260.701 368.148,270.901 			"/>
			<path style="fill:#784940;" d="M373.828,248.758l1.995,9.428l24.942,7.591c4.056,1.234,7.117,4.581,7.987,8.73l9.6,44.175
				c0.813,3.878-2.147,7.522-6.109,7.522h-81.046l9.145-50.458c0.771-3.69,3.303-6.768,6.775-8.236l20.758-8.776l1.37-9.976H373.828
				z"/>
			<path style="opacity:0.5;fill:#784940;" d="M366.233,263.34L366.233,263.34c4.583-0.866,7.966-4.432,8.83-8.739l-1.236-5.842
				h-4.583l-1.37,9.976l-8.614,3.642C361.348,263.408,363.769,263.805,366.233,263.34z"/>
			<polygon style="fill:#59362F;" points="336.072,299.297 346.644,299.297 349.785,326.205 331.195,326.205 			"/>
			<polygon style="opacity:0.4;fill:#59362F;" points="345.201,299.297 342.814,326.205 349.785,326.205 346.644,299.297 			"/>
			<path style="fill:#97BDFF;" d="M357.931,262.938l10.217,7.962l10.029-11.997l23.441,7.134c3.59,1.093,6.432,3.853,7.628,7.41
				l8.509,25.302h-21.652l4.158,17.04l-37.274,1.644v8.77h-13.203l-3.141-26.907h-14.331l5.433-22.744
				c0.849-3.554,3.338-6.493,6.703-7.916L357.931,262.938z"/>
			<polygon style="fill:#A6B1E1;" points="395.158,294.573 395.158,316.015 400.262,315.79 			"/>
			<polygon style="fill:#F4EEFF;" points="346.644,299.297 332.313,299.297 333.197,295.597 346.212,295.597 			"/>
			<g>
				<path style="fill:#22242E;" d="M368.148,270.901c0.623,3.833,1.137,7.679,1.634,11.526c0.5,3.847,0.91,7.703,1.37,11.554
					c0.379,3.86,0.801,7.715,1.139,11.579l0.488,5.798c0.126,1.937,0.287,3.87,0.383,5.81c-0.322-1.916-0.579-3.838-0.871-5.757
					l-0.766-5.768c-0.497-3.847-0.911-7.703-1.368-11.555c-0.376-3.86-0.802-7.715-1.138-11.579
					C368.683,278.645,368.361,274.779,368.148,270.901z"/>
			</g>
			<polygon style="fill:#784940;" points="362.988,317.434 348.599,314.654 332.04,322.162 362.988,322.162 			"/>
			<polygon style="fill:#FFFFFF;stroke:#000000;stroke-miterlimit:10;" points="333.608,314.654 300.705,318.188 300.705,326.205 
				331.195,326.205 			"/>
			<polygon style="fill:#DCD6F7;" points="341.603,322.162 286.24,322.162 276.874,284.292 332.237,284.292 			"/>
			<rect x="286.24" y="322.162" style="fill:#968FB0;" width="85.922" height="4.043"/>
			<g>
				<path style="fill:#22242E;" d="M348.599,314.654c-0.467-2.107-0.826-4.228-1.167-6.351c-0.353-2.122-0.628-4.253-0.903-6.384
					c-0.251-2.134-0.501-4.268-0.673-6.412l-0.255-3.216c-0.049-1.076-0.132-2.149-0.15-3.229c0.244,1.053,0.423,2.113,0.637,3.169
					l0.532,3.182c0.352,2.122,0.628,4.253,0.901,6.384c0.25,2.134,0.5,4.268,0.671,6.412
					C348.375,310.351,348.541,312.496,348.599,314.654z"/>
			</g>
			<polygon style="fill:#F4EEFF;" points="368.148,270.901 364.174,275.834 357.931,262.938 358.761,260.701 			"/>
			<polygon style="fill:#F4EEFF;" points="368.148,270.901 373.971,275.834 378.178,258.903 377.04,256.169 			"/>
			<polygon style="fill:#F4EEFF;" points="395.158,294.573 416.351,294.573 417.755,298.749 396.104,298.749 			"/>
			<g>
				<path style="fill:#23263D;" d="M382.612,330.855l2.418,11.395c1.01,4.758-2.619,9.238-7.483,9.238h-50.912l5.755,54.472h-14.224
					l-17.354-62.061c-1.832-6.552,3.093-13.043,9.897-13.043H382.612z"/>
				<path style="fill:#424874;" d="M406.457,330.855l2.418,11.395c1.01,4.758-2.619,9.238-7.483,9.238H350.48l5.755,54.472h-14.224
					l-17.355-62.061c-1.832-6.552,3.093-13.043,9.897-13.043H406.457z"/>
			</g>
			<polygon style="fill:#7E86AB;" points="318.167,405.96 293.532,419.39 335.807,419.39 332.391,405.96 			"/>
			<polygon style="fill:#A6B1E1;" points="342.012,405.96 317.376,419.39 359.652,419.39 356.236,405.96 			"/>
			<path style="fill:#784940;" d="M377.621,246.648c0,1.677-1.351,3.029-3.029,3.029c-0.221,0-0.443-0.023-0.641-0.07
				c-0.035-0.279-0.082-0.571-0.128-0.85l-0.874-4.648c0.478-0.314,1.037-0.489,1.642-0.489
				C376.27,243.62,377.621,244.982,377.621,246.648z"/>
			<path style="fill:#784940;" d="M364.97,261.743L364.97,261.743c-6.031,1.14-11.845-2.826-12.984-8.857l-1.577-8.344
				c-1.14-6.031,2.826-11.845,8.857-12.984h0c6.031-1.14,11.845,2.826,12.984,8.857l1.577,8.344
				C374.967,254.79,371.002,260.603,364.97,261.743z"/>
			<path style="fill:#212121;" d="M373.579,247.444l-2.924-4.848l-0.589-4.231c0,0-5.481,3.426-13.567,1.233
				c0,0-1.767,3.721-6.091,4.944l1.12,2.107l0.457,6.237c0,0-3.78-6.025-4.361-9.862c-0.581-3.837,0.789-9.593,3.804-11.374
				c0,0,6.219-8.907,16.471-3.152C378.152,234.253,373.579,247.444,373.579,247.444z"/>
			<g>
				<path style="fill:#22242E;" d="M400.262,315.79c-0.784-2.416-1.46-4.858-2.121-7.303c-0.672-2.443-1.267-4.904-1.862-7.365
					c-0.572-2.466-1.142-4.933-1.637-7.418l-0.738-3.728c-0.211-1.251-0.455-2.494-0.636-3.752c0.402,1.206,0.741,2.426,1.113,3.639
					l1.01,3.664c0.671,2.443,1.267,4.904,1.861,7.365c0.571,2.467,1.141,4.934,1.635,7.418
					C399.391,310.793,399.88,313.279,400.262,315.79z"/>
			</g>
		</g>
		<g>
			<rect x="246.156" y="326.205" style="fill:#B8B3CF;" width="200.977" height="4.651"/>
			<g>
				<polygon style="fill:#424874;" points="261.381,330.855 244.688,419.39 249.824,419.39 269.036,330.855 				"/>
				<polygon style="fill:#424874;" points="431.908,330.855 448.601,419.39 443.465,419.39 424.253,330.855 				"/>
			</g>
		</g>
		<g>
			<rect x="369.367" y="121.3" style="fill:#DCD6F7;" width="65.103" height="82.588"/>
			<g>
				<rect x="378.633" y="132.946" style="fill:#968FB0;" width="9.971" height="9.971"/>
				<polygon style="fill:#FFFFFF;" points="379.162,134.112 383.674,138.324 390.034,130.361 383.674,141.318 377.203,137.178 				
					"/>
				<rect x="394.272" y="132.946" style="fill:#968FB0;" width="32.361" height="1.765"/>
				<rect x="394.272" y="137.931" style="fill:#968FB0;" width="22.126" height="1.765"/>
			</g>
			<g>
				<rect x="378.633" y="150.725" style="fill:#968FB0;" width="9.971" height="9.971"/>
				<polygon style="fill:#FFFFFF;" points="379.162,151.891 383.674,156.104 390.034,148.14 383.674,159.097 377.203,154.958 				
					"/>
				<rect x="394.272" y="150.725" style="fill:#968FB0;" width="32.361" height="1.765"/>
				<rect x="394.272" y="155.71" style="fill:#968FB0;" width="22.126" height="1.765"/>
			</g>
			<g>
				<rect x="378.633" y="168.505" style="fill:#968FB0;" width="9.971" height="9.971"/>
				<polygon style="fill:#FFFFFF;" points="379.162,169.67 383.674,173.883 390.034,165.92 383.674,176.876 377.203,172.737 				"/>
				<rect x="394.272" y="168.505" style="fill:#968FB0;" width="32.361" height="1.765"/>
				<rect x="394.272" y="173.49" style="fill:#968FB0;" width="22.126" height="1.765"/>
			</g>
		</g>
		<g>
			<rect x="263.651" y="118.125" style="fill:#DCD6F7;" width="13.669" height="36.976"/>
			<rect x="283.663" y="109.301" style="fill:#DCD6F7;" width="13.67" height="45.799"/>
			<rect x="303.675" y="128.672" style="fill:#DCD6F7;" width="13.669" height="26.429"/>
			<rect x="323.687" y="102.243" style="fill:#DCD6F7;" width="13.669" height="52.858"/>
			<polyline style="fill:none;stroke:#C1BCD9;stroke-miterlimit:10;" points="257.826,95.184 257.826,155.101 343.584,155.101 			
				"/>
		</g>
		<g>
			<rect x="168.647" y="102.243" style="fill:#DCD6F7;" width="54.118" height="28.033"/>
			<polygon style="fill:#C1BCD9;" points="168.647,130.276 195.706,111.243 222.765,130.276 			"/>
			<polygon style="fill:#C1BCD9;" points="168.647,102.243 195.706,120.243 222.765,102.243 			"/>
			<polygon style="fill:#DCD6F7;" points="168.647,102.243 195.706,83.89 222.765,102.243 			"/>
			<polygon style="fill:#968FB0;" points="195.706,75.066 175.641,75.066 175.641,106.895 195.706,120.243 215.771,106.895 
				215.771,75.066 			"/>
			<line style="fill:none;stroke:#FFFFFF;stroke-miterlimit:10;" x1="184.542" y1="82.478" x2="210.869" y2="82.478"/>
			<line style="fill:none;stroke:#FFFFFF;stroke-miterlimit:10;" x1="180.542" y1="88.243" x2="210.869" y2="88.243"/>
			<line style="fill:none;stroke:#FFFFFF;stroke-miterlimit:10;" x1="180.542" y1="94.007" x2="210.869" y2="94.007"/>
			<line style="fill:none;stroke:#FFFFFF;stroke-miterlimit:10;" x1="180.542" y1="99.772" x2="210.869" y2="99.772"/>
			<line style="fill:none;stroke:#FFFFFF;stroke-miterlimit:10;" x1="180.542" y1="105.537" x2="200.869" y2="105.537"/>
		</g>
		<g>
			<path style="fill:#C1BCD9;" d="M76.96,111.358c0-9.371,12.317-16.968,27.511-16.968s27.511,7.597,27.511,16.968
				c0,9.371-12.317,16.968-27.511,16.968c-3.723,0-7.272-0.459-10.511-1.285l-6.52,6.481l1.987-7.96
				C81.922,122.532,76.96,117.303,76.96,111.358z"/>
			<path style="fill:#DCD6F7;" d="M146.955,106.532c0-9.371-12.317-16.968-27.511-16.968s-27.511,7.597-27.511,16.968
				c0,9.371,12.317,16.968,27.511,16.968c3.723,0,7.272-0.459,10.511-1.285l6.52,6.482l-1.987-7.96
				C141.993,117.706,146.955,112.478,146.955,106.532z"/>
			<path style="fill:#FFFFFF;" d="M110.897,110.868c0,1.103-0.894,1.996-1.996,1.996c-1.103,0-1.996-0.894-1.996-1.996
				c0-1.103,0.894-1.996,1.996-1.996C110.003,108.871,110.897,109.765,110.897,110.868z"/>
			<path style="fill:#FFFFFF;" d="M121.44,110.868c0,1.103-0.894,1.996-1.996,1.996s-1.996-0.894-1.996-1.996
				c0-1.103,0.894-1.996,1.996-1.996S121.44,109.765,121.44,110.868z"/>
			<path style="fill:#FFFFFF;" d="M131.983,110.868c0,1.103-0.894,1.996-1.996,1.996c-1.102,0-1.996-0.894-1.996-1.996
				c0-1.103,0.894-1.996,1.996-1.996C131.089,108.871,131.983,109.765,131.983,110.868z"/>
		</g>
		<path style="fill:none;stroke:#FFFFFF;stroke-width:4;stroke-linecap:round;stroke-miterlimit:10;" d="M175.641,184.23
			c0,0-1.817,32.836-19.229,51.66"/>
		<path style="fill:none;stroke:#FFFFFF;stroke-width:4;stroke-linecap:round;stroke-miterlimit:10;" d="M146.955,317.168
			c0,0,20.986,14.251,27.575,36.839"/>
		<path style="fill:none;stroke:#DCD6F7;stroke-miterlimit:10;" d="M407.809,231.837c0,3.254-2.638,5.891-5.891,5.891
			c-3.254,0-5.891-2.638-5.891-5.891s2.638-5.891,5.891-5.891C405.172,225.946,407.809,228.583,407.809,231.837z"/>
		<path style="fill:none;stroke:#DCD6F7;stroke-miterlimit:10;" d="M422.289,377.264c0,3.254-2.638,5.891-5.891,5.891
			s-5.891-2.638-5.891-5.891s2.638-5.891,5.891-5.891S422.289,374.011,422.289,377.264z"/>
		<path style="fill:none;stroke:#DCD6F7;stroke-miterlimit:10;" d="M96.455,291.358c0,3.254-2.638,5.891-5.891,5.891
			s-5.891-2.638-5.891-5.891s2.637-5.891,5.891-5.891S96.455,288.105,96.455,291.358z"/>
		<path style="fill:none;stroke:#DCD6F7;stroke-miterlimit:10;" d="M235.359,155.101c0,3.254-2.638,5.891-5.891,5.891
			c-3.254,0-5.891-2.638-5.891-5.891c0-3.254,2.638-5.891,5.891-5.891C232.722,149.21,235.359,151.847,235.359,155.101z"/>
		<path style="fill:none;stroke:#DCD6F7;stroke-miterlimit:10;" d="M346.262,180.064c0,2.301-1.865,4.166-4.166,4.166
			c-2.301,0-4.166-1.865-4.166-4.166c0-2.301,1.865-4.166,4.166-4.166C344.397,175.899,346.262,177.764,346.262,180.064z"/>
		<polygon style="fill:#DCD6F7;" points="434.664,254.337 430.617,258.385 426.569,254.337 424.253,256.653 428.3,260.701 
			424.253,264.749 426.569,267.065 430.617,263.017 434.664,267.065 436.98,264.749 432.933,260.701 436.98,256.653 		"/>
		<polygon style="fill:#DCD6F7;" points="383.571,393.307 379.523,397.355 375.476,393.307 373.159,395.623 377.207,399.671 
			373.159,403.719 375.476,406.035 379.523,401.987 383.571,406.035 385.887,403.719 381.839,399.671 385.887,395.623 		"/>
		<polygon style="fill:#DCD6F7;" points="367.036,88.82 362.988,92.868 358.94,88.82 356.624,91.136 360.672,95.184 356.624,99.232 
			358.94,101.548 362.988,97.5 367.036,101.548 369.352,99.232 365.304,95.184 369.352,91.136 		"/>
		<polygon style="fill:#DCD6F7;" points="66.106,258.173 62.058,262.221 58.01,258.173 55.694,260.489 59.742,264.537 
			55.694,268.585 58.01,270.901 62.058,266.853 66.106,270.901 68.422,268.585 64.374,264.537 68.422,260.489 		"/>
	</g>
	<path style="opacity:0.5;fill:#DCD6F7;" d="M276.874,284.292c0,0,14.39,31.973,64.728,37.87H286.24L276.874,284.292z"/>
</g>
</svg>
